Cantarell-Bold.sfdir
StartChar: exclam
Encoding: 33 33 12
Width: 228
Flags: HMW
LayerCount: 3
Fore
SplineSet
166 192 m 5
 61 192 l 5
 53 707 l 5
 175 707 l 5
 166 192 l 5
114 -10 m 3
 76 -10 47 19 47 57 c 3
 47 95 76 124 114 124 c 3
 152 124 181 95 181 57 c 3
 181 19 152 -10 114 -10 c 3
EndSplineSet
EndChar
StartChar: numbersign
Encoding: 35 35 78
Width: 731
VWidth: 1023
Flags: MW
LayerCount: 3
Fore
SplineSet
180 686 m 1
 298 686 l 1
 298 522 l 1
 433 522 l 1
 433 686 l 1
 551 686 l 1
 551 522 l 1
 706 522 l 1
 706 409 l 1
 551 409 l 1
 551 277 l 1
 706 277 l 1
 706 164 l 1
 551 164 l 1
 551 0 l 1
 433 0 l 1
 433 164 l 1
 298 164 l 1
 298 0 l 1
 180 0 l 1
 180 164 l 1
 26 164 l 1
 26 277 l 1
 180 277 l 1
 180 409 l 1
 25 409 l 1
 25 522 l 1
 180 522 l 1
 180 686 l 1
298 409 m 1
 298 277 l 1
 433 277 l 1
 433 409 l 1
 298 409 l 1
EndSplineSet
Validated: 1
EndChar
StartChar: dollar
Encoding: 36 36 79
Width: 607
VWidth: 1023
Flags: HMW
LayerCount: 3
Fore
SplineSet
224 468 m 3
 224 407 539 417 539 260 c 3
 539 204 507 131 375 109 c 1
 375 -32 l 1
 254 -32 l 1
 254 104 l 1
 208 104 156 117 98 139 c 2
 80 146 l 1
 116 239 l 1
 136 232 l 1
 197 208 231 201 279 201 c 3
 378 201 410 224 410 260 c 3
 410 323 97 302 97 468 c 3
 97 518 132 584 254 608 c 1
 254 730 l 1
 375 730 l 1
 375 617 l 1
 430 617 455 610 498 598 c 2
 518 592 l 1
 485 499 l 1
 467 503 l 1
 435 511 400 520 343 520 c 3
 258 520 224 488 224 468 c 3
EndSplineSet
Validated: 1
EndChar
StartChar: percent
Encoding: 37 37 86
Width: 770
Flags: HW
LayerCount: 3
Fore
SplineSet
331 530 m 259
 331 633 274 707 171 707 c 259
 68 707 10 633 10 530 c 3
 10 424 64 352 171 352 c 3
 274 352 331 427 331 530 c 259
208 0 m 1
 684 694 l 1
 549 694 l 1
 75 0 l 1
 208 0 l 1
112 530 m 259
 112 571 130 606 171 606 c 259
 212 606 230 571 230 530 c 259
 230 489 212 454 171 454 c 259
 130 454 112 489 112 530 c 259
760 168 m 259
 760 271 703 345 600 345 c 259
 497 345 439 271 439 168 c 3
 439 62 493 -10 600 -10 c 3
 703 -10 760 65 760 168 c 259
542 168 m 259
 542 209 559 244 600 244 c 259
 641 244 659 209 659 168 c 259
 659 127 641 92 600 92 c 259
 559 92 542 127 542 168 c 259
EndSplineSet
EndChar
StartChar: ampersand
Encoding: 38 38 91
Width: 750
VWidth: 1023
Flags: HW
LayerCount: 3
Fore
SplineSet
311 706 m 3
 441 706 507 617 507 534 c 3
 507 450 433 419 375 374 c 1
 500 243 l 1
 639 374 l 1
 715 297 l 1
 576 162 l 1
 730 -0 l 1
 571 0 l 1
 491 83 l 1
 442 37 381 -10 264 -10 c 3
 145 -10 63 79 63 178 c 3
 63 294 152 341 200 378 c 1
 158 420 116 465 116 534 c 3
 116 636 197 706 311 706 c 3
383 534 m 3
 383 565 350 587 311 587 c 3
 266 587 244 564 244 534 c 3
 244 507 267 482 299 449 c 1
 355 491 383 504 383 534 c 3
412 161 m 1
 280 297 l 1
 229 256 187 229 187 178 c 3
 187 135 210 101 264 101 c 3
 319 101 377 129 412 161 c 1
EndSplineSet
EndChar
StartChar: quotesingle
Encoding: 39 39 84
Width: 174
Flags: HMW
LayerCount: 3
Fore
SplineSet
31 638 m 21
 31 642 30 645 30 649 c 7
 30 683 51 706 87 706 c 263
 123 706 144 683 144 649 c 7
 144 645 143 642 143 638 c 13
 121 452 l 5
 53 452 l 5
 31 638 l 21
EndSplineSet
EndChar
StartChar: parenleft
Encoding: 40 40 72
Width: 334
VWidth: 1023
Flags: HMW
LayerCount: 3
Fore
SplineSet
227 730 m 1
 327 678 l 1
 316 660 l 2
 253 555 189 410 189 237 c 3
 189 66 253 -87 316 -191 c 1
 327 -208 l 1
 230 -270 l 1
 219 -252 l 2
 153 -143 63 42 63 238 c 3
 63 432 152 605 218 714 c 2
 227 730 l 1
EndSplineSet
Validated: 1
EndChar
StartChar: parenright
Encoding: 41 41 73
Width: 334
VWidth: 1023
Flags: HMW
LayerCount: 3
Fore
SplineSet
272 238 m 7
 272 40 180 -147 116 -252 c 2
 105 -270 l 1
 9 -208 l 1
 19 -191 l 1
 82 -87 146 66 146 237 c 7
 146 410 81 556 19 660 c 2
 8 678 l 1
 108 730 l 1
 118 714 l 2
 184 605 272 432 272 238 c 7
EndSplineSet
Validated: 1
EndChar
StartChar: asterisk
Encoding: 42 42 77
Width: 549
VWidth: 1023
Flags: MW
LayerCount: 3
Fore
SplineSet
212 714 m 1
 337 714 l 1
 330 577 l 1
 444 652 l 1
 507 543 l 1
 385 482 l 1
 507 420 l 1
 444 311 l 1
 330 386 l 1
 337 250 l 1
 212 250 l 1
 220 386 l 1
 106 311 l 1
 43 420 l 1
 166 482 l 1
 43 543 l 1
 106 652 l 1
 220 577 l 1
 212 714 l 1
EndSplineSet
Validated: 1
EndChar
StartChar: plus
Encoding: 43 43 76
Width: 727
VWidth: 1023
Flags: HMW
LayerCount: 3
Fore
SplineSet
308 622 m 1
 420 622 l 1
 420 375 l 1
 665 375 l 1
 665 268 l 1
 420 268 l 1
 420 21 l 1
 308 21 l 1
 308 268 l 1
 63 268 l 1
 63 375 l 5
 308 375 l 1
 308 622 l 1
EndSplineSet
EndChar
StartChar: comma
Encoding: 44 44 69
Width: 284
Flags: HMW
LayerCount: 3
Fore
SplineSet
137 144 m 7
 189 144 214 101 214 45 c 7
 214 11 204 -20 183 -50 c 132
 162 -80 134 -113 98 -149 c 5
 54 -121 l 5
 115 -7 l 5
 85 1 60 30 60 67 c 7
 60 111 93 144 137 144 c 7
EndSplineSet
EndChar
StartChar: hyphen
Encoding: 45 45 45
Width: 560
VWidth: 1023
Flags: HMW
LayerCount: 3
Fore
SplineSet
50 375 m 1
 510 375 l 1
 510 268 l 1
 50 268 l 1
 50 375 l 1
EndSplineSet
EndChar
StartChar: period
Encoding: 46 46 68
Width: 240
VWidth: 1023
Flags: MW
LayerCount: 3
Fore
SplineSet
50 140 m 1
 190 140 l 1
 190 0 l 1
 50 0 l 1
 50 140 l 1
EndSplineSet
Validated: 1
EndChar
StartChar: slash
Encoding: 47 47 74
Width: 410
VWidth: 1023
Flags: MW
LayerCount: 3
Fore
SplineSet
275 692 m 1
 401 692 l 1
 145 -44 l 1
 20 -44 l 1
 275 692 l 1
EndSplineSet
Validated: 1
EndChar
StartChar: zero
Encoding: 48 48 66
Width: 638
VWidth: 1023
Flags: HMW
LayerCount: 3
Fore
SplineSet
319 593 m 3
 219 593 173 454 173 354 c 3
 173 254 219 103 319 103 c 3
 419 103 465 254 465 354 c 3
 465 454 419 593 319 593 c 3
319 706 m 3
 519 706 588 514 588 354 c 3
 588 194 519 -10 319 -10 c 3
 119 -10 50 194 50 354 c 3
 50 514 119 706 319 706 c 3
EndSplineSet
Validated: 1
EndChar
StartChar: one
Encoding: 49 49 65
GlifName: one
Width: 580
Flags: HMW
LayerCount: 2
Back
SplineSet
312 694 m 1
 312 73 l 1
 476 73 l 5
 476 0 l 1
 64 0 l 1
 64 73 l 1
 229 73 l 1
 229 621 l 1
 98 565 l 1
 65 631 l 1
 213 694 l 1
 312 694 l 1
EndSplineSet
Fore
SplineSet
240 692 m 1
 363 692 l 1
 363 113 l 1
 531 113 l 1
 531 0 l 1
 72 0 l 1
 72 113 l 1
 240 113 l 1
 240 572 l 1
 92 512 l 1
 50 617 l 1
 240 692 l 1
EndSplineSet
EndChar
StartChar: two
Encoding: 50 50 63
Width: 640
Flags: HMW
LayerCount: 3
Back
SplineSet
92.5 540 m 13
 56.5 639 l 21
 105 663.700195312 179.525390625 702.654296875 293.5 703 c 5
 460.5 703 567.5 616 567.5 485 c 4
 567.5 375.600585938 365.033203125 267.3828125 295.5 203 c 4
 268.5 178 231.5 137 223.5 115 c 13
 582.5 113 l 29
 582.5 0 l 29
 58.5 0 l 29
 59.5 76.8916015625 l 21
 81.5361328125 123.458984375 112.5 181 163.5 233 c 4
 261.038085938 337.641601562 429.5 414.275390625 429.5 479 c 4
 429.5 537 381.5 589 293.5 589 c 4
 223.870117188 589 150 564.700195312 92.5 540 c 13
90.6796875 644.04296875 m 5
 149.896484375 673.452148438 227.833984375 698.75 307.555664062 698.75 c 4
 447.258789062 698.75 534.112304688 617.006835938 534.112304688 520.048828125 c 4
 534.112304688 345.451171875 284.513671875 308.498046875 204.875 73.2421875 c 5
 546.734375 73.2421875 l 5
 546.734375 0 l 5
 103.86328125 0 l 5
 103.86328125 45.41015625 l 5
 179.48828125 281.875976562 374.651367188 378.30859375 424.301757812 442.561523438 c 4
 435.68359375 457.291015625 447.466796875 477.87890625 447.466796875 505.400390625 c 4
 447.466796875 571.147460938 377.81640625 627.060546875 291.677734375 627.060546875 c 4
 250.502929688 627.060546875 208.642578125 613.662109375 188.740234375 607.529296875 c 6
 109.72265625 582.03125 l 5
 90.6796875 644.04296875 l 5
EndSplineSet
Fore
SplineSet
140 547 m 1
 93 645 l 1
 141 670 207 706 301 706 c 3
 468 706 545 615 545 502 c 3
 545 365 411 247 280 113 c 1
 559 113 l 1
 559 0 l 1
 82 0 l 1
 82 82 l 1
 178 173 422 383 422 502 c 3
 422 558 389 593 301 593 c 3
 231 593 198 572 140 547 c 1
EndSplineSet
EndChar
StartChar: three
Encoding: 51 51 64
Width: 660
Flags: HMW
AnchorPoint: "aboveright" 288.5 502.336 basechar 0
LayerCount: 3
Back
SplineSet
552.303 641.286 m 5
 393.369 424.093 l 5
 555 397.6 601.803 299.197 601.803 209.608 c 4
 601.803 137.205 566 86.5996 516.418 48.4746 c 4
 457.597 3.24512 386.629 -14 289.122 -14 c 4
 286.735 -14 l 4
 211.91 -14 144.228 -1.20996 80.8223 22.7334 c 4
 59 30.9736 l 5
 97.3154 133.812 l 5
 120.03 127.965 l 4
 187.963 110.85 253.735 103.016 302.245 103.016 c 4
 350.741 103.016 394 115.6 418.949 130.903 c 4
 455.637 153.407 471.01 183.6 471.01 201.604 c 4
 471.01 237.544 464.729 271.889 399 300.6 c 4
 365.531 315.219 327.354 321.753 249.751 321.753 c 4
 219.925 321.753 l 5
 219.925 380.606 l 5
 367.394 581 l 5
 67.3027 581 l 5
 67.3027 694 l 5
 552.303 694 l 5
 552.303 641.286 l 5
85 650 m 6xf0
 131 673 214 702 309 702 c 4
 459 702 560 629 560 527 c 4xf0
 560 466 531 417 483 385 c 5
 560 351 590 293 590 226 c 4
 590 81 466 -12 275 -12 c 4
 208 -12 143 2 77 29 c 6
 59 37 l 5
 95 140 l 5
 113 133 l 6
 198 111 217 105 276 105 c 4
 378 105 465 145 465 211 c 4xe8
 465 254 426 318 232 318 c 6
 209 318 l 5
 209 429 l 5
 232 429 l 6
 391 429 430 479 430 514 c 4
 430 556 378 587 297 587 c 4
 262 587 203 581 130 549 c 6
 111 540 l 5
 69 642 l 5
 85 650 l 6xf0
EndSplineSet
Fore
SplineSet
109 654 m 2
 155 677 209 706 304 706 c 3
 454 706 535 622 535 524 c 3
 535 463 513 411 438 365 c 1
 516 339 575 284 575 198 c 3
 575 84 495 -10 304 -10 c 3
 237 -10 167 4 101 31 c 1
 83 39 l 1
 119 141 l 1
 137 134 l 1
 207 112 245 103 304 103 c 3
 406 103 455 137 455 198 c 3
 455 241 420 307 256 307 c 2
 233 307 l 1
 233 420 l 1
 256 420 l 2
 407 420 418 489 418 524 c 3
 418 566 385 593 304 593 c 3
 269 593 227 588 154 556 c 1
 135 547 l 1
 93 646 l 1
 109 654 l 2
EndSplineSet
Validated: 1
EndChar
StartChar: four
Encoding: 52 52 67
Width: 640
Flags: HMW
LayerCount: 3
Back
SplineSet
337 694 m 5xe8
 503 694 l 5xe8
 503 261 l 5xf0
 624 261 l 5
 624 148 l 5
 503 148 l 5
 503 0 l 5
 383 0 l 5
 383 148 l 5
 27 148 l 5
 27 225 l 5
 337 694 l 5xe8
368 261 m 5xf0
 368 542 l 5
 180.999023438 261 l 5
 368 261 l 5xf0
EndSplineSet
Fore
SplineSet
322 692 m 1
 488 692 l 1
 488 261 l 1
 609 261 l 1
 609 148 l 1
 488 148 l 1
 488 0 l 1
 365 0 l 1
 365 148 l 1
 32 148 l 1
 32 238 l 1
 322 692 l 1
365 261 m 1
 365 528 l 1
 365 558 l 1
 351 528 l 1
 179 261 l 1
 365 261 l 1
EndSplineSet
EndChar
StartChar: five
Encoding: 53 53 62
Width: 660
Flags: HMW
LayerCount: 3
Back
SplineSet
95 694 m 5xbc
 574 694 l 5
 574 581 l 5
 218.999 581 l 5
 218.999 454 l 5
 243.999 456 276 458 309 458 c 4
 559 458 616 321 616 231 c 4
 616 135 554 -10 275 -10 c 4xbc
 200.999 -10 136.999 -3 80 8 c 6
 60 12 l 5
 84 125 l 5x7c
 103.999 121 l 5
 147.999 112 206.999 105 268 105 c 4
 449 105 488 177 488 224 c 4
 488 269 446 343 278 343 c 4
 244.999 343 192.999 341 116.999 332 c 5
 95 329 l 5
 95 694 l 5xbc
EndSplineSet
Fore
SplineSet
108 692 m 1
 537 692 l 1
 537 579 l 1
 228 579 l 1
 228 434 l 1
 253 436 285 438 318 438 c 3
 528 438 585 308 585 202 c 3
 585 122 535 -10 286 -10 c 3
 212 -10 152 3 75 29 c 1
 107 137 l 1
 171 117 224 103 286 103 c 3
 436 103 462 155 462 202 c 3
 462 247 428 324 290 324 c 3
 257 324 205 322 108 310 c 1
 108 692 l 1
EndSplineSet
Validated: 1
EndChar
StartChar: six
Encoding: 54 54 60
Width: 646
Flags: HW
LayerCount: 3
Back
SplineSet
519 590 m 21
 328 590 237 513 213 438 c 5
 254 461 305 475 363 475 c 4
 518 475 617 380 617 245 c 4
 617 106 512 -12 336 -12 c 4
 222 -12 70 36 70 285 c 4
 70 608 283 703 508 703 c 13
 519 590 l 21
341 367 m 4
 258 367 191 316 191 242 c 4
 191 170 257 96 347 96 c 4
 429 96 497 160 497 236 c 4
 497 317 422 367 341 367 c 4
EndSplineSet
Fore
SplineSet
493 706 m 1
 503 593 l 1
 330 593 211 532 191 412 c 1
 191 412 231 447 330 447 c 3
 478 447 586 362 586 226 c 3
 586 92 490 -10 330 -10 c 3
 129 -10 60 144 60 308 c 3
 60 564 218 706 493 706 c 1
183 281 m 1
 186 168 237 103 330 103 c 3
 420 103 463 142 463 225 c 3
 463 305 406 334 330 334 c 3
 238 334 183 281 183 281 c 1
EndSplineSet
Validated: 1
EndChar
StartChar: seven
Encoding: 55 55 61
Width: 640
Flags: HMW
LayerCount: 3
Back
SplineSet
31 694 m 5
 618 694 l 5
 618 621 l 5
 246 0 l 5
 105 0 l 5
 458 576 l 5
 31 576 l 5
 31 694 l 5
EndSplineSet
Fore
SplineSet
68 692 m 1
 575 692 l 1
 575 619 l 1
 303 0 l 1
 172 0 l 1
 425 579 l 1
 68 579 l 1
 68 692 l 1
EndSplineSet
EndChar
StartChar: eight
Encoding: 56 56 58
Width: 640
Flags: HMW
LayerCount: 2
Fore
SplineSet
315 706 m 259
 429 706 522 644 522 536 c 3
 522 453 479 415 425 378 c 1
 499 339 558 292 558 197 c 3
 558 64 457 -10 318 -10 c 3
 183 -10 81 62 81 189 c 3
 81 287 131 332 197 376 c 1
 148 416 107 454 107 536 c 3
 107 642 203 706 315 706 c 259
315 593 m 259
 273 593 230 569 230 527 c 3
 230 476 274 449 315 427 c 1
 357 448 399 471 399 525 c 3
 399 569 359 593 315 593 c 259
318 103 m 3
 384 103 435 138 435 202 c 3
 435 270 372 294 315 314 c 1
 260 300 204 260 204 197 c 3
 204 135 253 103 318 103 c 3
EndSplineSet
Validated: 1
EndChar
StartChar: nine
Encoding: 57 57 59
Width: 660
Flags: HMW
LayerCount: 3
Back
SplineSet
158 101 m 21
 349 101 440 183 464 258 c 5
 423 235 372 221 314 221 c 4
 159 221 60 318 60 453 c 4
 60 592 165 703 341 703 c 4
 455 703 607 660 607 411 c 4
 607 88 394 -12 169 -12 c 13
 158 101 l 21
336 329 m 4
 419 329 486 382 486 456 c 4
 486 528 420 595 330 595 c 4
 248 595 180 538 180 462 c 4
 180 381 255 329 336 329 c 4
EndSplineSet
Fore
SplineSet
154 -10 m 1
 154 98 l 1
 303 98 432 145 460 273 c 1
 413 253 366 243 319 243 c 3
 198 243 80 321 80 478 c 3
 80 607 177 706 319 706 c 3
 529 706 585 546 585 381 c 3
 585 123 407 -10 154 -10 c 1
335 593 m 3
 250 593 195 547 195 478 c 3
 195 386 262 351 335 351 c 3
 385 351 437 363 471 389 c 1
 472 396 472 404 472 412 c 3
 472 481 445 593 335 593 c 3
EndSplineSet
Validated: 1
EndChar
StartChar: colon
Encoding: 58 58 81
Width: 284
Flags: HMW
LayerCount: 3
Fore
SplineSet
137 338 m 259
 96 338 60 374 60 415 c 259
 60 456 96 492 137 492 c 259
 178 492 214 456 214 415 c 259
 214 374 178 338 137 338 c 259
137 -10 m 259
 96 -10 60 26 60 67 c 259
 60 108 96 144 137 144 c 259
 178 144 214 108 214 67 c 259
 214 26 178 -10 137 -10 c 259
EndSplineSet
EndChar
StartChar: semicolon
Encoding: 59 59 80
Width: 284
Flags: HMW
LayerCount: 3
Fore
SplineSet
137 144 m 3
 189 144 214 101 214 45 c 3
 214 11 204 -20 183 -50 c 128
 162 -80 134 -113 98 -149 c 1
 54 -121 l 1
 115 -7 l 1
 85 1 60 30 60 67 c 3
 60 111 93 144 137 144 c 3
137 338 m 259
 96 338 60 374 60 415 c 259
 60 456 96 492 137 492 c 259
 178 492 214 456 214 415 c 259
 214 374 178 338 137 338 c 259
EndSplineSet
EndChar
StartChar: less
Encoding: 60 60 92
Width: 506
VWidth: 1023
Flags: MW
LayerCount: 3
Fore
SplineSet
487 583 m 1
 487 463 l 1
 171 304 l 1
 487 152 l 1
 487 27 l 1
 21 248 l 1
 21 354 l 1
 487 583 l 1
EndSplineSet
Validated: 1
EndChar
StartChar: equal
Encoding: 61 61 82
Width: 634
VWidth: 1023
Flags: MW
LayerCount: 3
Fore
SplineSet
63 265 m 1
 572 265 l 1
 572 151 l 1
 63 151 l 5
 63 265 l 1
63 486 m 1
 572 486 l 1
 572 373 l 1
 63 373 l 1
 63 486 l 1
EndSplineSet
Validated: 1
EndChar
StartChar: greater
Encoding: 62 62 93
Width: 506
VWidth: 1023
Flags: MW
LayerCount: 3
Fore
SplineSet
21 583 m 1
 487 354 l 1
 487 248 l 1
 21 27 l 1
 21 152 l 1
 337 304 l 1
 21 463 l 1
 21 583 l 1
EndSplineSet
Validated: 1
EndChar
StartChar: question
Encoding: 63 63 57
Width: 560
VWidth: 1023
Flags: HMW
LayerCount: 3
Fore
SplineSet
153 141 m 1
 293 141 l 1
 293 1 l 1
 153 1 l 1
 153 141 l 1
474 513 m 3
 474 297 288 414 288 224 c 1
 165 224 l 1
 165 454 353 392 353 513 c 3
 353 547 340 596 226 596 c 3
 177 596 123 580 89 567 c 1
 49 662 l 1
 103 690 163 706 226 706 c 3
 372 706 474 638 474 513 c 3
EndSplineSet
Validated: 1
EndChar
StartChar: at
Encoding: 64 64 56
Width: 992
VWidth: 1023
Flags: HMW
LayerCount: 3
Fore
SplineSet
599 457 m 1
 607 481 l 1
 692 481 l 1
 692 128 l 2
 692 70 708 50 745 50 c 3
 771 50 837 67 837 246 c 3
 837 428 783 604 528 604 c 3
 248 604 154 419 154 240 c 3
 154 -0 276 -119 459 -119 c 3
 580 -119 627 -98 627 -98 c 1
 627 -194 l 1
 627 -194 545 -214 445 -214 c 3
 265 -214 45 -127 45 240 c 3
 45 410 127 706 514 706 c 7
 872 706 949 451 949 246 c 3
 949 -34 795 -42 723 -42 c 3
 668 -42 623 -25 600 19 c 1
 560 -1 519 -10 484 -10 c 3
 360 -10 266 91 266 238 c 3
 266 387 358 492 496 492 c 3
 536 492 578 482 599 457 c 1
506 397 m 0
 430 397 375 336 375 238 c 3
 375 138 433 88 508 88 c 0
 530 88 555 93 581 105 c 1
 581 369 l 1
 570 390 534 397 506 397 c 0
EndSplineSet
Validated: 1
EndChar
StartChar: A
Encoding: 65 65 32
Width: 675
Flags: MW
AnchorPoint: "ogonek" 594 0 basechar 0
AnchorPoint: "below" 338 0 basechar 0
AnchorPoint: "above" 336 691 basechar 0
AnchorPoint: "cedilla" 340 0 basechar 0
LayerCount: 2
Fore
SplineSet
17 0 m 1
 277 692 l 1
 402 692 l 1
 663 0 l 1
 540 0 l 1
 472 184 l 1
 207 184 l 1
 141 0 l 1
 17 0 l 1
247 296 m 1
 430 296 l 1
 337 558 l 1
 247 296 l 1
EndSplineSet
Validated: 1
EndChar
StartChar: B
Encoding: 66 66 50
Width: 649
Flags: HMW
AnchorPoint: "below" 296 0 basechar 0
AnchorPoint: "above" 281 692 basechar 0
AnchorPoint: "cedilla" 298 0 basechar 0
LayerCount: 3
Back
SplineSet
305 584 m 6xf8
 203 584 l 5
 203 414 l 5
 305 416 433 400 433 503 c 4
 433 538 417 584 305 584 c 6xf8
312 310 m 4
 203 310 l 5
 203 113 l 5
 301 113 l 6
 360 113 496 115 496 212 c 4xf4
 496 279 424 310 312 310 c 4
80 694 m 5
 330 694 l 6
 532 694 569 576 569 517 c 4xf8
 569 471 541 422 506 392 c 5
 579 362 619 294 619 218 c 4
 619 152 575 0 313 0 c 6
 80 0 l 5
 80 694 l 5
EndSplineSet
Fore
SplineSet
288 579 m 2
 203 579 l 1
 203 422 l 1
 288 422 l 1
 388 422 434 442 434 502 c 3
 434 562 388 579 288 579 c 2
288 309 m 1
 203 309 l 1
 203 109 l 1
 288 109 l 2
 408 109 486 123 486 213 c 3
 486 303 408 309 288 309 c 1
80 692 m 1
 315 692 l 2
 495 692 557 581 557 518 c 3
 557 456 527 412 463 373 c 1
 561 355 609 266 609 197 c 3
 609 118 557 0 297 0 c 2
 80 0 l 1
 80 692 l 1
EndSplineSet
Validated: 1
EndChar
StartChar: C
Encoding: 67 67 54
Width: 682
Flags: HMW
AnchorPoint: "below" 351 0 basechar 0
AnchorPoint: "above" 359 693 basechar 0
AnchorPoint: "cedilla" 356 0 basechar 0
LayerCount: 3
Back
SplineSet
607 671 m 1
 584 601 l 1
 534 621 451 632 381 632 c 3
 222 632 138 486 138 346 c 3
 138 206 221 64 381 64 c 3
 451 64 545 82 595 102 c 1
 616 35 l 1
 546 10 471 -10 381 -10 c 3
 181 -10 55 146 55 346 c 3
 55 546 181 706 381 706 c 3
 471 706 537 696 607 671 c 1
EndSplineSet
Fore
SplineSet
387 706 m 3
 447 706 562 690 632 660 c 1
 592 562 l 1
 522 587 437 597 387 597 c 3
 247 597 176 467 176 347 c 3
 176 227 252 103 392 103 c 3
 442 103 548 121 602 142 c 1
 642 43 l 1
 566 14 452 -10 392 -10 c 3
 192 -10 50 146 50 346 c 3
 50 546 187 706 387 706 c 3
EndSplineSet
Validated: 1
EndChar
StartChar: D
Encoding: 68 68 48
Width: 734
Flags: HMW
AnchorPoint: "below" 344 0 basechar 0
AnchorPoint: "above" 324 692 basechar 0
AnchorPoint: "cedilla" 352 0 basechar 0
LayerCount: 2
Fore
SplineSet
690 371 m 3
 690 180 597 59 437 14 c 0
 375 1 333 0 254 0 c 2
 80 0 l 1
 80 692 l 1
 316 692 l 2
 544 692 690 583 690 371 c 3
319 579 m 2
 203 579 l 1
 203 113 l 1
 286 113 l 2
 460 113 567 176 567 354 c 3
 567 504 478 579 319 579 c 2
EndSplineSet
Validated: 1
EndChar
StartChar: E
Encoding: 69 69 34
Width: 587
Flags: MW
AnchorPoint: "ogonek" 481 0 basechar 0
AnchorPoint: "below" 312 0 basechar 0
AnchorPoint: "above" 308 692 basechar 0
AnchorPoint: "cedilla" 314 0 basechar 0
LayerCount: 2
Back
SplineSet
85 0 m 1
 85 694 l 1
 491 694 l 1
 491 620 l 1
 168 620 l 1
 168 406 l 1
 464 406 l 1
 464 332 l 1
 168 332 l 1
 168 74 l 1
 491 74 l 1
 491 0 l 1
 85 0 l 1
EndSplineSet
Fore
SplineSet
80 0 m 1
 80 692 l 1
 532 692 l 1
 532 579 l 1
 203 579 l 1
 203 422 l 1
 496 422 l 1
 496 309 l 1
 203 309 l 1
 203 113 l 1
 532 113 l 1
 532 0 l 1
 80 0 l 1
EndSplineSet
Validated: 1
EndChar
StartChar: F
Encoding: 70 70 35
Width: 548
Flags: HMW
AnchorPoint: "below" 288 0 basechar 0
AnchorPoint: "above" 293 692 basechar 0
AnchorPoint: "cedilla" 132 0 basechar 0
LayerCount: 2
Back
SplineSet
158 621 m 1
 158 394 l 1
 447 394 l 1
 447 321 l 1
 158 321 l 1
 158 0 l 1
 75 0 l 1
 75 694 l 1
 476 694 l 1
 476 621 l 1
 158 621 l 1
EndSplineSet
Fore
SplineSet
193 579 m 1
 193 376 l 1
 478 376 l 1
 478 263 l 1
 193 263 l 1
 193 0 l 1
 70 0 l 1
 70 692 l 1
 518 692 l 1
 518 579 l 1
 193 579 l 1
EndSplineSet
Validated: 1
EndChar
StartChar: G
Encoding: 71 71 28
Width: 726
Flags: HMW
AnchorPoint: "above" 360 692 basechar 0
LayerCount: 3
Back
SplineSet
685.6 101 m 5
 659.6 73 580.6 -10 413.399 -10 c 4
 164 -10 50 175 50 346 c 4
 50 528 178.5 699 411.6 699 c 4
 504.3 699 584.6 671 643.6 638 c 5
 660.6 628 l 5
 609.6 531 l 5
 591.6 541 l 5
 553.8 561 486.3 586 416.1 586 c 4
 292.8 586 174 499 174 351 c 4
 174 207 282.899 104 432.3 104 c 4
 490.8 104 534 121 564.6 145 c 5
 564.6 278 l 5
 369.3 278 l 5
 369.3 386 l 5
 685.6 386 l 5
 685.6 101 l 5
EndSplineSet
Fore
SplineSet
671 71 m 1
 645 52 592 -10 392 -10 c 3
 192 -10 50 150 50 350 c 3
 50 550 192 706 392 706 c 3
 452 706 562 690 632 660 c 1
 592 562 l 1
 522 587 442 593 392 593 c 3
 252 593 173 470 173 350 c 3
 173 230 252 103 392 103 c 3
 450 103 519 113 550 130 c 1
 550 273 l 1
 369 273 l 1
 369 386 l 1
 671 386 l 1
 671 71 l 1
EndSplineSet
Validated: 1
EndChar
StartChar: H
Encoding: 72 72 29
Width: 740
Flags: HMW
AnchorPoint: "below" 370 0 basechar 0
AnchorPoint: "above" 367 692 basechar 0
AnchorPoint: "cedilla" 370 0 basechar 0
LayerCount: 3
Back
SplineSet
553 694 m 1
 636 694 l 1
 636 0 l 1
 553 0 l 1
 553 332 l 1
 168 332 l 1
 168 0 l 1
 85 0 l 1
 85 694 l 1
 168 694 l 1
 168 406 l 1
 553 406 l 1
 553 694 l 1
EndSplineSet
Fore
SplineSet
537 692 m 1
 660 692 l 1
 660 0 l 1
 537 0 l 1
 537 309 l 1
 203 309 l 1
 203 0 l 1
 80 0 l 1
 80 692 l 1
 203 692 l 1
 203 422 l 1
 537 422 l 1
 537 692 l 1
EndSplineSet
Validated: 1
EndChar
StartChar: I
Encoding: 73 73 40
Width: 283
Flags: MW
AnchorPoint: "ogonek" 150 0 basechar 0
AnchorPoint: "below" 142 0 basechar 0
AnchorPoint: "above" 142 692 basechar 0
AnchorPoint: "cedilla" 142 0 basechar 0
LayerCount: 3
Back
SplineSet
80 694 m 5
 203 694 l 5
 203 0 l 5
 80 0 l 5
 80 694 l 5
EndSplineSet
Fore
SplineSet
80 692 m 1
 203 692 l 1
 203 0 l 1
 80 0 l 1
 80 692 l 1
EndSplineSet
Validated: 1
EndChar
StartChar: J
Encoding: 74 74 46
Width: 477
Flags: HMW
AnchorPoint: "below" 222 0 basechar 0
AnchorPoint: "above" 343 692 basechar 0
AnchorPoint: "cedilla" 162 0 basechar 0
LayerCount: 3
Back
SplineSet
241 694 m 1
 324 694 l 1
 324 208 l 2
 324 64 251 -10 110 -10 c 3
 79 -10 48 -5 15 3 c 1
 28 73 l 1
 53 67 76 64 98 64 c 3
 192 64 241 110 241 204 c 2
 241 694 l 1
EndSplineSet
Fore
SplineSet
284 692 m 1
 407 692 l 1
 407 250 l 2
 407 141 379 -10 149 -10 c 3
 108 -10 61 -6 30 9 c 1
 50 117 l 1
 75 111 106 105 135 105 c 3
 278 105 284 207 284 250 c 2
 284 692 l 1
EndSplineSet
Validated: 1
EndChar
StartChar: K
Encoding: 75 75 43
Width: 647
Flags: HMW
AnchorPoint: "below" 320 0 basechar 0
AnchorPoint: "above" 319 693 basechar 0
AnchorPoint: "cedilla" 320 0 basechar 0
LayerCount: 2
Back
SplineSet
75 694 m 1
 158 694 l 1
 158 0 l 1
 75 0 l 1
 75 694 l 1
463 694 m 1
 567 694 l 1
 274 363 l 1
 586 0 l 1
 479 0 l 1
 169 356 l 1
 463 694 l 1
EndSplineSet
Fore
SplineSet
193 692 m 1
 193 0 l 1
 70 0 l 1
 70 692 l 1
 193 692 l 1
203 358 m 1
 477 692 l 1
 617 692 l 1
 345 358 l 1
 637 0 l 1
 491 0 l 1
 203 358 l 1
EndSplineSet
Validated: 1
EndChar
StartChar: L
Encoding: 76 76 33
Width: 556
Flags: MW
AnchorPoint: "below" 302 0 basechar 0
AnchorPoint: "above" 140 692 basechar 0
AnchorPoint: "cedilla" 290 0 basechar 0
AnchorPoint: "aboveright" 380 634 basechar 0
LayerCount: 2
Back
SplineSet
85 692 m 1
 168 692 l 1
 168 73 l 1
 479 73 l 1
 479 0 l 1
 85 0 l 1
 85 692 l 1
EndSplineSet
Fore
SplineSet
80 692 m 1
 203 692 l 1
 203 113 l 1
 531 113 l 1
 531 0 l 1
 80 0 l 1
 80 692 l 1
EndSplineSet
Validated: 1
EndChar
StartChar: M
Encoding: 77 77 44
Width: 860
Flags: MW
AnchorPoint: "cedilla" 430 0 basechar 0
AnchorPoint: "below" 430 0 basechar 0
AnchorPoint: "above" 430 668 basechar 0
LayerCount: 3
Back
SplineSet
80 694 m 5
 244 694 l 5
 431 325 l 5
 622 694 l 5
 780 694 l 5
 780 0 l 5
 657 0 l 5
 657 519 l 5
 481 199 l 5
 377 199 l 5
 203 519 l 5
 203 0 l 5
 80 0 l 5
 80 694 l 5
EndSplineSet
Fore
SplineSet
80 692 m 1
 244 692 l 1
 431 314 l 1
 622 692 l 1
 780 692 l 1
 780 0 l 1
 657 0 l 1
 657 523 l 1
 481 178 l 1
 377 178 l 1
 203 523 l 1
 203 0 l 1
 80 0 l 1
 80 692 l 1
EndSplineSet
Validated: 1
EndChar
StartChar: N
Encoding: 78 78 36
Width: 746
Flags: HMW
AnchorPoint: "below" 374 0 basechar 0
AnchorPoint: "above" 374 692 basechar 0
AnchorPoint: "cedilla" 374 0 basechar 0
LayerCount: 2
Back
SplineSet
75 694 m 1
 180 694 l 1
 558 113 l 1
 558 694 l 1
 641 694 l 1
 641 0 l 1
 536 0 l 1
 158 582 l 1
 158 0 l 1
 75 0 l 1
 75 694 l 1
EndSplineSet
Fore
SplineSet
70 692 m 1
 218 692 l 1
 553 179 l 1
 553 692 l 1
 676 692 l 1
 676 0 l 1
 526 0 l 1
 193 516 l 1
 193 0 l 1
 70 0 l 1
 70 692 l 1
EndSplineSet
Validated: 1
EndChar
StartChar: O
Encoding: 79 79 31
Width: 784
Flags: HMW
AnchorPoint: "horn" 558 634 basechar 0
AnchorPoint: "below" 384 -3 basechar 0
AnchorPoint: "above" 388 693 basechar 0
AnchorPoint: "cedilla" 392 -3 basechar 0
LayerCount: 2
Fore
SplineSet
392 706 m 259
 598 706 736 563 736 355 c 259
 736 143 598 -10 388 -10 c 3
 184 -10 48 138 48 348 c 3
 48 557 186 706 392 706 c 259
387 591 m 3
 253 591 175 496 175 356 c 3
 175 214 258 107 396 107 c 3
 532 107 609 206 609 348 c 3
 609 491 524 591 387 591 c 3
EndSplineSet
Validated: 1
EndChar
StartChar: P
Encoding: 80 80 49
Width: 616
Flags: HMW
AnchorPoint: "below" 290 0 basechar 0
AnchorPoint: "above" 282 692 basechar 0
AnchorPoint: "cedilla" 131 0 basechar 0
LayerCount: 2
Fore
SplineSet
250 269 m 2
 193 269 l 1
 193 0 l 1
 70 0 l 1
 70 692 l 1
 299 692 l 2
 490 692 586 624 586 487 c 3
 586 306 435 269 250 269 c 2
460 482 m 3
 460 567 378 579 286 579 c 2
 193 579 l 1
 193 382 l 1
 255 382 l 1
 363 382 460 389 460 482 c 3
EndSplineSet
Validated: 1
EndChar
StartChar: Q
Encoding: 81 81 52
Width: 782
Flags: HMW
AnchorPoint: "cedilla" 392 -3 basechar 0
AnchorPoint: "above" 387 692 basechar 0
AnchorPoint: "below" 392 -3 basechar 0
LayerCount: 3
Back
SplineSet
393 701 m 4
 593 701 734 561 734 346 c 4
 734 254 710 179 668 121 c 5
 757 37 l 5
 686 -36 l 5
 590 53 l 5
 528 8 457 -7 394 -7 c 4
 207 -7 50 121 50 344 c 4
 50 563 200 701 393 701 c 4
386 588 m 4
 288 588 176 520 176 353 c 4
 176 190 282 105 403 105 c 4
 449 105 485 118 507 131 c 5
 360 263 l 5
 438 338 l 5
 579 206 l 5
 597 240 606 282 606 335 c 4
 606 537 474 588 386 588 c 4
EndSplineSet
Fore
SplineSet
757 37 m 1
 686 -36 l 1
 589 53 l 1
 533 14 468 -10 392 -10 c 3
 192 -10 50 150 50 350 c 3
 50 550 192 706 392 706 c 3
 592 706 734 550 734 350 c 3
 734 260 708 185 663 125 c 1
 757 37 l 1
392 593 m 3
 252 593 173 470 173 350 c 3
 173 230 252 103 392 103 c 3
 427 103 468 114 501 133 c 1
 365 259 l 1
 439 338 l 1
 575 208 l 1
 595 244 611 293 611 350 c 3
 611 470 532 593 392 593 c 3
EndSplineSet
Validated: 1
EndChar
StartChar: R
Encoding: 82 82 47
Width: 641
Flags: HMW
AnchorPoint: "cedilla" 141 0 basechar 0
AnchorPoint: "above" 305 692 basechar 0
AnchorPoint: "below" 310 0 basechar 0
LayerCount: 3
Back
SplineSet
487 0 m 1
 300 288 l 1
 168 288 l 1
 168 0 l 1
 85 0 l 1
 85 694 l 1
 303 694 l 2
 463 694 545 610 545 490 c 3
 545 400 481 324 386 298 c 1
 583 0 l 1
 487 0 l 1
257 362 m 3
 367 362 461 370 461 490 c 3
 461 600 378 619 258 619 c 2
 168 619 l 1
 168 362 l 1
 257 362 l 3
EndSplineSet
Fore
SplineSet
80 692 m 1
 325 692 l 2
 415 692 591 678 591 487 c 3
 591 370 520 317 436 290 c 1
 611 0 l 1
 471 0 l 1
 313 270 l 1
 203 270 l 1
 203 0 l 1
 80 0 l 1
 80 692 l 1
203 579 m 1
 203 383 l 1
 280 383 l 2
 380 383 465 394 465 487 c 3
 465 572 390 579 300 579 c 2
 203 579 l 1
EndSplineSet
Validated: 1
EndChar
StartChar: S
Encoding: 83 83 55
Width: 628
Flags: HMW
AnchorPoint: "cedilla" 295 0 basechar 0
AnchorPoint: "below" 295 0 basechar 0
AnchorPoint: "above" 311 694 basechar 0
LayerCount: 3
Back
SplineSet
260 64 m 3
 342 64 446 118 446 188 c 3
 446 252 355 284 262 324 c 0
 165 365 67 415 67 517 c 3
 67 637 174 706 314 706 c 3
 398 706 453 682 493 662 c 1
 463 597 l 1
 413 617 363 632 314 632 c 3
 215 632 150 587 150 517 c 3
 150 460 224 428 306 393 c 0
 410 349 529 300 529 188 c 3
 529 68 400 -10 260 -10 c 3
 171 -10 121 10 50 37 c 1
 78 105 l 1
 159 75 212 64 260 64 c 3
EndSplineSet
Fore
SplineSet
339 590 m 3
 255 590 205 552 205 502 c 3
 205 449 279 429 361 402 c 0
 463 369 578 325 578 192 c 3
 578 96 509 -10 295 -10 c 3
 207 -10 135 13 68 39 c 1
 50 45 l 1
 92 158 l 1
 111 150 l 1
 201 117 257 106 295 106 c 3
 385 106 451 142 451 192 c 3
 451 244 392 266 321 287 c 0
 213 321 78 355 78 502 c 3
 78 615 180 706 339 706 c 3
 449 706 515 678 543 669 c 1
 555 664 l 1
 516 552 l 1
 460 574 402 590 339 590 c 3
EndSplineSet
Validated: 1
EndChar
StartChar: T
Encoding: 84 84 39
GlifName: T_
Width: 591
Flags: HMW
AnchorPoint: "below" 296 0 basechar 0
AnchorPoint: "above" 294 692 basechar 0
AnchorPoint: "cedilla" 296 0 basechar 0
LayerCount: 2
Back
SplineSet
-64 692 m 1
 482 692 l 1
 482 619 l 1
 250 619 l 1
 250 0 l 1
 222 0 195 0 167 0 c 1
 167 619 l 1
 -64 619 l 1
 -64 692 l 1
EndSplineSet
Fore
SplineSet
6 692 m 1
 585 692 l 1
 585 579 l 1
 357 579 l 1
 357 0 l 1
 234 0 l 1
 234 579 l 1
 6 579 l 1
 6 692 l 1
EndSplineSet
Validated: 1
EndChar
StartChar: U
Encoding: 85 85 51
Width: 712
Flags: HMW
AnchorPoint: "horn" 606 633 basechar 0
AnchorPoint: "ogonek" 542 0 basechar 0
AnchorPoint: "below" 364 0 basechar 0
AnchorPoint: "above" 358 692 basechar 0
AnchorPoint: "cedilla" 364 0 basechar 0
LayerCount: 3
Back
SplineSet
341 -10 m 3
 141 -10 77 82 77 265 c 2
 77 694 l 1
 160 694 l 1
 160 244 l 2
 160 124 219 64 341 64 c 3
 463 64 522 124 522 244 c 2
 522 694 l 1
 605 694 l 1
 605 265 l 2
 605 82 541 -10 341 -10 c 3
EndSplineSet
Fore
SplineSet
356 -10 m 3
 86 -10 72 166 72 250 c 2
 72 692 l 1
 195 692 l 1
 195 256 l 2
 195 153 256 104 356 104 c 3
 456 104 517 153 517 256 c 2
 517 692 l 1
 640 692 l 1
 640 250 l 2
 640 166 626 -10 356 -10 c 3
EndSplineSet
EndChar
StartChar: V
Encoding: 86 86 37
GlifName: V_
Width: 651
Flags: HMW
AnchorPoint: "below" 324 0 basechar 0
AnchorPoint: "above" 326 692 basechar 0
AnchorPoint: "cedilla" 324 0 basechar 0
LayerCount: 2
Back
SplineSet
6 694 m 1
 105 694 l 1
 303 88 l 1
 501 694 l 1
 593 694 l 1
 351 0 l 1
 248 0 l 1
 6 694 l 1
EndSplineSet
Fore
SplineSet
6 692 m 1
 145 692 l 1
 337 132 l 1
 512 692 l 1
 645 692 l 1
 405 0 l 1
 259 0 l 1
 6 692 l 1
EndSplineSet
Validated: 1
EndChar
StartChar: W
Encoding: 87 87 53
GlifName: W_
Width: 1030
Flags: HMW
AnchorPoint: "below" 500 0 basechar 0
AnchorPoint: "above" 510 692 basechar 0
AnchorPoint: "cedilla" 532 0 basechar 0
LayerCount: 2
Back
SplineSet
4 694 m 1
 93 694 l 1
 268 111 l 1
 443 694 l 1
 527 694 l 1
 707 111 l 1
 877 694 l 1
 959 694 l 1
 751 0 l 1
 663 0 l 1
 480 580 l 1
 310 0 l 1
 222 0 l 1
 4 694 l 1
EndSplineSet
Fore
SplineSet
6 692 m 1
 136 692 l 1
 276 161 l 1
 443 692 l 1
 584 692 l 1
 719 161 l 1
 894 692 l 1
 1024 692 l 1
 778 0 l 1
 650 0 l 1
 509 531 l 1
 343 0 l 1
 215 0 l 1
 6 692 l 1
EndSplineSet
Validated: 1
EndChar
StartChar: X
Encoding: 88 88 41
GlifName: X_
Width: 644
Flags: HMW
AnchorPoint: "below" 322 0 basechar 0
AnchorPoint: "above" 323 692 basechar 0
AnchorPoint: "cedilla" 333 0 basechar 0
LayerCount: 2
Back
SplineSet
473 694 m 1
 568 694 l 1
 349 364 l 1
 595 0 l 1
 488 0 l 1
 293 292 l 1
 98 0 l 1
 -4 0 l 1
 246 362 l 1
 25 694 l 1
 126 694 l 1
 302 433 l 1
 473 694 l 1
EndSplineSet
Fore
SplineSet
322 463 m 1
 479 692 l 1
 618 692 l 1
 392 361 l 1
 638 0 l 1
 497 0 l 1
 322 258 l 1
 147 0 l 1
 6 0 l 1
 252 361 l 1
 26 692 l 1
 165 692 l 1
 322 463 l 1
EndSplineSet
Validated: 1
EndChar
StartChar: Y
Encoding: 89 89 42
Width: 641
Flags: MW
AnchorPoint: "below" 314 0 basechar 0
AnchorPoint: "above" 321 692 basechar 0
AnchorPoint: "cedilla" 322 0 basechar 0
LayerCount: 3
Back
SplineSet
10 694 m 5
 152 694 l 5
 327 425 l 5
 504 694 l 5
 643 694 l 5
 391 324 l 5
 391 0 l 5
 253 0 l 5
 253 324 l 5
 10 694 l 5
EndSplineSet
Fore
SplineSet
7 692 m 1
 145 692 l 1
 320 425 l 1
 497 692 l 1
 636 692 l 1
 377 314 l 1
 377 0 l 1
 254 0 l 1
 254 314 l 1
 7 692 l 1
EndSplineSet
Validated: 1
EndChar
StartChar: Z
Encoding: 90 90 38
GlifName: Z_
Width: 628
Flags: HMW
AnchorPoint: "below" 312 0 basechar 0
AnchorPoint: "above" 315 692 basechar 0
AnchorPoint: "cedilla" 322 0 basechar 0
LayerCount: 2
Back
SplineSet
54 694 m 1
 545 694 l 1
 545 641 l 1
 145 73 l 1
 548 73 l 1
 548 0 l 1
 40 0 l 1
 40 54 l 1
 439 621 l 1
 54 621 l 1
 54 694 l 1
EndSplineSet
Fore
SplineSet
69 692 m 1
 580 692 l 1
 580 617 l 1
 220 113 l 1
 583 113 l 1
 583 0 l 1
 45 0 l 1
 45 76 l 1
 396 579 l 1
 69 579 l 1
 69 692 l 1
EndSplineSet
Validated: 1
EndChar
StartChar: bracketleft
Encoding: 91 91 70
Width: 364
VWidth: 1023
Flags: MW
LayerCount: 3
Fore
SplineSet
80 730 m 1
 344 730 l 1
 344 617 l 1
 200 617 l 1
 200 -135 l 1
 344 -135 l 1
 344 -248 l 1
 80 -248 l 1
 80 730 l 1
EndSplineSet
Validated: 1
EndChar
StartChar: backslash
Encoding: 92 92 75
Width: 410
VWidth: 1023
Flags: MW
LayerCount: 3
Fore
SplineSet
10 686 m 1
 135 686 l 1
 391 -64 l 1
 265 -64 l 1
 10 686 l 1
EndSplineSet
Validated: 1
EndChar
StartChar: bracketright
Encoding: 93 93 71
Width: 364
VWidth: 1023
Flags: MW
LayerCount: 3
Fore
SplineSet
20 730 m 1
 284 730 l 1
 284 -248 l 1
 20 -248 l 1
 20 -135 l 1
 164 -135 l 1
 164 617 l 1
 20 617 l 1
 20 730 l 1
EndSplineSet
Validated: 1
EndChar
StartChar: asciicircum
Encoding: 94 94 90
Width: 465
VWidth: 1023
Flags: MW
LayerCount: 3
Fore
SplineSet
239 730 m 1
 392 560 l 1
 318 489 l 1
 233 584 l 1
 146 490 l 1
 73 555 l 1
 239 730 l 1
EndSplineSet
Validated: 1
EndChar
StartChar: underscore
Encoding: 95 95 85
Width: 606
VWidth: 1023
Flags: MW
LayerCount: 3
Fore
SplineSet
73 113 m 1
 533 113 l 1
 533 0 l 1
 73 0 l 1
 73 113 l 1
EndSplineSet
Validated: 1
EndChar
StartChar: a
Encoding: 97 97 0
GlifName: a
Width: 523
UnlinkRmOvrlpSave: 1
Flags: HMW
AnchorPoint: "ogonek" 406 0 basechar 0
AnchorPoint: "below" 262 0 basechar 0
AnchorPoint: "above" 250 481 basechar 0
AnchorPoint: "cedilla" 287 0 basechar 0
LayerCount: 2
Fore
SplineSet
353 34 m 1
 315 5 268 -10 211 -10 c 3
 115 -10 38 42 38 134 c 3
 38 281 192 295 340 295 c 1
 340 210 l 1
 266 210 161 210 161 143 c 3
 161 103 197 86 241 86 c 3
 285 86 314 98 340 114 c 1
 353 34 l 1
367 0 m 1
 340 59 l 1
 340 295 l 1
 340 380 314 401 223 401 c 3
 185 401 130 386 99 369 c 5
 75 461 l 1
 99 477 179 492 242 492 c 3
 392 492 463 436 463 297 c 2
 463 0 l 1
 367 0 l 1
EndSplineSet
Validated: 5
EndChar
StartChar: b
Encoding: 98 98 9
GlifName: b
Width: 579
UnlinkRmOvrlpSave: 1
Flags: HMW
AnchorPoint: "below" 275 0 basechar 0
AnchorPoint: "above" 120 718 basechar 0
AnchorPoint: "cedilla" 291 0 basechar 0
LayerCount: 2
Fore
SplineSet
188 121 m 5
 218 98 252 87 292 87 c 7
 374 87 418 142 418 236 c 7
 418 330 390 392 304 392 c 7
 260 392 213 375 189 365 c 5
 164 443 l 5
 211 472 266 492 334 492 c 7
 482 492 541 389 541 243 c 7
 541 97 456 -10 312 -10 c 7
 260 -10 209 6 157 38 c 5
 188 121 l 5
143 0 m 1
 66 0 l 1
 66 718 l 1
 189 718 l 1
 189 61 l 1
 143 0 l 1
EndSplineSet
Validated: 5
EndChar
StartChar: c
Encoding: 99 99 18
Width: 491
Flags: HMW
AnchorPoint: "below" 261 2 basechar 0
AnchorPoint: "above" 247 482 basechar 0
AnchorPoint: "cedilla" 265 2 basechar 0
LayerCount: 2
Fore
SplineSet
155 241 m 3
 155 151 211 87 305 87 c 3
 364 87 387 96 437 116 c 1
 471 37 l 1
 419 8 366 -10 285 -10 c 3
 133 -10 32 91 32 241 c 3
 32 395 130 492 285 492 c 3
 369 492 412 476 471 448 c 1
 437 368 l 1
 387 388 364 397 305 397 c 3
 207 397 155 335 155 241 c 3
EndSplineSet
Validated: 1
EndChar
StartChar: d
Encoding: 100 100 1
Width: 565
Flags: HMW
AnchorPoint: "below" 302 0 basechar 0
AnchorPoint: "above" 445 718 basechar 0
AnchorPoint: "cedilla" 286 0 basechar 0
AnchorPoint: "aboveright" 591 634 basechar 0
LayerCount: 2
Fore
SplineSet
37 243 m 3
 37 391 133 492 276 492 c 3
 323 492 361 486 391 472 c 1
 391 718 l 1
 513 718 l 1
 513 0 l 1
 425 0 l 1
 417 27 l 1
 374 3 330 -10 286 -10 c 3
 132 -10 37 89 37 243 c 3
307 85 m 3
 338 85 366 93 391 109 c 1
 391 381 l 1
 366 392 337 397 304 397 c 3
 208 397 160 343 160 236 c 3
 160 136 209 85 307 85 c 3
EndSplineSet
Validated: 1
EndChar
StartChar: e
Encoding: 101 101 2
Width: 562
VWidth: 1023
Flags: HMW
AnchorPoint: "ogonek" 395 3 basechar 0
AnchorPoint: "below" 268 0.0999985 basechar 0
AnchorPoint: "above" 263 481 basechar 0
AnchorPoint: "cedilla" 258 -0.900002 basechar 0
LayerCount: 3
Back
SplineSet
265 494 m 3
 392 494 463 409 463 270 c 2
 463 226 l 1
 458 218 l 1
 127 218 l 1
 129 104 187 58 311 58 c 3
 353 58 379 64 426 79 c 1
 444 17 l 1
 395 0 343 -10 289 -10 c 3
 132 -10 48 77 48 233 c 3
 48 375 125 494 265 494 c 3
381 281 m 1
 381 360 347 426 272 426 c 3
 179 426 138 358 129 281 c 1
 381 281 l 1
EndSplineSet
Fore
SplineSet
258 492 m 3
 409 492 483 403 483 254 c 2
 483 208 l 1
 156 208 l 1
 156 120 220 82 306 82 c 3
 359 82 419 92 440 97 c 1
 459 17 l 1
 415 0 354 -10 290 -10 c 0
 116 -10 35 94 35 240 c 3
 35 391 140 492 258 492 c 3
261 398 m 3
 212 398 158 370 158 292 c 1
 364 292 l 1
 364 370 319 398 261 398 c 3
EndSplineSet
Layer: 2
SplineSet
333.691 491.699 m 4
 502.344 491.699 562.012 347.168 562.012 245.605 c 6
 562.012 183.594 l 5
 191.895 183.594 l 5
 204.102 140.625 264.16 94.2383 375.977 94.2383 c 4
 420.41 94.2383 461.426 103.027 488.281 110.84 c 6
 508.301 116.699 l 5
 532.227 23.9258 l 5
 514.648 18.0664 l 6
 471.68 3.41797 412.598 -9.76562 340.82 -9.76562 c 4
 118.164 -9.76562 63.4766 114.746 63.4766 226.562 c 4
 63.4766 411.621 191.602 491.699 333.691 491.699 c 4
322.754 382.324 m 4
 243.652 382.324 200.684 335.938 192.871 284.18 c 5
 442.383 284.18 l 5
 437.012 358.398 386.719 382.324 322.754 382.324 c 4
EndSplineSet
EndChar
StartChar: f
Encoding: 102 102 27
GlifName: f
Width: 424
Flags: HMW
AnchorPoint: "below" 161 0 basechar 0
AnchorPoint: "above" 261 718 basechar 0
AnchorPoint: "cedilla" 159 -0 basechar 0
LayerCount: 2
Fore
SplineSet
100 535 m 3
 100 643 164 730 307 730 c 3
 329 730 390 727 429 705 c 1
 405 613 l 1
 383 625 358 633 316 633 c 3
 249 633 223 596 223 529 c 2
 223 481 l 1
 401 481 l 1
 401 385 l 1
 223 385 l 1
 223 0 l 1
 100 0 l 1
 100 385 l 1
 20 385 l 1
 20 481 l 1
 100 481 l 1
 100 535 l 3
EndSplineSet
Validated: 1
EndChar
StartChar: g
Encoding: 103 103 30
Width: 564
Flags: HMW
AnchorPoint: "below" 297 -261 basechar 0
AnchorPoint: "above" 282 482 basechar 0
AnchorPoint: "cedilla" 297 -261 basechar 0
LayerCount: 2
Fore
SplineSet
236 -168 m 3
 358 -168 390 -108 390 15 c 1
 355 -1 332 -10 286 -10 c 3
 132 -10 37 89 37 243 c 3
 37 392 126 492 269 492 c 3
 320 492 370 479 417 453 c 1
 428 482 l 1
 513 482 l 1
 513 -11 l 2
 513 -167 419 -264 249 -264 c 3
 191 -264 134 -254 80 -233 c 2
 61 -225 l 1
 94 -136 l 1
 114 -143 l 1
 161 -160 202 -168 236 -168 c 3
307 85 m 3
 338 85 365 93 390 109 c 1
 390 378 l 1
 363 390 335 396 304 396 c 3
 208 396 160 342 160 236 c 3
 160 136 209 85 307 85 c 3
EndSplineSet
Validated: 1
EndChar
StartChar: h
Encoding: 104 104 3
GlifName: h
Width: 577
Flags: HMW
AnchorPoint: "below" 295 0 basechar 0
AnchorPoint: "above" 130 718 basechar 0
AnchorPoint: "cedilla" 320 0 basechar 0
LayerCount: 2
Fore
SplineSet
306 390 m 3
 275 390 237 382 191 364 c 1
 191 0 l 1
 68 0 l 1
 68 718 l 1
 191 718 l 1
 191 460 l 1
 242 481 291 492 338 492 c 3
 478 492 515 408 515 277 c 2
 515 0 l 1
 392 0 l 1
 392 293 l 2
 392 355 371 390 306 390 c 3
EndSplineSet
Validated: 1
EndChar
StartChar: i
Encoding: 105 105 4
Width: 295
Flags: HMW
AnchorPoint: "below" 126 0 basechar 0
AnchorPoint: "above" 118 659.4 basechar 0
AnchorPoint: "cedilla" 126 0 basechar 0
LayerCount: 3
Back
SplineSet
58 694 m 5xf0
 192 694 l 5
 192 562 l 5
 58 562 l 5
 58 694 l 5xf0
65 482 m 5xe8
 185 482 l 5
 185 0 l 5
 65 0 l 5
 65 482 l 5xe8
EndSplineSet
Fore
Refer: 575 775 N 1 0 0 1 148 0 2
Refer: 140 305 N 1 0 0 1 0 0 3
Validated: 1
EndChar
StartChar: j
Encoding: 106 106 23
Width: 295
Flags: HMW
AnchorPoint: "below" 151 -259 basechar 0
AnchorPoint: "above" 121 654 basechar 0
AnchorPoint: "cedilla" 82 -230 basechar 0
LayerCount: 3
Back
SplineSet
84 694 m 5xe0
 219 694 l 5
 219 562 l 5
 84 562 l 5
 84 694 l 5xe0
92 482 m 5xd0
 212 482 l 5
 212 -47 l 6
 212 -109 207 -210 70 -260 c 5
 53 -266 l 5
 6 -171 l 5
 24 -162 l 6
 89 -131 92 -81 92 -55 c 6
 92 482 l 5xd0
EndSplineSet
Fore
Refer: 575 775 N 1 0 0 1 155 0 2
Refer: 323 567 N 1 0 0 1 0 0 3
Validated: 1
EndChar
StartChar: k
Encoding: 107 107 22
Width: 551
Flags: HMW
AnchorPoint: "below" 276 0 basechar 0
AnchorPoint: "above" 120 717 basechar 0
AnchorPoint: "cedilla" 440 0 basechar 0
LayerCount: 3
Back
SplineSet
75 718 m 1
 158 718 l 1
 158 0 l 1
 75 0 l 1
 75 718 l 1
379 482 m 1
 474 482 l 1
 264 267 l 1
 484 0 l 1
 384 0 l 1
 166 267 l 1
 379 482 l 1
EndSplineSet
Fore
SplineSet
180 718 m 1
 180 0 l 1
 60 0 l 1
 60 718 l 1
 180 718 l 1
376 481 m 1
 522 481 l 1
 336 266 l 1
 541 0 l 1
 394 0 l 1
 193 266 l 1
 376 481 l 1
EndSplineSet
Validated: 1
EndChar
StartChar: l
Encoding: 108 108 10
GlifName: l
Width: 289
Flags: HMWO
AnchorPoint: "below" 160 0 basechar 0
AnchorPoint: "aboveright" 298 634 basechar 0
AnchorPoint: "above" 127 718 basechar 0
LayerCount: 2
Fore
SplineSet
237 89 m 3
 252 89 265 92 265 92 c 1
 289 0 l 1
 289 0 256 -10 221 -10 c 3
 94 -10 68 77 68 165 c 2
 68 718 l 1
 191 718 l 1
 191 190 l 2
 191 128 198 89 237 89 c 3
EndSplineSet
EndChar
StartChar: m
Encoding: 109 109 17
Width: 839
Flags: HMW
AnchorPoint: "below" 423 0.333333 basechar 0
AnchorPoint: "above" 435 482 basechar 0
AnchorPoint: "cedilla" 423 0.166667 basechar 0
LayerCount: 3
Back
SplineSet
285 378 m 4xdc
 263 378 239 374 183 352 c 5
 183 0 l 5
 63 0 l 5
 63 482 l 5
 152 482 l 5xbc
 166 451 l 5
 202 469 259 492 320 492 c 4
 388 492 426 464 446 443 c 5
 490 466 554 491 626 491 c 4
 774 491 809 398 809 286 c 6
 809 0 l 5
 689 0 l 5
 689 285 l 6
 689 344 664 378 597 378 c 4
 563 378 525 366 491 352 c 5
 495 330 495 306 495 283 c 4
 495 189 495 94 495 0 c 5
 375 0 l 5
 375 287 l 6
 375 365 325 378 285 378 c 4xdc
EndSplineSet
Fore
SplineSet
144 481 m 1
 160 449 l 1
 188 461 251 491 317 491 c 3
 378 491 417 470 441 440 c 1
 473 455 547 491 619 491 c 3
 776 491 784 358 784 274 c 2
 784 0 l 1
 664 0 l 1
 664 295 l 2
 664 331 654 393 587 393 c 3
 556 393 525 384 475 363 c 1
 481 332 482 301 482 274 c 2
 482 0 l 1
 442 0 402 0 362 0 c 1
 362 295 l 2
 362 331 352 393 285 393 c 3
 263 393 233 388 180 366 c 1
 180 0 l 1
 60 0 l 1
 60 481 l 1
 144 481 l 1
EndSplineSet
Validated: 1
EndChar
StartChar: n
Encoding: 110 110 5
Width: 557
Flags: HMW
AnchorPoint: "below" 282 0 basechar 0
AnchorPoint: "above" 282 482 basechar 0
AnchorPoint: "cedilla" 282 0 basechar 0
LayerCount: 3
Back
SplineSet
63 482 m 5xb8
 147 482 l 5xb8
 163 449 l 5
 237 483 294 492 333 492 c 4
 489 492 512 383 512 285 c 6
 512 0 l 5
 391 0 l 5
 391 283 l 6
 391 317 387 380 297 380 c 4xd8
 254 380 209 364 183 353 c 5
 183 0 l 5
 63 0 l 5
 63 482 l 5xb8
87.8906 482.422 m 1
 144.043 482.422 l 1
 161.621 441.406 l 1
 236.816 482.422 294.922 492.188 331.543 492.188 c 0
 469.238 492.188 486.816 384.766 486.816 287.598 c 2
 486.816 0 l 25
 406.25 0 l 1
 406.25 290.527 l 2
 406.25 320.801 407.715 419.922 296.875 419.922 c 0
 251.465 419.922 203.613 400.879 167.969 382.324 c 1
 167.969 0 l 1
 87.8906 0 l 1
 87.8906 482.422 l 1
EndSplineSet
Fore
SplineSet
144 481 m 1
 160 449 l 1
 198 465 261 492 327 492 c 3
 494 492 502 359 502 275 c 2
 502 0 l 1
 382 0 l 1
 382 296 l 2
 382 332 372 394 295 394 c 3
 273 394 233 388 180 366 c 1
 180 0 l 1
 60 0 l 1
 60 481 l 1
 144 481 l 1
EndSplineSet
Validated: 1
EndChar
StartChar: o
Encoding: 111 111 6
Width: 565
Flags: HMW
AnchorPoint: "below" 282 -0.333333 basechar 0
AnchorPoint: "above" 283 482.2 basechar 0
AnchorPoint: "cedilla" 282 -0.799999 basechar 0
LayerCount: 3
Back
SplineSet
300 492 m 4
 442 492 554 406 554 250 c 4
 554 89 445 -10 292 -10 c 4
 147 -10 40 82 40 236 c 4
 40 393 146 492 300 492 c 4
293 383 m 4
 228 383 159 340 159 249 c 4
 159 166 215 99 301 99 c 4
 376 99 436 152 436 236 c 4
 436 335 361 383 293 383 c 4
EndSplineSet
Fore
SplineSet
282 401 m 3
 192 401 158 340 158 240 c 3
 158 140 192 82 282 82 c 3
 372 82 406 140 406 240 c 3
 406 340 372 401 282 401 c 3
282 -10 m 3
 131 -10 35 90 35 240 c 3
 35 391 131 492 282 492 c 3
 434 492 530 392 530 241 c 3
 530 91 433 -10 282 -10 c 3
EndSplineSet
Validated: 1
EndChar
StartChar: p
Encoding: 112 112 15
GlifName: p
Width: 579
UnlinkRmOvrlpSave: 1
Flags: HMW
AnchorPoint: "below" 290 -261 basechar 0
AnchorPoint: "above" 282 482 basechar 0
AnchorPoint: "cedilla" 304 -261 basechar 0
LayerCount: 2
Fore
SplineSet
188 121 m 1
 218 98 252 87 292 87 c 3
 374 87 418 142 418 236 c 3
 418 330 390 392 304 392 c 3
 260 392 213 375 189 365 c 1
 164 443 l 1
 211 472 266 492 334 492 c 3
 482 492 541 389 541 243 c 3
 541 97 456 -10 312 -10 c 3
 260 -10 209 6 157 38 c 1
 188 121 l 1
191 -259 m 1
 68 -259 l 1
 68 481 l 1
 145 481 l 1
 191 420 l 1
 191 -259 l 1
EndSplineSet
EndChar
StartChar: q
Encoding: 113 113 16
Width: 563
Flags: HMW
AnchorPoint: "below" 300 -261 basechar 0
AnchorPoint: "above" 295 482.333 basechar 0
AnchorPoint: "cedilla" 291 -261 basechar 0
LayerCount: 2
Back
SplineSet
284 -10 m 3
 330.560546875 -10 354.336914062 0 390 15 c 1
 390 -262 l 1
 513 -262 l 1
 513 482 l 1
 426 482 l 1
 414 454 l 1
 367.319335938 481 318.653320312 493 268 493 c 3
 124 493 35 392.801757812 35 243 c 3
 35 88.6103515625 130 -10 284 -10 c 3
306 85 m 3
 209.034179688 85 158 136.658203125 158 236 c 3
 158 342.674804688 206 397 302 397 c 3
 333.631835938 397 361.310546875 390 388 379 c 1
 388 109 l 1
 364.2890625 92 337.614257812 85 306 85 c 3
EndSplineSet
Fore
SplineSet
403 449 m 1
 419 481 l 1
 503 481 l 1
 503 -259 l 1
 383 -259 l 1
 383 15 l 1
 350 -2 320 -10 278 -10 c 3
 121 -10 32 83 32 238 c 3
 32 433 169 492 262 492 c 3
 320 492 370 467 403 449 c 1
295 395 m 3
 215 395 155 363 155 238 c 3
 155 125 219 82 299 82 c 3
 333 82 360 93 382 106 c 1
 382 376 l 1
 350 388 321 395 295 395 c 3
EndSplineSet
Validated: 1
EndChar
StartChar: r
Encoding: 114 114 20
Width: 404
Flags: HMW
AnchorPoint: "below" 121 0 basechar 0
AnchorPoint: "above" 219 482 basechar 0
AnchorPoint: "cedilla" 122 0 basechar 0
LayerCount: 2
Fore
SplineSet
60 481 m 5
 60 0 l 5
 180 0 l 5
 180 376 l 5
 205 385 232 390 260 390 c 7
 301 390 335 381 364 364 c 5
 370 366 l 5
 394 476 l 5
 366 489 336 495 305 495 c 7
 254 495 206 481 161 452 c 5
 146 481 l 5
 60 481 l 5
EndSplineSet
EndChar
StartChar: s
Encoding: 115 115 7
GlifName: s
Width: 468
Flags: HMW
AnchorPoint: "cedilla" 215 0 basechar 0
AnchorPoint: "below" 234 0 basechar 0
AnchorPoint: "above" 218 482 basechar 0
LayerCount: 2
Fore
SplineSet
198 86 m 3
 253 86 310 96 310 136 c 3
 310 211 38 166 38 347 c 3
 38 473 187 492 252 492 c 3
 346 492 389 475 425 458 c 1
 397 364 l 1
 364 380 330 396 254 396 c 3
 211 396 161 378 161 342 c 3
 161 270 433 310 433 129 c 3
 433 34 353 -10 211 -10 c 3
 126 -10 65 4 29 19 c 1
 50 112 l 1
 82 100 129 86 198 86 c 3
EndSplineSet
Validated: 1
EndChar
StartChar: t
Encoding: 116 116 19
Width: 407
Flags: HMW
AnchorPoint: "below" 231 0 basechar 0
AnchorPoint: "above" 149 632 basechar 0
AnchorPoint: "cedilla" 248 0 basechar 0
AnchorPoint: "aboveright" 336 634 basechar 0
LayerCount: 2
Back
SplineSet
226 -10 m 3
 126 -10 91 48 91 150 c 2
 91 414 l 1
 10 414 l 1
 10 482 l 1
 91 482 l 1
 91 615 l 1
 174 619 l 1
 174 482 l 1
 332 482 l 1
 332 414 l 1
 174 414 l 1
 174 156 l 2
 174 92 188 59 250 59 c 3
 279 59 302 67 315 70 c 1
 332 9 l 1
 295 -3 260 -10 226 -10 c 3
EndSplineSet
Fore
SplineSet
401 17 m 1
 367 4 310 -10 264 -10 c 3
 111 -10 90 70 90 155 c 2
 90 389 l 1
 10 389 l 1
 10 481 l 1
 90 481 l 1
 90 632 l 1
 213 632 l 1
 213 481 l 1
 379 481 l 1
 379 389 l 1
 213 389 l 1
 213 158 l 2
 213 121 228 88 294 88 c 3
 328 88 365 97 383 102 c 1
 401 17 l 1
EndSplineSet
Validated: 1
EndChar
StartChar: u
Encoding: 117 117 14
Width: 547
Flags: HMW
AnchorPoint: "ogonek" 437 0 basechar 0
AnchorPoint: "below" 282 0 basechar 0
AnchorPoint: "above" 275 481.2 basechar 0
AnchorPoint: "cedilla" 282 0 basechar 0
LayerCount: 3
Back
SplineSet
398 482 m 5xb8
 518 482 l 5
 518 0 l 5
 429 0 l 5x78
 414 33 l 5
 341 -1 282 -10 242 -10 c 4
 85 -10 63 99 63 197 c 6
 63 482 l 5
 183 482 l 5
 183 198 l 6
 183 166 186 102 280 102 c 4
 324 102 371 118 398 129 c 5
 398 482 l 5xb8
EndSplineSet
Fore
SplineSet
391 0 m 1
 375 32 l 1
 343 10 296 -10 230 -10 c 3
 63 -10 55 123 55 207 c 2
 55 481 l 1
 175 481 l 1
 175 186 l 2
 175 150 185 88 262 88 c 3
 284 88 324 93 367 115 c 1
 367 481 l 1
 487 481 l 1
 487 0 l 1
 391 0 l 1
EndSplineSet
Validated: 1
EndChar
StartChar: v
Encoding: 118 118 21
GlifName: v
Width: 496
Flags: HMW
AnchorPoint: "below" 252 0 basechar 0
AnchorPoint: "above" 252 482 basechar 0
AnchorPoint: "cedilla" 252 0 basechar 0
LayerCount: 2
Back
SplineSet
466 482 m 1
 286 0 l 1
 196 0 l 1
 16 482 l 1
 105 482 l 1
 238 105 l 1
 243 79 l 1
 247 105 l 1
 381 482 l 1
 466 482 l 1
EndSplineSet
Fore
SplineSet
492 481 m 1
 312 0 l 1
 189 0 l 1
 4 481 l 1
 138 481 l 1
 253 127 l 1
 366 481 l 1
 492 481 l 1
EndSplineSet
EndChar
StartChar: w
Encoding: 119 119 11
Width: 804
Flags: HMW
AnchorPoint: "below" 404 -1 basechar 0
AnchorPoint: "above" 404 481 basechar 0
AnchorPoint: "cedilla" 404 -1 basechar 0
LayerCount: 2
Back
SplineSet
7 482 m 1
 91 482 l 1
 217 96 l 1
 220 78 l 1
 223 96 l 1
 349 482 l 1
 429 482 l 1
 549 96 l 1
 552 78 l 1
 555 96 l 1
 681 482 l 1
 765 482 l 1
 599 0 l 1
 506 0 l 1
 385 374 l 1
 261 0 l 1
 171 0 l 1
 7 482 l 1
EndSplineSet
Fore
SplineSet
342 481 m 1
 462 481 l 1
 561 127 l 1
 670 481 l 1
 799 481 l 1
 615 0 l 1
 500 0 l 1
 402 343 l 1
 304 0 l 1
 189 0 l 1
 5 481 l 1
 134 481 l 1
 243 127 l 1
 342 481 l 1
EndSplineSet
Validated: 1
EndChar
StartChar: x
Encoding: 120 120 24
GlifName: x
Width: 494
Flags: HMW
AnchorPoint: "below" 239 0 basechar 0
AnchorPoint: "above" 240 481 basechar 0
AnchorPoint: "cedilla" 239 -1 basechar 0
LayerCount: 2
Fore
SplineSet
4 481 m 1
 137 481 l 1
 248 316 l 1
 354 481 l 1
 490 481 l 1
 316 237 l 1
 484 0 l 1
 352 0 l 1
 247 156 l 1
 144 0 l 1
 12 0 l 1
 175 237 l 1
 4 481 l 1
EndSplineSet
EndChar
StartChar: y
Encoding: 121 121 26
Width: 538
Flags: HMW
AnchorPoint: "below" 273 -261 basechar 0
AnchorPoint: "above" 273 482 basechar 0
LayerCount: 2
Back
SplineSet
403 482 m 1
 482 482 l 1
 206 -259 l 1
 122 -259 l 1
 214 -25 l 1
 20 482 l 1
 107 482 l 1
 255 82 l 1
 403 482 l 1
EndSplineSet
Fore
SplineSet
-5 481 m 1
 133 481 l 1
 276 112 l 1
 406 481 l 1
 533 481 l 1
 238 -259 l 1
 103 -259 l 1
 213 -4 l 1
 -5 481 l 1
EndSplineSet
Validated: 1
EndChar
StartChar: z
Encoding: 122 122 25
Width: 514
Flags: MW
AnchorPoint: "below" 258 0 basechar 0
AnchorPoint: "above" 255 482 basechar 0
AnchorPoint: "cedilla" 266 0 basechar 0
LayerCount: 3
Back
SplineSet
55 482 m 1
 423 482 l 1
 423 440 l 1
 161 63 l 1
 435 63 l 1
 435 0 l 1
 55 0 l 1
 55 42 l 1
 316 419 l 1
 55 419 l 1
 55 482 l 1
EndSplineSet
Fore
SplineSet
60 481 m 1
 446 481 l 1
 446 420 l 1
 216 103 l 1
 454 103 l 1
 454 0 l 1
 60 0 l 1
 60 62 l 1
 288 379 l 1
 60 379 l 1
 60 481 l 1
EndSplineSet
Validated: 1
EndChar
StartChar: braceleft
Encoding: 123 123 94
Width: 393
VWidth: 1023
Flags: MW
LayerCount: 3
Back
SplineSet
43.9453 302.246 m 5
 99.6973 311.622 150.392 354.225 162.771 447.896 c 4
 166.273 474.408 166.975 501.206 169.434 527.832 c 4
 186.06 707.827 304.289 734.995 347.656 738.281 c 5
 362.305 675.293 l 5
 325.494 670.21 291.863 647.773 271.484 616.699 c 4
 208.237 520.254 278.531 353.778 147.328 268.599 c 5
 278.488 183.775 209.525 16.2109 271.484 -79.1016 c 4
 291.751 -110.277 325.446 -132.784 362.305 -137.695 c 5
 347.656 -200.684 l 5
 309.929 -197.559 187.201 -172.471 169.434 3.41797 c 4
 162.809 68.998 170.144 160.436 99.7871 211.615 c 4
 83.3301 223.586 64.04 231.648 43.9453 234.863 c 5
 43.9453 302.246 l 5
  Spiro
    43.9453 302.246 v
    96.731 323.325 o
    138.886 370.648 o
    162.771 447.897 o
    165.506 474.46 o
    167.394 501.191 o
    169.434 527.832 o
    213.327 661.567 o
    285.945 722.29 o
    347.656 738.281 v
    362.305 675.293 v
    326.96 664.766 o
    295.879 644.546 o
    271.484 616.699 o
    240.354 502.642 o
    223.74 375.15 o
    147.328 268.599 v
    224.007 162.059 o
    240.917 34.4282 o
    271.484 -79.1016 o
    295.819 -107.033 o
    326.915 -127.265 o
    362.305 -137.695 v
    347.656 -200.684 v
    288.704 -185.498 o
    215.085 -126.886 o
    169.434 3.41797 o
    164.075 75.0933 o
    147.612 149.536 o
    99.7871 211.615 o
    82.479 222.239 o
    63.6772 230.074 o
    43.9453 234.863 v
    0 0 z
  EndSpiro
EndSplineSet
Fore
SplineSet
138 421 m 0
 141 446 142 473 144 500 c 0
 162 690 288 726 341 730 c 2
 358 730 l 1
 382 629 l 1
 360 626 l 2
 327 622 299 600 283 576 c 0
 228 492 286 333 176 239 c 1
 287 145 229 -15 283 -98 c 0
 299 -122 327 -143 360 -147 c 2
 382 -150 l 1
 358 -252 l 1
 341 -250 l 1
 295 -247 163 -215 144 -28 c 0
 137 40 145 121 83 166 c 0
 69 176 53 183 36 186 c 2
 19 188 l 1
 19 290 l 1
 36 292 l 1
 83 300 127 337 138 421 c 0
EndSplineSet
Validated: 1
EndChar
StartChar: bar
Encoding: 124 124 8
Width: 365
VWidth: 1023
Flags: MW
LayerCount: 3
Back
SplineSet
176 730 m 1
 256 730 l 1
 256 -202 l 1
 176 -202 l 1
 176 730 l 1
EndSplineSet
Fore
SplineSet
124 730 m 1
 244 730 l 1
 244 -242 l 1
 124 -242 l 1
 124 730 l 1
EndSplineSet
Validated: 1
EndChar
StartChar: braceright
Encoding: 125 125 87
Width: 393
VWidth: 1023
Flags: MW
LayerCount: 3
Fore
SplineSet
251 500 m 0
 253 473 255 446 258 421 c 0
 269 337 313 300 360 292 c 1
 376 290 l 1
 376 188 l 1
 360 186 l 2
 343 183 326 176 312 166 c 0
 250 121 258 40 251 -28 c 0
 232 -215 100 -247 54 -250 c 1
 37 -252 l 1
 14 -150 l 1
 36 -147 l 2
 69 -143 96 -122 112 -98 c 0
 166 -15 108 145 219 239 c 1
 109 333 167 492 112 576 c 0
 96 600 69 622 36 626 c 2
 14 629 l 1
 37 729 l 1
 54 729 l 2
 108 725 233 689 251 500 c 0
EndSplineSet
Validated: 1
EndChar
StartChar: asciitilde
Encoding: 126 126 88
Width: 583
VWidth: 1023
Flags: HMW
LayerCount: 3
Fore
SplineSet
384 311 m 7
 408 311 418 383 423 425 c 1
 535 407 l 1
 523 331 508 192 388 192 c 3
 288 192 231 299 199 299 c 3
 174 299 165 230 160 189 c 1
 48 206 l 1
 60 282 75 419 195 419 c 3
 295 419 353 311 384 311 c 7
EndSplineSet
EndChar
StartChar: exclamdown
Encoding: 161 161 96
Width: 317
VWidth: 1023
Flags: MW
LayerCount: 3
Fore
SplineSet
97 258 m 1
 220 258 l 1
 220 -261 l 1
 97 -261 l 1
 97 258 l 1
90 482 m 1
 228 482 l 1
 228 344 l 1
 90 344 l 1
 90 482 l 1
EndSplineSet
Validated: 1
EndChar
StartChar: cent
Encoding: 162 162 97
Width: 498
VWidth: 1023
Flags: HMW
LayerCount: 3
Fore
SplineSet
245 621 m 1
 245 730 l 1
 344 730 l 1
 344 626 l 1
 386 622 425 608 450 597 c 2
 467 590 l 1
 436 495 l 1
 417 501 l 2
 385 512 356 519 322 519 c 3
 223 519 171 455 171 358 c 3
 171 217 253 197 322 197 c 3
 350 197 384 202 411 212 c 1
 430 218 l 1
 462 126 l 1
 444 119 l 2
 413 107 379 97 344 94 c 1
 344 -27 l 1
 245 -27 l 1
 245 96 l 1
 139 115 53 201 53 358 c 3
 53 501 121 595 245 621 c 1
EndSplineSet
Validated: 1
EndChar
StartChar: sterling
Encoding: 163 163 95
Width: 634
VWidth: 1023
Flags: MW
LayerCount: 3
Fore
SplineSet
173 106 m 1
 173 304 l 1
 87 304 l 1
 87 410 l 1
 173 410 l 1
 173 439 l 2
 173 643 310 706 431 706 c 0
 473 706 514 698 551 686 c 2
 572 680 l 1
 534 584 l 1
 517 588 l 2
 493 594 466 599 441 599 c 0
 317 599 293 518 293 426 c 2
 293 410 l 1
 552 410 l 1
 552 304 l 1
 293 304 l 1
 293 106 l 1
 581 106 l 1
 581 0 l 1
 54 0 l 1
 54 106 l 1
 173 106 l 1
EndSplineSet
Validated: 1
EndChar
StartChar: currency
Encoding: 164 164 98
Width: 634
Flags: MW
LayerCount: 3
Fore
SplineSet
398 532 m 1
 483 617 l 1
 572 527 l 1
 487 443 l 1
 501 415 506 386 506 362 c 0
 506 334 500 306 488 281 c 1
 572 197 l 1
 482 108 l 1
 398 192 l 1
 373 180 345 173 317 173 c 0
 293 173 264 177 236 191 c 1
 152 107 l 1
 62 196 l 1
 147 281 l 1
 133 309 128 338 128 362 c 0
 128 390 135 418 147 443 c 1
 62 528 l 1
 151 618 l 1
 237 532 l 1
 265 546 293 551 317 551 c 0
 345 551 373 544 398 532 c 1
317 442 m 0
 275 442 240 407 240 362 c 0
 240 318 274 282 317 282 c 0
 359 282 395 318 395 362 c 0
 395 407 359 442 317 442 c 0
EndSplineSet
Validated: 1
EndChar
StartChar: yen
Encoding: 165 165 99
Width: 634
VWidth: 1023
Flags: MW
LayerCount: 3
Fore
SplineSet
35 686 m 1
 172 686 l 1
 318 441 l 1
 468 686 l 1
 600 686 l 1
 392 361 l 1
 514 361 l 1
 514 260 l 1
 373 260 l 1
 373 203 l 1
 514 203 l 1
 514 102 l 1
 373 102 l 1
 373 0 l 1
 255 0 l 1
 255 102 l 1
 121 102 l 1
 121 203 l 1
 255 203 l 1
 255 260 l 1
 121 260 l 1
 121 361 l 1
 237 361 l 1
 35 686 l 1
EndSplineSet
Validated: 1
EndChar
StartChar: brokenbar
Encoding: 166 166 100
Width: 431
VWidth: 1023
Flags: MW
LayerCount: 3
Back
SplineSet
176 730 m 1
 256 730 l 1
 256 357 l 1
 176 357 l 1
 176 730 l 1
176 173 m 1
 256 173 l 1
 256 -202 l 1
 176 -202 l 1
 176 173 l 1
EndSplineSet
Fore
SplineSet
156 173 m 1
 276 173 l 1
 276 -242 l 1
 156 -242 l 1
 156 173 l 1
156 730 m 1
 276 730 l 1
 276 317 l 1
 156 317 l 1
 156 730 l 1
EndSplineSet
Validated: 1
EndChar
StartChar: section
Encoding: 167 167 101
Width: 554
VWidth: 1023
Flags: HMW
LayerCount: 3
Fore
SplineSet
456 684 m 2
 476 679 l 1
 441 576 l 1
 422 582 l 2
 388 593 345 600 306 600 c 3
 245 600 203 579 203 547 c 3
 203 471 496 498 496 333 c 3
 496 303 488 266 463 233 c 1
 494 199 496 184 496 169 c 3
 496 94 445 -10 250 -10 c 3
 213 -10 152 -9 71 23 c 1
 53 31 l 1
 89 128 l 1
 107 122 l 1
 162 102 212 93 249 93 c 3
 335 93 364 120 364 160 c 3
 364 239 75 187 75 367 c 3
 75 394 85 429 110 460 c 1
 86 485 75 502 75 536 c 3
 75 604 132 706 318 706 c 3
 386 706 420 694 456 684 c 2
212 402 m 1
 203 391 203 380 203 376 c 3
 203 337 283 320 356 294 c 1
 360 300 364 310 364 323 c 3
 364 365 286 377 212 402 c 1
EndSplineSet
Validated: 1
EndChar
StartChar: dieresis
Encoding: 168 168 128
Width: 273
VWidth: 0
Flags: HMW
LayerCount: 3
Back
SplineSet
292 530 m 0
 264 530 239 555 239 583 c 0
 239 611 264 636 292 636 c 0
 320 636 345 611 345 583 c 0
 345 555 320 530 292 530 c 0
108 530 m 0
 80 530 55 555 55 583 c 0
 55 611 80 636 108 636 c 0
 136 636 161 611 161 583 c 0
 161 555 136 530 108 530 c 0
EndSplineSet
Fore
Refer: 573 776 N 1 0 0 1 0 -526 2
EndChar
StartChar: copyright
Encoding: 169 169 102
Width: 859
VWidth: 1023
Flags: MW
LayerCount: 3
Back
SplineSet
441 156 m 0
 335 156 273 218 273 327 c 0
 273 382 287 427 315 462 c 0
 344 498 390 515 452 515 c 0
 480 515 510 508 541 494 c 1
 526 452 l 1
 499 462 473 466 450 466 c 0
 371 466 330 420 330 339 c 0
 330 253 372 203 458 203 c 0
 478 203 499 207 522 215 c 1
 537 175 l 1
 504 162 472 156 441 156 c 0
430 609 m 0
 347 609 276 572 231 529 c 0
 186 485 148 416 148 333 c 0
 148 251 186 181 231 138 c 0
 276 94 347 58 430 58 c 0
 513 58 583 95 628 138 c 0
 673 181 711 251 711 333 c 0
 711 416 673 485 628 529 c 0
 583 573 513 609 430 609 c 0
428 674 m 0
 530 674 618 630 673 576 c 0
 729 522 776 436 776 333 c 0
 776 231 730 146 674 92 c 0
 618 38 532 -7 430 -7 c 0
 327 -7 242 38 186 92 c 0
 130 146 83 230 83 333 c 0
 83 435 129 521 185 575 c 0
 240 629 327 674 428 674 c 0
EndSplineSet
Fore
SplineSet
548 524 m 2
 564 517 l 1
 537 439 l 1
 518 446 l 1
 495 454 473 458 449 458 c 0
 371 458 351 408 351 353 c 0
 351 294 372 238 455 238 c 0
 475 238 495 242 515 249 c 2
 533 255 l 1
 561 179 l 1
 543 172 l 2
 509 159 474 152 437 152 c 0
 355 152 255 195 255 343 c 0
 255 496 355 547 442 547 c 0
 479 547 515 539 548 524 c 2
430 602 m 0
 284 602 171 484 171 347 c 0
 171 210 284 93 430 93 c 0
 576 93 688 210 688 347 c 0
 688 484 576 602 430 602 c 0
792 347 m 3
 792 155 634 -10 430 -10 c 3
 226 -10 67 154 67 347 c 3
 67 536 223 706 430 706 c 3
 634 706 792 539 792 347 c 3
EndSplineSet
Validated: 1
EndChar
StartChar: ordfeminine
Encoding: 170 170 192
Width: 374
VWidth: 1023
Flags: HMW
LayerCount: 3
Fore
SplineSet
243 525 m 1
 242 525 l 2
 178 525 145 516 145 488 c 3
 145 474 160 454 192 454 c 3
 211 454 229 464 243 484 c 1
 243 525 l 1
243 590 m 1
 243 609 239 643 186 643 c 3
 154 643 114 632 106 630 c 2
 94 626 l 1
 80 684 l 1
 90 687 l 1
 122 699 156 706 191 706 c 3
 309 706 315 632 315 592 c 2
 315 399 l 1
 261 399 l 1
 254 416 l 1
 235 400 211 390 185 390 c 3
 122 390 73 425 73 487 c 3
 73 571 134 590 243 590 c 1
EndSplineSet
Validated: 1
EndChar
StartChar: guillemotleft
Encoding: 171 171 103
Width: 589
VWidth: 1023
Flags: MW
LayerCount: 3
Fore
SplineSet
409 481 m 1
 549 481 l 1
 401 283 l 1
 549 85 l 1
 409 85 l 1
 270 283 l 1
 409 481 l 1
179 481 m 1
 320 481 l 1
 171 283 l 1
 320 85 l 1
 179 85 l 1
 40 283 l 1
 179 481 l 1
EndSplineSet
Validated: 1
EndChar
StartChar: logicalnot
Encoding: 172 172 190
Width: 683
VWidth: 1023
Flags: MW
LayerCount: 3
Back
SplineSet
61 391 m 1
 623 391 l 1
 623 172 l 1
 550 172 l 1
 550 319 l 1
 61 319 l 1
 61 391 l 1
EndSplineSet
Fore
SplineSet
41 377 m 1
 643 377 l 1
 643 118 l 1
 530 118 l 1
 530 265 l 1
 41 265 l 1
 41 377 l 1
EndSplineSet
Validated: 1
EndChar
StartChar: uni00AD
Encoding: 173 173 110
Width: 560
VWidth: 1023
Flags: HMW
LayerCount: 2
Back
SplineSet
107 391 m 1
 417 391 l 1
 417 324 l 1
 107 324 l 1
 107 391 l 1
EndSplineSet
Fore
Refer: 45 45 N 1 0 0 1 0 0 2
Validated: 1
EndChar
StartChar: registered
Encoding: 174 174 105
Width: 601
VWidth: 1023
Flags: HMW
LayerCount: 3
Fore
SplineSet
301 593 m 2
 266 593 l 1
 266 530 l 1
 291 530 283 530 298 530 c 3
 335 530 348 539 348 560 c 3
 348 586 333 593 301 593 c 2
317 657 m 2
 396 657 416 608 416 565 c 3
 416 537 407 500 369 481 c 1
 426 369 l 1
 467 404 491 454 491 509 c 3
 491 609 408 696 301 696 c 3
 195 696 110 610 110 509 c 3
 110 409 194 323 301 323 c 3
 348 323 390 340 423 367 c 1
 350 367 l 1
 301 468 l 1
 266 468 l 1
 266 367 l 1
 196 367 l 1
 196 657 l 1
 317 657 l 2
570 509 m 3
 570 362 448 244 301 244 c 3
 150 244 32 365 32 509 c 3
 32 656 154 774 301 774 c 3
 448 774 570 656 570 509 c 3
EndSplineSet
Validated: 1
EndChar
StartChar: degree
Encoding: 176 176 124
Width: 287
Flags: HMW
LayerCount: 3
Fore
SplineSet
144 648 m 3
 119 648 101 627 101 603 c 3
 101 579 118 558 144 558 c 3
 167 558 186 579 186 603 c 3
 186 627 168 648 144 648 c 3
271 603 m 3
 271 531 214 473 144 473 c 3
 75 473 17 531 17 603 c 3
 17 674 74 732 144 732 c 3
 213 732 271 675 271 603 c 3
EndSplineSet
Validated: 1
EndChar
StartChar: plusminus
Encoding: 177 177 111
Width: 683
VWidth: 1023
Flags: MW
LayerCount: 3
Fore
SplineSet
87 160 m 1
 596 160 l 1
 596 53 l 1
 87 53 l 1
 87 160 l 1
286 714 m 1
 397 714 l 1
 397 513 l 1
 596 513 l 1
 596 406 l 1
 397 406 l 1
 397 205 l 1
 286 205 l 1
 286 406 l 1
 87 406 l 1
 87 513 l 1
 286 513 l 1
 286 714 l 1
EndSplineSet
Validated: 1
EndChar
StartChar: uni00B2
Encoding: 178 178 146
Width: 390
VWidth: 0
Flags: HMW
LayerCount: 3
Back
SplineSet
243 630 m 3
 243 662 210 680 176 680 c 3
 156 680 123 673 82 657 c 1
 63 699 l 1
 105 720 141 730 176 730 c 3
 240 730 301 691 301 630 c 3
 301 538 184 485 153 407 c 1
 307 407 l 1
 307 356 l 1
 72 356 l 1
 72 388 l 1
 98 471 243 567 243 630 c 3
EndSplineSet
Fore
SplineSet
60 404 m 1
 106 552 231 598 231 640 c 3
 231 658 209 682 173 682 c 3
 156 682 135 678 86 658 c 2
 75 653 l 1
 48 719 l 1
 58 724 l 1
 87 739 129 756 181 756 c 3
 254 756 313 712 313 647 c 3
 313 555 206 525 159 434 c 1
 319 434 l 1
 319 358 l 1
 60 358 l 1
 60 404 l 1
EndSplineSet
Validated: 1
EndChar
StartChar: uni00B3
Encoding: 179 179 147
Width: 390
VWidth: 1023
Flags: HMW
LayerCount: 3
Back
SplineSet
166 730 m 3
 227 730 287 697 287 636 c 3
 287 606 274 581 246 563 c 1
 284 547 302 514 302 475 c 0
 302 396 240 353 166 353 c 27
 135 353 97 361 61 375 c 1
 77 422 l 1
 114 412 145 406 166 406 c 3
 204 406 246 439 246 475 c 0
 246 520 189 531 135 531 c 1
 135 581 l 1
 193 582 231 592 231 636 c 3
 231 661 197 677 166 677 c 3
 145 677 120 670 87 655 c 1
 68 701 l 1
 107 720 134 730 166 730 c 3
EndSplineSet
Fore
SplineSet
175 755 m 3
 244 755 299 713 299 653 c 3
 299 624 288 597 268 578 c 1
 301 557 314 525 314 491 c 3
 314 409 248 354 160 354 c 3
 118 354 86 364 57 376 c 2
 46 381 l 1
 69 449 l 1
 81 446 l 1
 125 434 141 432 161 432 c 3
 199 432 233 452 233 482 c 3
 233 525 182 532 135 532 c 2
 123 532 l 1
 123 606 l 1
 135 606 l 2
 175 606 219 614 219 646 c 3
 219 660 205 678 170 678 c 3
 139 678 110 665 92 657 c 2
 81 651 l 1
 52 720 l 1
 62 725 l 1
 89 738 127 755 175 755 c 3
EndSplineSet
Validated: 1
EndChar
StartChar: mu
Encoding: 181 181 109
Width: 571
Flags: HMW
LayerCount: 2
Back
SplineSet
93 482 m 1
 173 482 l 1
 173 221 l 2
 173 171 176 144 194 111 c 0
 213 75 246 55 290 55 c 0
 320 55 361 67 412 92 c 1
 412 482 l 1
 492 482 l 1
 492 0 l 1
 436 0 l 1
 421 33 l 1
 373 2 327 -13 283 -13 c 0
 239 -13 202 0 173 26 c 1
 173 -200 l 1
 93 -200 l 1
 93 482 l 1
EndSplineSet
Fore
SplineSet
192 231 m 2
 192 151 203 95 276 95 c 0
 309 95 343 106 379 127 c 1
 379 481 l 1
 502 481 l 1
 502 0 l 1
 418 0 l 1
 400 35 l 1
 360 11 322 -10 265 -10 c 0
 237 -10 211 -3 188 11 c 1
 188 -221 l 1
 69 -221 l 1
 69 481 l 1
 192 481 l 1
 192 231 l 2
EndSplineSet
Validated: 1
EndChar
StartChar: uni00B5
Encoding: 181 181 109
Width: 579
VWidth: 1023
Flags: HMW
LayerCount: 3
Fore
SplineSet
73 502 m 1
 193 502 l 1
 193 210 l 2
 193 122 224 75 292 75 c 3
 313 75 338 79 392 105 c 1
 392 502 l 1
 512 502 l 1
 512 -20 l 1
 422 -20 l 1
 412 4 l 1
 374 -17 325 -33 278 -33 c 3
 251 -33 221 -27 193 -12 c 1
 193 -220 l 1
 73 -220 l 1
 73 502 l 1
EndSplineSet
Validated: 1
EndChar
StartChar: paragraph
Encoding: 182 182 106
Width: 647
VWidth: 1023
Flags: HMW
LayerCount: 3
Back
SplineSet
298 730 m 2
 561 730 l 1
 561 0 l 1
 478 0 l 1
 478 657 l 1
 360 657 l 1
 360 0 l 1
 276 0 l 1
 276 327 l 1
 213 333 179 341 142 369 c 0
 95 404 63 466 63 545 c 0
 63 636 112 702 189 720 c 0
 218 727 254 730 298 730 c 2
EndSplineSet
Fore
SplineSet
293 758 m 2
 575 758 l 1
 575 -20 l 1
 455 -20 l 1
 455 645 l 1
 377 645 l 1
 377 -20 l 1
 257 -20 l 1
 257 315 l 1
 166 322 43 376 43 553 c 3
 43 753 216 758 293 758 c 2
EndSplineSet
Validated: 1
EndChar
StartChar: periodcentered
Encoding: 183 183 107
Width: 288
VWidth: 1023
Flags: HMW
LayerCount: 3
Fore
SplineSet
144 280 m 259
 103 280 67 316 67 357 c 259
 67 398 103 434 144 434 c 259
 185 434 221 398 221 357 c 259
 221 316 185 280 144 280 c 259
EndSplineSet
EndChar
StartChar: uni00B9
Encoding: 185 185 149
Width: 265
VWidth: 0
Flags: MW
LayerCount: 3
Fore
SplineSet
121 750 m 1
 180 750 l 1
 180 359 l 1
 100 359 l 1
 100 669 l 1
 33 650 l 1
 15 721 l 1
 121 750 l 1
EndSplineSet
Validated: 1
EndChar
StartChar: ordmasculine
Encoding: 186 186 150
Width: 372
VWidth: 1023
Flags: HMW
LayerCount: 3
Back
SplineSet
190 667 m 0
 135 667 110 628 110 564 c 0
 110 502 130 455 182 455 c 0
 242 455 262 497 262 564 c 0
 262 622 241 667 190 667 c 0
304 564 m 0
 304 483 262 417 186 417 c 0
 102 417 68 474 68 565 c 0
 68 641 113 706 183 706 c 0
 267 706 304 651 304 564 c 0
EndSplineSet
Fore
SplineSet
186 646 m 3
 159 646 118 633 118 552 c 3
 118 461 160 445 187 445 c 3
 214 445 254 460 254 549 c 3
 254 634 213 646 186 646 c 3
319 550 m 3
 319 448 260 387 186 387 c 3
 120 387 54 426 54 551 c 3
 54 655 121 706 187 706 c 3
 240 706 319 680 319 550 c 3
EndSplineSet
Validated: 1
EndChar
StartChar: guillemotright
Encoding: 187 187 104
Width: 589
VWidth: 1023
Flags: MW
LayerCount: 3
Fore
SplineSet
40 481 m 1
 181 481 l 1
 319 283 l 1
 181 85 l 1
 40 85 l 1
 189 283 l 1
 40 481 l 1
270 481 m 1
 410 481 l 1
 549 283 l 1
 410 85 l 1
 270 85 l 1
 419 283 l 1
 270 481 l 1
EndSplineSet
Validated: 1
EndChar
StartChar: onequarter
Encoding: 188 188 121
Width: 878
VWidth: 0
Flags: MW
LayerCount: 3
Fore
SplineSet
569 692 m 1
 683 692 l 1
 268 0 l 1
 154 0 l 1
 569 692 l 1
148 692 m 1
 216 692 l 1
 216 276 l 1
 127 276 l 1
 127 600 l 1
 62 582 l 1
 42 663 l 1
 148 692 l 1
699 432 m 1
 794 432 l 1
 794 173 l 1
 846 173 l 1
 846 95 l 1
 794 95 l 1
 794 0 l 1
 705 0 l 1
 705 95 l 1
 514 95 l 1
 514 155 l 1
 699 432 l 1
705 305 m 1
 621 173 l 1
 705 173 l 1
 705 305 l 1
EndSplineSet
Validated: 1
EndChar
StartChar: onehalf
Encoding: 189 189 122
Width: 926
VWidth: 0
Flags: MW
LayerCount: 3
Back
SplineSet
166.504 693.848 m 5
 221.191 693.848 l 5
 221.191 296.875 l 5
 156.25 296.875 l 5
 156.25 630.371 l 5xf6
 87.8906 611.328 l 5
 73.2422 668.457 l 5
 166.504 693.848 l 5
102.231 676.24 m 1
 131.785 690.703 173.225 707.788 220.553 707.788 c 0
 290.296 707.788 343.551 666.689 343.551 609.497 c 0xf960
 343.551 573.247 325.658 541.89 297.709 523.999 c 1
 343.764 504.99 360.201 468.377 360.201 430.64 c 0
 360.201 348.383 293.219 294.238 204.465 293.677 c 1
 203.365 293.677 l 2
 159.999 293.677 125.272 305.244 94.9502 317.561 c 1
 112.834 368.977 l 1
 161.192 355.638 182.089 352.222 204.977 352.222 c 0
 254.713 352.222 297.896 379.722 297.896 420.972 c 0xf8e0
 297.896 448.256 276.305 489.185 189.938 489.185 c 2
 176.51 489.185 l 1
 176.51 544.302 l 1
 266.223 546.646 281.783 578.906 281.783 601.978 c 0
 281.783 626.479 257.955 650.317 214.645 650.317 c 0xf960
 176.07 650.317 140.941 633.618 123.422 625.537 c 1
 102.231 676.24 l 1
EndSplineSet
Fore
SplineSet
569 692 m 1
 683 692 l 1
 268 0 l 1
 154 0 l 1
 569 692 l 1
148 692 m 1
 216 692 l 1
 216 276 l 1
 127 276 l 1
 127 600 l 1
 62 582 l 1
 42 663 l 1
 148 692 l 1
596 49 m 1
 646 211 785 263 785 309 c 0
 785 330 760 355 719 355 c 0
 700 355 678 350 624 329 c 2
 613 325 l 1
 583 395 l 1
 594 401 l 1
 626 416 671 435 728 435 c 0
 808 435 873 388 873 317 c 0
 873 216 754 183 702 81 c 1
 879 81 l 1
 879 0 l 1
 596 0 l 1
 596 49 l 1
EndSplineSet
Validated: 1
EndChar
StartChar: threequarters
Encoding: 190 190 123
Width: 952
VWidth: 0
Flags: MW
LayerCount: 3
Back
SplineSet
621 694 m 1
 706 694 l 1
 306 0 l 1
 220 0 l 1
 621 694 l 1
795 408 m 1
 795 149 l 1
 848 149 l 1
 848 95 l 1
 795 95 l 1
 795 0 l 1
 730 0 l 1
 730 95 l 1
 540 95 l 1
 540 139 l 1
 719 408 l 1
 795 408 l 1
730 149 m 1
 730 336 l 1
 613 149 l 1
 730 149 l 1
186 708 m 0
 255 708 310 671 310 603 c 0
 310 570 295 544 264 524 c 1
 306 507 327 477 327 434 c 0
 327 348 258 293 171 293 c 2
 169 293 l 2
 136 293 101 301 61 317 c 1
 79 369 l 1
 122 358 154 352 176 352 c 0
 219 352 264 379 264 421 c 0
 264 437 259 450 248 460 c 0
 228 479 197 489 156 489 c 2
 143 489 l 1
 143 544 l 1
 151 544 l 1
 186 545 211 551 226 563 c 0
 241 575 248 587 248 601 c 0
 248 635 215 650 177 650 c 0
 154 650 125 642 90 625 c 1
 68 676 l 1
 110 697 150 708 186 708 c 0
EndSplineSet
Fore
SplineSet
647 692 m 1
 761 692 l 1
 346 0 l 1
 232 0 l 1
 647 692 l 1
762 432 m 1
 857 432 l 1
 857 173 l 1
 910 173 l 1
 910 95 l 1
 857 95 l 1
 857 0 l 1
 768 0 l 1
 768 95 l 1
 578 95 l 1
 578 155 l 1
 762 432 l 1
768 305 m 1
 684 173 l 1
 768 173 l 1
 768 305 l 1
196 706 m 0
 271 706 330 660 330 595 c 0
 330 562 316 533 295 512 c 1
 332 490 348 454 348 417 c 0
 348 327 274 267 178 267 c 0
 133 267 97 279 65 292 c 2
 55 297 l 1
 80 370 l 1
 91 367 l 1
 139 354 159 350 180 350 c 0
 222 350 261 373 261 407 c 0
 261 444 229 463 151 463 c 2
 139 463 l 1
 139 543 l 1
 151 543 l 2
 194 543 245 552 245 588 c 0
 245 604 229 624 190 624 c 0
 155 624 124 609 104 600 c 2
 92 595 l 1
 61 668 l 1
 72 673 l 2
 103 688 146 706 196 706 c 0
EndSplineSet
Validated: 1
EndChar
StartChar: questiondown
Encoding: 191 191 108
Width: 560
VWidth: 1023
Flags: HMWO
LayerCount: 3
Fore
SplineSet
367 341 m 1
 227 341 l 1
 227 481 l 1
 367 481 l 1
 367 341 l 1
49 -31 m 3
 49 185 235 64 235 258 c 1
 358 258 l 1
 358 25 170 90 170 -31 c 3
 170 -65 183 -114 297 -114 c 3
 346 -114 400 -98 434 -85 c 1
 474 -180 l 1
 420 -208 360 -224 297 -224 c 3
 151 -224 49 -156 49 -31 c 3
EndSplineSet
EndChar
StartChar: Acircumflex
Encoding: 194 194 143
GlifName: A_circumflex
Width: 646
VWidth: 0
Flags: HMW
AnchorPoint: "above" 318 940 basechar 0
LayerCount: 2
Back
SplineSet
304 928 m 1
 442 791 l 1
 399 747 l 1
 304 845 l 25
 209 747 l 25
 166 791 l 1
 304 928 l 1
592 0 m 1
 561 0 530 0 499 0 c 1
 433 202 l 1
 169 202 l 1
 103 0 l 1
 17 0 l 1
 252 692 l 1
 356 692 l 5
 592 0 l 1
301 606 m 1
 193 276 l 1
 409 276 l 1
 301 606 l 1
EndSplineSet
Fore
Refer: 331 770 N 1 0 0 1 319 209 2
Refer: 32 65 N 1 0 0 1 0 0 3
Validated: 1
EndChar
StartChar: Aring
Encoding: 197 197 145
Width: 755
VWidth: 0
Flags: HMW
LayerCount: 3
Fore
SplineSet
407 915 m 0
 495 915 571 852 571 770 c 0
 571 720 539 676 492 652 c 1
 748 0 l 1
 621 0 l 1
 543 182 l 1
 260 182 l 1
 183 0 l 1
 63 0 l 1
 320 653 l 1
 275 677 243 720 243 770 c 0
 243 851 318 915 407 915 c 0
408 824 m 0
 371 824 346 798 346 770 c 0
 346 743 369 715 408 715 c 0
 443 715 467 742 467 770 c 0
 467 798 443 824 408 824 c 0
500 294 m 1
 402 552 l 1
 303 294 l 1
 500 294 l 1
EndSplineSet
Validated: 1
EndChar
StartChar: AE
Encoding: 198 198 120
Width: 1015
VWidth: 1023
Flags: MW
AnchorPoint: "cedilla" 564 0 basechar 0
AnchorPoint: "below" 564 0 basechar 0
AnchorPoint: "above" 564 692 basechar 0
LayerCount: 3
Fore
SplineSet
442 581 m 1
 316 294 l 1
 501 294 l 1
 501 581 l 1
 442 581 l 1
361 694 m 1
 946 694 l 1
 946 581 l 1
 632 581 l 1
 632 414 l 1
 919 414 l 1
 919 301 l 1
 632 301 l 1
 632 113 l 1
 946 113 l 1
 946 0 l 1
 501 0 l 1
 501 182 l 1
 269 182 l 1
 186 0 l 1
 63 0 l 1
 361 694 l 1
EndSplineSet
Validated: 1
EndChar
StartChar: Ccedilla
Encoding: 199 199 127
Width: 682
VWidth: 0
UnlinkRmOvrlpSave: 1
Flags: HMW
LayerCount: 3
Back
SplineSet
535.928 -154.191 m 0
 535.928 -201.617 496.196 -246.98 432.426 -246.98 c 0
 406.274 -246.98 389.642 -242.516 333.252 -225.931 c 2
 316.65 -221.048 l 1
 331.299 -170.267 l 1
 345.947 -174.661 l 2
 398.936 -190.279 418.01 -194.707 436.025 -194.707 c 0
 465.219 -194.707 481.023 -178.023 481.023 -160.225 c 0
 481.023 -129.678 441.952 -120.596 433.35 -118.021 c 2
 366.455 -98.001 l 1
 393.057 -1.03516 l 1
 230.14 34.7666 134.277 176.499 134.277 346.191 c 0
 134.277 545.898 267.578 698.73 481.445 698.73 c 0
 533.203 698.73 599.609 689.453 669.922 661.621 c 1
 644.531 592.773 l 1
 565.43 620.117 512.207 625.488 479.004 625.488 c 0
 317.383 625.488 217.285 491.699 217.285 346.68 c 0
 217.285 194.824 325.195 66.4062 497.07 66.4062 c 0
 543.945 66.4062 598.145 75.6836 653.809 95.7031 c 1
 679.199 34.1797 l 1
 608.887 3.90625 537.109 -9.76562 476.074 -9.76562 c 0
 471.426 -9.76562 466.816 -9.68945 462.248 -9.53906 c 1
 448.006 -65.875 l 1
 457.831 -68.8223 535.928 -83.5371 535.928 -154.191 c 0
EndSplineSet
Fore
Refer: 577 807 N 1 0 0 1 356 0 2
Refer: 54 67 N 1 0 0 1 0 0 3
Validated: 5
EndChar
StartChar: Eth
Encoding: 208 208 188
Width: 863
VWidth: 1023
Flags: MW
AnchorPoint: "cedilla" 432 0 basechar 0
AnchorPoint: "above" 432 670 basechar 0
AnchorPoint: "below" 432 0 basechar 0
LayerCount: 3
Fore
SplineSet
164 694 m 1
 396 694 l 2
 503 694 808 678 808 367 c 0
 808 21 508 0 365 0 c 2
 164 0 l 1
 164 301 l 1
 57 301 l 1
 57 415 l 1
 164 415 l 1
 164 694 l 1
402 581 m 2
 287 581 l 1
 287 415 l 1
 414 415 l 1
 414 301 l 1
 287 301 l 1
 287 113 l 1
 368 113 l 2
 492 113 684 128 684 351 c 0
 684 448 632 581 402 581 c 2
EndSplineSet
Validated: 1
EndChar
StartChar: Ocircumflex
Encoding: 212 212 160
GlifName: O_circumflex
Width: 768
VWidth: 0
Flags: HMW
AnchorPoint: "above" 380 940 basechar 0
LayerCount: 2
Back
SplineSet
381 927 m 1
 519 790 l 1
 476 746 l 1
 381 844 l 25
 286 746 l 25
 243 790 l 1
 381 927 l 1
381 706 m 3
 581 706 707 546 707 346 c 3
 707 146 581 -10 381 -10 c 3
 181 -10 55 146 55 346 c 3
 55 546 181 706 381 706 c 3
381 64 m 3
 521 64 624 186 624 346 c 3
 624 506 521 632 381 632 c 3
 241 632 138 506 138 346 c 3
 138 186 241 64 381 64 c 3
EndSplineSet
Fore
Refer: 331 770 N 1 0 0 1 380 211 2
Refer: 31 79 N 1 0 0 1 0 0 3
Validated: 1
EndChar
StartChar: Odieresis
Encoding: 214 214 132
GlifName: O_dieresis
Width: 768
VWidth: 0
Flags: HMW
LayerCount: 2
Back
SplineSet
473 740 m 0
 445 740 420 765 420 793 c 0
 420 821 445 846 473 846 c 0
 501 846 526 821 526 793 c 0
 526 765 501 740 473 740 c 0
289 740 m 0
 261 740 236 765 236 793 c 0
 236 821 261 846 289 846 c 0
 317 846 342 821 342 793 c 0
 342 765 317 740 289 740 c 0
381 706 m 3
 581 706 707 546 707 346 c 3
 707 146 581 -10 381 -10 c 3
 181 -10 55 146 55 346 c 3
 55 546 181 706 381 706 c 3
381 64 m 3
 521 64 624 186 624 346 c 3
 624 506 521 632 381 632 c 3
 241 632 138 506 138 346 c 3
 138 186 241 64 381 64 c 3
EndSplineSet
Fore
Refer: 573 776 N 1 0 0 1 380 211 2
Refer: 31 79 N 1 0 0 1 0 0 3
Validated: 1
EndChar
StartChar: multiply
Encoding: 215 215 114
Width: 538
Flags: HMW
LayerCount: 3
Back
SplineSet
527 485 m 5
 472 537 l 5
 344 408 l 5
 213 536 l 5
 156 478 l 5
 283 350 l 5
 155 219 l 5
 207 165 l 5
 337 296 l 5
 468 165 l 5
 526 223 l 5
 396 354 l 5
 527 485 l 5
EndSplineSet
Fore
SplineSet
269 240 m 5
 140 110 l 5
 63 187 l 5
 192 317 l 5
 64 447 l 5
 140 524 l 5
 269 394 l 5
 399 524 l 5
 475 447 l 5
 346 317 l 5
 476 187 l 5
 399 110 l 5
 269 240 l 5
EndSplineSet
EndChar
StartChar: Oslash
Encoding: 216 216 189
Width: 784
VWidth: 0
UnlinkRmOvrlpSave: 1
Flags: HMW
AnchorPoint: "above" 390 692 basechar 0
LayerCount: 3
Back
SplineSet
827.98828125 692.006835938 m 29
 77.6552734375 62.40234375 l 29
 130.383789062 -0.4365234375 l 29
 880.717773438 629.169921875 l 29
 827.98828125 692.006835938 l 29
481.4453125 701.171875 m 4
 693.359375 701.171875 847.16796875 568.84765625 847.16796875 354.4921875 c 4
 847.16796875 139.16015625 697.265625 -7.32421875 477.5390625 -7.32421875 c 4
 289.061523438 -7.32421875 114.74609375 108.88671875 114.74609375 345.21484375 c 4
 114.74609375 562.5 266.6015625 701.171875 481.4453125 701.171875 c 4
476.561523438 588.37890625 m 4
 362.79296875 588.37890625 240.72265625 518.06640625 240.72265625 354.98046875 c 4
 240.72265625 200.68359375 349.12109375 105.46875 484.86328125 105.46875 c 4
 596.6796875 105.46875 721.19140625 176.26953125 721.19140625 346.19140625 c 4
 721.19140625 518.06640625 589.84375 588.37890625 476.561523438 588.37890625 c 4
EndSplineSet
Fore
SplineSet
661 694 m 1
 734 627 l 1
 122 0 l 1
 53 72 l 1
 661 694 l 1
EndSplineSet
Refer: 31 79 N 1 0 0 1 0 0 2
Validated: 5
EndChar
StartChar: Thorn
Encoding: 222 222 193
Width: 665
VWidth: 1023
Flags: MW
AnchorPoint: "cedilla" 141 0 basechar 0
AnchorPoint: "above" 310 692 basechar 0
AnchorPoint: "below" 310 0 basechar 0
LayerCount: 3
Back
SplineSet
291 567 m 0
 442 567 542 524 542 384 c 0
 542 271 489 200 403 175 c 0
 373 166 299 159 246 159 c 0
 220 159 192 160 163 162 c 1
 163 0 l 1
 80 0 l 1
 80 694 l 1
 163 694 l 1
 163 560 l 1
 211 565 254 567 291 567 c 0
457 368 m 0
 457 466 377 492 265 492 c 0
 235 492 201 490 163 487 c 1
 163 236 l 1
 201 233 235 232 264 232 c 0
 383 232 457 258 457 368 c 0
EndSplineSet
Fore
SplineSet
305 472 m 0
 270 472 237 471 203 469 c 1
 203 254 l 1
 245 252 273 251 290 251 c 2
 305 251 l 2
 400 251 497 261 497 367 c 0
 497 459 405 472 305 472 c 0
80 694 m 1
 203 694 l 1
 203 566 l 1
 245 569 287 571 331 571 c 0
 496 571 622 532 622 377 c 0
 622 299 590 189 463 155 c 1
 427 146 367 139 272 139 c 0
 249 139 226 140 203 141 c 1
 203 0 l 1
 80 0 l 1
 80 694 l 1
EndSplineSet
Validated: 1
EndChar
StartChar: germandbls
Encoding: 223 223 113
Width: 694
VWidth: 1023
Flags: HMW
AnchorPoint: "above" 262 671 basechar 0
LayerCount: 3
Fore
SplineSet
319 698 m 3
 464 698 539 596 539 516 c 3
 539 403 396 382 396 341 c 3
 396 280 636 311 636 138 c 3
 636 79 585 -13 434 -13 c 3
 389 -13 333 -6 266 11 c 1
 244 17 l 1
 273 110 l 1
 294 106 l 1
 342 98 397 92 434 92 c 3
 501 92 511 107 511 138 c 3
 511 227 258 186 258 341 c 3
 258 447 406 464 406 516 c 3
 406 560 361 586 319 586 c 3
 298 586 218 577 218 479 c 2
 218 0 l 1
 98 0 l 1
 98 479 l 2
 98 635 205 698 319 698 c 3
EndSplineSet
Validated: 1
EndChar
StartChar: agrave
Encoding: 224 224 166
GlifName: agrave
Width: 523
VWidth: 0
Flags: HMW
LayerCount: 2
Back
SplineSet
184 730 m 1
 308 575 l 1
 263 536 l 1
 133 687 l 1
 184 730 l 1
249 421 m 3
 175 421 125 412 99 403 c 1
 80 465 l 1
 132 485 193 494 249 494 c 3
 366 494 435 435 435 313 c 2
 435 0 l 1
 414 0 394 0 373 0 c 1
 357 32 l 1
 312 -5 267 -10 213 -10 c 3
 129 -10 52 47 52 125 c 3
 52 268 206 280 352 284 c 1
 352 370 329 421 249 421 c 3
213 63 m 3
 266 63 317 66 352 96 c 1
 352 224 l 1
 237 221 135 220 135 125 c 3
 135 92 173 63 213 63 c 3
EndSplineSet
Fore
Refer: 567 768 N 1 0 0 1 250 -1 2
Refer: 0 97 N 1 0 0 1 0 0 3
Validated: 1
EndChar
StartChar: aring
Encoding: 229 229 170
GlifName: aring
Width: 523
VWidth: 0
Flags: HMW
AnchorPoint: "above" 248 710 basechar 0
LayerCount: 2
Back
SplineSet
293 630 m 3
 293 655 273 676 249 676 c 3
 224 676 204 656 204 630 c 3
 204 604 223 583 248 583 c 3
 273 583 293 604 293 630 c 3
152 630 m 3
 152 684 195 730 249 730 c 3
 302 730 346 683 346 630 c 3
 346 577 303 530 249 530 c 3
 195 530 152 576 152 630 c 3
249 421 m 3
 175 421 125 412 99 403 c 1
 80 465 l 1
 132 485 193 494 249 494 c 3
 366 494 435 435 435 313 c 2
 435 0 l 1
 414 0 394 0 373 0 c 1
 357 32 l 1
 312 -5 267 -10 213 -10 c 3
 129 -10 52 47 52 125 c 3
 52 268 206 280 352 284 c 1
 352 370 329 421 249 421 c 3
213 63 m 3
 266 63 317 66 352 96 c 1
 352 224 l 1
 237 221 135 220 135 125 c 3
 135 92 173 63 213 63 c 3
EndSplineSet
Fore
Refer: 574 778 N 1 0 0 1 250 -1 2
Refer: 0 97 N 1 0 0 1 0 0 3
Validated: 1
EndChar
StartChar: ae
Encoding: 230 230 112
Width: 861
VWidth: 0
Flags: HMW
AnchorPoint: "above" 411 482 basechar 0
LayerCount: 3
Back
SplineSet
140 134 m 0
 140 86 198 54 247 54 c 0
 288 54 324 70 354 101 c 1
 354 213 l 1
 346 213 333 214 317 214 c 0
 258 214 214 208 184 196 c 0
 154 184 140 164 140 134 c 0
677 290 m 0
 677 359 640 422 573 422 c 0
 544 422 520 415 500 401 c 0
 462 374 441 331 438 273 c 1
 677 273 l 1
 677 277 677 278 677 290 c 0
408 406 m 1
 445 451 506 491 582 491 c 0
 697 491 754 409 754 245 c 0
 754 230 753 219 753 213 c 1
 434 213 l 1
 434 210 434 210 434 207 c 0
 434 165 451 130 484 100 c 0
 518 70 561 55 612 55 c 0
 639 55 672 60 712 72 c 1
 726 18 l 1
 677 0 629 -10 581 -10 c 0
 502 -10 442 15 401 64 c 1
 364 15 307 -10 231 -10 c 0
 166 -10 113 19 84 58 c 0
 68 80 60 104 60 130 c 0
 60 166 75 197 105 223 c 0
 147 259 226 274 308 274 c 0
 345 274 346 274 354 274 c 1
 354 299 l 2
 354 383 311 425 225 425 c 0
 201 425 163 417 111 403 c 1
 91 461 l 1
 145 481 199 491 253 491 c 0
 329 491 381 463 408 406 c 1
EndSplineSet
Fore
SplineSet
335 107 m 1
 335 208 l 1
 244 208 154 198 154 137 c 0
 154 99 185 79 235 79 c 0
 286 79 309 91 335 107 c 1
560 398 m 0
 511 398 457 370 457 292 c 1
 663 292 l 1
 663 370 618 398 560 398 c 0
557 492 m 0
 708 492 782 403 782 254 c 2
 782 208 l 1
 455 208 l 1
 455 120 519 82 605 82 c 0
 658 82 718 92 739 97 c 1
 758 17 l 1
 714 0 653 -10 589 -10 c 0
 515 -10 458 9 417 42 c 1
 400 31 375 19 343 9 c 0
 305 -2 262 -10 204 -10 c 0
 99 -10 35 53 35 137 c 0
 35 274 163 292 329 292 c 1
 329 360 311 401 231 401 c 0
 163 401 119 386 100 380 c 1
 74 460 l 1
 104 472 147 492 230 492 c 0
 321 492 378 470 412 433 c 1
 452 471 503 492 557 492 c 0
EndSplineSet
Validated: 1
EndChar
StartChar: ccedilla
Encoding: 231 231 125
Width: 499
VWidth: 1023
UnlinkRmOvrlpSave: 1
Flags: HMW
LayerCount: 3
Back
SplineSet
331.543 -163.574 m 0
 331.543 -127.93 291.016 -122.07 219.727 -100.098 c 1
 244.629 -6.83594 l 1
 155.762 6.83594 63.4766 65.4297 63.4766 229.98 c 0
 63.4766 427.246 185.547 491.211 297.363 491.211 c 0
 343.75 491.211 390.137 480.957 432.617 462.402 c 1
 413.086 403.809 l 1
 378.906 415.527 343.262 422.363 307.129 422.363 c 0
 228.027 422.363 141.113 387.207 141.113 247.07 c 0
 141.113 94.2383 231.445 56.1523 315.918 56.1523 c 0
 347.168 56.1523 378.418 62.0117 407.715 72.2656 c 1
 427.246 17.0898 l 1
 383.301 0 341.309 -7.32422 306.152 -9.27734 c 1
 290.527 -70.8008 l 1
 312.988 -77.6367 380.371 -91.8633 380.371 -158.27 c 0
 380.371 -200.262 345.703 -247.625 280.762 -247.625 c 0
 244.629 -247.625 195.801 -230.535 169.434 -222.723 c 1
 182.129 -178.289 l 1
 240.723 -195.867 262.695 -201.238 282.715 -201.238 c 0
 313.965 -201.238 331.543 -183.105 331.543 -163.574 c 0
EndSplineSet
Fore
Refer: 579 807 N 1 0 0 1 270 2 2
Refer: 18 99 N 1 0 0 1 0 0 3
Validated: 5
EndChar
StartChar: eacute
Encoding: 233 233 172
GlifName: eacute
Width: 530
VWidth: 0
Flags: HMW
LayerCount: 2
Back
SplineSet
325 730 m 1
 376 687 l 1
 246 536 l 1
 201 575 l 1
 325 730 l 1
265 494 m 3
 392 494 463 409 463 270 c 2
 463 226 l 1
 458 218 l 1
 127 218 l 1
 129 104 187 58 311 58 c 3
 353 58 379 64 426 79 c 1
 444 17 l 1
 395 0 343 -10 289 -10 c 3
 132 -10 48 77 48 233 c 3
 48 375 125 494 265 494 c 3
381 281 m 1
 381 360 347 426 272 426 c 3
 179 426 138 358 129 281 c 1
 381 281 l 1
EndSplineSet
Fore
Refer: 568 769 N 1 0 0 1 264 -1 2
Refer: 2 101 N 1 0 0 1 0 0 3
Validated: 1
EndChar
StartChar: iacute
Encoding: 237 237 175
Width: 295
VWidth: 1023
Flags: HMW
LayerCount: 3
Back
SplineSet
176 730 m 1
 227 687 l 1
 97 536 l 1
 52 575 l 1
 176 730 l 1
70 482 m 1
 150 482 l 1
 150 0 l 5
 70 0 l 5
 70 482 l 1
EndSplineSet
Fore
Refer: 568 769 N 1 0 0 1 148 0 2
Refer: 140 305 N 1 0 0 1 0 0 3
EndChar
StartChar: eth
Encoding: 240 240 186
Width: 691
VWidth: 1023
Flags: MW
AnchorPoint: "cedilla" 322 0 basechar 0
AnchorPoint: "above" 322 670 basechar 0
AnchorPoint: "below" 322 0 basechar 0
LayerCount: 3
Fore
SplineSet
181 255 m 0
 181 162 253 96 336 96 c 0
 382 96 463 117 481 235 c 0
 485 267 486 301 486 327 c 2
 486 346 l 1
 409 386 360 394 327 394 c 0
 244 394 181 339 181 255 c 0
290 711 m 2
 348 697 403 675 452 645 c 1
 551 700 l 1
 598 619 l 1
 527 578 l 1
 588 508 604 426 604 332 c 0
 604 160 566 -10 327 -10 c 0
 166 -10 63 74 63 212 c 0
 63 348 157 464 315 464 c 0
 349 464 399 460 473 431 c 1
 462 463 443 491 412 518 c 1
 307 465 l 1
 253 546 l 1
 320 580 l 1
 295 592 269 602 242 610 c 2
 217 618 l 1
 271 716 l 1
 290 711 l 2
EndSplineSet
Validated: 1
EndChar
StartChar: ograve
Encoding: 242 242 177
GlifName: ograve
Width: 578
VWidth: 0
Flags: HMW
LayerCount: 2
Back
SplineSet
215 730 m 1
 339 575 l 1
 294 536 l 1
 164 687 l 1
 215 730 l 1
280 420 m 3
 180 420 131 330 131 240 c 3
 131 150 180 64 280 64 c 3
 380 64 433 150 433 240 c 3
 433 330 380 420 280 420 c 3
280 -10 m 3
 130 -10 48 90 48 240 c 3
 48 390 130 494 280 494 c 3
 430 494 516 390 516 240 c 3
 516 90 430 -10 280 -10 c 3
EndSplineSet
Fore
Refer: 567 768 N 1 0 0 1 289 0.2 2
Refer: 6 111 N 1 0 0 1 0 0 3
Validated: 1
EndChar
StartChar: odieresis
Encoding: 246 246 137
GlifName: odieresis
Width: 578
VWidth: 0
Flags: HMW
LayerCount: 2
Back
SplineSet
372 530 m 0
 344 530 319 555 319 583 c 0
 319 611 344 636 372 636 c 0
 400 636 425 611 425 583 c 0
 425 555 400 530 372 530 c 0
188 530 m 0
 160 530 135 555 135 583 c 0
 135 611 160 636 188 636 c 0
 216 636 241 611 241 583 c 0
 241 555 216 530 188 530 c 0
280 420 m 3
 180 420 131 330 131 240 c 3
 131 150 180 64 280 64 c 3
 380 64 433 150 433 240 c 3
 433 330 380 420 280 420 c 3
280 -10 m 3
 130 -10 48 90 48 240 c 3
 48 390 130 494 280 494 c 3
 430 494 516 390 516 240 c 3
 516 90 430 -10 280 -10 c 3
EndSplineSet
Fore
Refer: 573 776 N 1 0 0 1 289 0.2 2
Refer: 6 111 N 1 0 0 1 0 0 3
Validated: 1
EndChar
StartChar: divide
Encoding: 247 247 115
Width: 763
VWidth: 1023
Flags: MW
LayerCount: 3
Fore
SplineSet
307 602 m 1
 457 602 l 1
 457 467 l 1
 307 467 l 1
 307 602 l 1
307 176 m 1
 457 176 l 1
 457 41 l 1
 307 41 l 1
 307 176 l 1
61 375 m 1
 703 375 l 1
 703 267 l 1
 61 267 l 1
 61 375 l 1
EndSplineSet
Validated: 1
EndChar
StartChar: oslash
Encoding: 248 248 116
Width: 671
VWidth: 1023
Flags: MW
AnchorPoint: "cedilla" 339 0 basechar 0
AnchorPoint: "above" 339 482 basechar 0
AnchorPoint: "below" 339 0 basechar 0
LayerCount: 3
Back
SplineSet
576.172 494.141 m 1
 633.301 442.871 l 1
 577.637 389.648 l 1
 602.539 352.051 616.211 305.176 616.211 250.488 c 0
 616.211 89.8438 506.348 -9.76562 338.379 -9.76562 c 0
 271.973 -9.76562 211.914 7.32422 165.527 40.0391 c 1
 110.84 -15.625 l 1
 53.7109 35.6445 l 1
 112.305 91.3086 l 1
 85.9375 130.371 71.7773 179.199 71.7773 235.84 c 0
 71.7773 392.578 177.734 491.699 347.168 491.699 c 0
 414.551 491.699 477.051 474.609 524.414 440.918 c 1
 576.172 494.141 l 1
339.355 383.301 m 0
 268.066 383.301 192.383 333.008 192.383 229.492 c 0
 192.383 201.66 197.266 175.781 207.031 152.832 c 1
 429.688 354.492 l 1
 402.344 374.023 370.605 383.301 339.355 383.301 c 0
496.094 254.883 m 0
 496.094 283.203 490.723 307.617 482.422 328.125 c 1
 259.277 126.465 l 1
 283.691 108.887 313.965 98.6328 348.145 98.6328 c 0
 429.688 98.6328 496.094 158.691 496.094 254.883 c 0
EndSplineSet
Fore
SplineSet
578 498 m 1
 630 440 l 1
 570 386 l 1
 594 349 608 304 608 250 c 0
 608 89 499 -10 330 -10 c 0
 269 -10 215 3 173 28 c 1
 112 -27 l 1
 60 31 l 1
 114 80 l 1
 82 120 63 173 63 236 c 0
 63 393 169 492 339 492 c 0
 409 492 470 475 516 442 c 1
 578 498 l 1
331 383 m 0
 259 383 182 340 182 249 c 0
 182 218 190 188 207 164 c 1
 423 358 l 1
 396 375 362 383 331 383 c 0
476 300 m 1
 268 113 l 1
 289 104 313 99 340 99 c 0
 423 99 490 152 490 236 c 0
 490 261 485 281 476 300 c 1
EndSplineSet
Validated: 1
EndChar
StartChar: ugrave
Encoding: 249 249 181
GlifName: ugrave
Width: 559
VWidth: 0
Flags: HMW
LayerCount: 2
Back
SplineSet
200 730 m 1
 324 575 l 1
 279 536 l 1
 149 687 l 1
 200 730 l 1
153 173 m 2
 153 93 180 57 258 57 c 3
 296 57 341 69 390 92 c 1
 390 482 l 1
 473 482 l 1
 473 0 l 1
 411 0 l 1
 395 32 l 1
 334 0 280 -10 229 -10 c 3
 125 -10 70 51 70 153 c 2
 70 482 l 1
 153 482 l 1
 153 173 l 2
EndSplineSet
Fore
Refer: 567 768 N 1 0 0 1 277 -0.8 2
Refer: 14 117 N 1 0 0 1 0 0 3
Validated: 1
EndChar
StartChar: ucircumflex
Encoding: 251 251 183
GlifName: ucircumflex
Width: 559
VWidth: 0
Flags: HMW
LayerCount: 2
Back
SplineSet
265 717 m 1
 403 580 l 1
 360 536 l 1
 265 634 l 25
 170 536 l 25
 127 580 l 1
 265 717 l 1
153 173 m 2
 153 93 180 57 258 57 c 3
 296 57 341 69 390 92 c 1
 390 482 l 1
 473 482 l 1
 473 0 l 1
 411 0 l 1
 395 32 l 1
 334 0 280 -10 229 -10 c 3
 125 -10 70 51 70 153 c 2
 70 482 l 1
 153 482 l 1
 153 173 l 2
EndSplineSet
Fore
Refer: 331 770 N 1 0 0 1 277 -0.8 2
Refer: 14 117 N 1 0 0 1 0 0 3
Validated: 1
EndChar
StartChar: udieresis
Encoding: 252 252 138
GlifName: udieresis
Width: 559
VWidth: 0
Flags: HMW
AnchorPoint: "above" 274 685 basechar 0
LayerCount: 2
Back
SplineSet
357 530 m 0
 329 530 304 555 304 583 c 0
 304 611 329 636 357 636 c 0
 385 636 410 611 410 583 c 0
 410 555 385 530 357 530 c 0
173 530 m 0
 145 530 120 555 120 583 c 0
 120 611 145 636 173 636 c 0
 201 636 226 611 226 583 c 0
 226 555 201 530 173 530 c 0
153 173 m 2
 153 93 180 57 258 57 c 3
 296 57 341 69 390 92 c 1
 390 482 l 1
 473 482 l 1
 473 0 l 1
 411 0 l 1
 395 32 l 1
 334 0 280 -10 229 -10 c 3
 125 -10 70 51 70 153 c 2
 70 482 l 1
 153 482 l 1
 153 173 l 2
EndSplineSet
Fore
Refer: 573 776 N 1 0 0 1 277 -0.8 2
Refer: 14 117 N 1 0 0 1 0 0 3
Validated: 1
EndChar
StartChar: thorn
Encoding: 254 254 187
Width: 566
Flags: HMW
LayerCount: 3
Back
SplineSet
280 -10 m 0
 223 -10 180 7 145 41 c 1
 145 -259 l 1
 65 -259 l 1
 65 694 l 1
 145 694 l 1
 145 432 l 1
 180 470 223 489 285 489 c 0
 358 489 414 457 450 415 c 0
 486 372 505 315 505 245 c 0
 505 136 449 44 366 7 c 0
 339 -5 310 -10 280 -10 c 0
272 58 m 0
 365 58 427 134 427 226 c 0
 427 275 419 313 402 340 c 0
 369 393 326 420 272 421 c 1
 176 421 140 337 140 238 c 0
 140 182 147 142 162 119 c 0
 188 78 225 58 272 58 c 0
EndSplineSet
Fore
SplineSet
180 718 m 1
 180 459 l 1
 208 473 251 492 301 492 c 3
 394 492 531 433 531 238 c 3
 531 83 442 -10 285 -10 c 3
 243 -10 213 -2 180 15 c 1
 180 -259 l 1
 60 -259 l 1
 60 718 l 1
 180 718 l 1
268 395 m 3
 242 395 213 388 181 376 c 1
 181 106 l 1
 203 93 230 82 264 82 c 3
 344 82 408 125 408 238 c 3
 408 363 348 395 268 395 c 3
EndSplineSet
Validated: 1
EndChar
StartChar: Aogonek
Encoding: 260 260 339
Width: 666
VWidth: 0
UnlinkRmOvrlpSave: 1
Flags: HMW
LayerCount: 2
Back
SplineSet
592 0 m 1
 565 -15 406 -84 406 -152 c 3
 406 -179 421 -200 446 -200 c 3
 465 -200 490 -194 500 -189 c 1
 516 -244 l 1
 510 -247 477 -262 418 -262 c 3
 360 -262 329 -213 329 -174 c 3
 329 -119 354 -91 367 -76 c 0
 403 -34 497 11 497 11 c 1
 529 9 560 2 592 0 c 1
592 0 m 1
 561 0 530 0 499 0 c 1
 433 202 l 1
 169 202 l 1
 103 0 l 1
 17 0 l 1
 252 692 l 1
 356 692 l 5
 592 0 l 1
301 606 m 1
 193 276 l 1
 409 276 l 1
 301 606 l 1
EndSplineSet
Fore
SplineSet
656 0 m 1
 620 -17 487 -103 487 -144 c 3
 487 -160 500 -173 531 -173 c 3
 553 -173 579 -165 579 -165 c 1
 597 -250 l 1
 585 -254 555 -262 510 -262 c 3
 407 -262 375 -208 375 -168 c 3
 375 -114 405 -85 418 -72 c 0
 460 -30 530 17 532 18 c 1
 595 0 l 1
 656 0 l 1
EndSplineSet
Refer: 32 65 N 1 0 0 1 0 0 3
Validated: 5
EndChar
StartChar: cdotaccent
Encoding: 267 267 235
GlifName: cdotaccent
Width: 513
VWidth: 0
Flags: HMW
LayerCount: 2
Back
SplineSet
260 530 m 0
 231 530 207 554 207 583 c 0
 207 612 231 636 260 636 c 0
 289 636 313 612 313 583 c 0
 313 554 289 530 260 530 c 0
280 -10 m 3
 130 -10 48 90 48 240 c 3
 48 390 130 494 280 494 c 3
 330 494 378 484 422 465 c 1
 403 403 l 1
 366 416 310 420 280 420 c 3
 190 420 131 340 131 240 c 3
 131 140 190 64 280 64 c 3
 310 64 371 69 402 80 c 1
 420 15 l 1
 372 -5 330 -10 280 -10 c 3
EndSplineSet
Fore
Refer: 572 775 N 1 0 0 1 258 0 2
Refer: 18 99 N 1 0 0 1 0 0 3
Validated: 1
EndChar
StartChar: Dcaron
Encoding: 270 270 238
Width: 734
VWidth: 0
Flags: HMW
LayerCount: 3
Back
SplineSet
376.953 693.848 m 5xb8
 706.543 693.848 786.133 520.02 786.133 367.188 c 4
 786.133 226.074 729.98 61.0352 514.648 15.1367 c 4
 444.824 0 375 0 315.918 0 c 4
 314.453 0 313.477 0 312.012 0 c 6
 141.602 0 l 5
 141.602 693.848 l 5xb8
 376.953 693.848 l 5xb8
379.883 580.566 m 6xd8
 264.648 580.566 l 5xb8
 264.648 113.281 l 5
 345.703 113.281 l 6
 431.152 113.281 560.059 115.723 626.953 220.703 c 4
 641.602 243.652 662.109 286.133 662.109 351.074 c 4
 662.109 499.023 548.34 563.965 451.172 577.148 c 4
 428.711 580.078 404.785 580.566 379.883 580.566 c 6xd8
440.43 711.426 m 5
 279.297 881.348 l 5
 353.516 952.148 l 5
 448.73 857.422 l 5
 549.316 950.684 l 5
 634.277 885.742 l 5
 440.43 711.426 l 5
EndSplineSet
Fore
Refer: 579 780 N 1 0 0 1 352 186 2
Refer: 48 68 N 1 0 0 1 0 0 3
Validated: 1
EndChar
StartChar: Dcroat
Encoding: 272 272 240
GlifName: D_croat
Width: 782
VWidth: 1023
UnlinkRmOvrlpSave: 1
Flags: HMW
LayerCount: 2
Back
SplineSet
398.926 693.848 m 5xdc
 728.516 693.848 808.105 520.02 808.105 367.188 c 4
 808.105 226.074 751.953 61.0352 536.621 15.1367 c 4
 466.797 0 396.973 0 337.891 0 c 4
 336.426 0 335.449 0 333.984 0 c 6
 163.574 0 l 5
 163.574 301.27 l 5
 57.1289 301.27 l 5
 57.1289 414.551 l 5
 163.574 414.551 l 5
 163.574 693.848 l 5xdc
 163.574 693.848 236.328 702.637 306.152 702.637 c 4xec
 340.82 702.637 375 700.684 398.926 693.848 c 5xdc
413.574 301.27 m 5
 286.621 301.27 l 5
 286.621 113.281 l 5
 367.676 113.281 l 6
 453.125 113.281 582.031 115.723 648.926 220.703 c 4
 663.574 243.652 684.082 286.133 684.082 351.074 c 4
 684.082 499.023 570.312 563.965 473.145 577.148 c 4
 450.684 580.078 426.758 580.566 401.855 580.566 c 6xec
 286.621 580.566 l 5
 286.621 414.551 l 5
 413.574 414.551 l 5
 413.574 301.27 l 5
EndSplineSet
Fore
Refer: 188 208 N 1 0 0 1 0 0 2
Validated: 5
EndChar
StartChar: dcroat
Encoding: 273 273 336
Width: 612
VWidth: 1023
UnlinkRmOvrlpSave: 1
Flags: HMW
LayerCount: 3
Back
SplineSet
303.223 56.1523 m 0xbe
 344.727 56.1523 381.836 69.8242 407.227 83.4961 c 1
 407.227 405.762 l 1
 383.301 416.504 344.238 429.199 302.246 429.199 c 0
 232.91 429.199 141.602 392.578 141.602 245.605 c 0
 141.602 91.7969 238.77 56.1523 303.223 56.1523 c 0xbe
63.4766 232.91 m 0
 63.4766 403.32 163.574 492.188 290.527 492.188 c 0
 337.402 492.188 375 480.469 407.227 466.309 c 1
 407.227 574.707 l 1
 276.367 574.707 l 1
 276.367 637.695 l 1
 407.227 637.695 l 1
 407.227 737.793 l 1
 487.305 737.793 l 1
 487.305 637.695 l 1
 560.547 637.695 l 1
 560.547 574.707 l 1
 487.305 574.707 l 1
 487.305 0 l 1
 431.641 0 l 1x7e
 418.457 30.2734 l 1
 369.629 1.46484 319.336 -9.76562 276.855 -9.76562 c 0
 181.152 -9.76562 63.4766 49.8047 63.4766 232.91 c 0
EndSplineSet
Fore
SplineSet
245 643 m 29
 581 643 l 29
 581 540 l 29
 245 540 l 29
 245 643 l 29
EndSplineSet
Refer: 1 100 N 1 0 0 1 0 0 2
Validated: 5
EndChar
StartChar: emacron
Encoding: 275 275 242
GlifName: emacron
Width: 530
VWidth: 0
Flags: HMW
LayerCount: 2
Back
SplineSet
117 617 m 5
 401 617 l 5
 401 553 l 5
 117 553 l 5
 117 617 l 5
265 494 m 3
 392 494 463 409 463 270 c 2
 463 226 l 1
 458 218 l 1
 127 218 l 1
 129 104 187 58 311 58 c 3
 353 58 379 64 426 79 c 1
 444 17 l 1
 395 0 343 -10 289 -10 c 3
 132 -10 48 77 48 233 c 3
 48 375 125 494 265 494 c 3
381 281 m 1
 381 360 347 426 272 426 c 3
 179 426 138 358 129 281 c 1
 381 281 l 1
EndSplineSet
Fore
Refer: 570 772 N 1 0 0 1 264 -1 2
Refer: 2 101 N 1 0 0 1 0 0 3
Validated: 1
EndChar
StartChar: edotaccent
Encoding: 279 279 246
GlifName: edotaccent
Width: 530
VWidth: 0
Flags: HMW
LayerCount: 2
Back
SplineSet
259 530 m 0
 230 530 206 554 206 583 c 0
 206 612 230 636 259 636 c 0
 288 636 312 612 312 583 c 0
 312 554 288 530 259 530 c 0
265 494 m 3
 392 494 463 409 463 270 c 2
 463 226 l 1
 458 218 l 1
 127 218 l 1
 129 104 187 58 311 58 c 3
 353 58 379 64 426 79 c 1
 444 17 l 1
 395 0 343 -10 289 -10 c 3
 132 -10 48 77 48 233 c 3
 48 375 125 494 265 494 c 3
381 281 m 1
 381 360 347 426 272 426 c 3
 179 426 138 358 129 281 c 1
 381 281 l 1
EndSplineSet
Fore
Refer: 572 775 N 1 0 0 1 264 -1 2
Refer: 2 101 N 1 0 0 1 0 0 3
Validated: 1
EndChar
StartChar: eogonek
Encoding: 281 281 342
Width: 513
VWidth: 0
UnlinkRmOvrlpSave: 1
Flags: HMW
AnchorPoint: "above" 272 482 basechar 0
LayerCount: 2
Back
SplineSet
444 17 m 1
 417 2 285 -84 285 -152 c 3
 285 -179 300 -200 325 -200 c 3
 344 -200 369 -194 379 -189 c 1
 395 -244 l 1
 389 -247 356 -262 297 -262 c 3
 239 -262 208 -213 208 -174 c 3
 208 -119 242 -77 255 -62 c 0
 291 -20 378 36 378 36 c 2
 415 26 l 1
 444 17 l 1
265 494 m 3
 392 494 463 409 463 270 c 2
 463 226 l 1
 458 218 l 1
 127 218 l 1
 129 104 187 58 311 58 c 3
 353 58 379 64 426 79 c 1
 444 17 l 1
 395 0 343 -10 289 -10 c 3
 132 -10 48 77 48 233 c 3
 48 375 125 494 265 494 c 3
381 281 m 1
 381 360 347 426 272 426 c 3
 179 426 138 358 129 281 c 1
 381 281 l 1
EndSplineSet
Fore
SplineSet
462 20 m 1
 425 3 290 -106 290 -141 c 3
 290 -157 303 -170 334 -170 c 3
 356 -170 382 -162 382 -162 c 1
 400 -247 l 1
 388 -251 358 -259 313 -259 c 3
 210 -259 178 -205 178 -165 c 3
 178 -111 208 -82 221 -69 c 0
 263 -27 300 2 302 3 c 1
 398 55 l 1
 462 20 l 1
EndSplineSet
Refer: 2 101 N 1 0 0 1 0 0 3
Validated: 5
EndChar
StartChar: uni0122
Encoding: 290 290 255
GlifName: uni0122
Width: 734
VWidth: 0
Flags: HMW
LayerCount: 2
Back
SplineSet
349 -82 m 1
 415 -93 l 1
 376 -276 l 5
 323 -265 l 1
 349 -82 l 1
584 601 m 1
 534 621 451 632 381 632 c 3
 221 632 138 486 138 346 c 3
 138 206 221 64 381 64 c 3
 541 64 573 123 573 123 c 1
 573 300 l 1
 379 300 l 1
 379 374 l 1
 654 374 l 1
 654 89 l 1
 654 89 581 -10 381 -10 c 3
 181 -10 55 146 55 346 c 3
 55 546 181 706 381 706 c 3
 471 706 537 696 607 671 c 1
 584 601 l 1
EndSplineSet
Fore
Refer: 587 806 N 1 0 0 1 408.5 -32 2
Refer: 28 71 N 1 0 0 1 0 0 3
Validated: 1
EndChar
StartChar: Hbar
Encoding: 294 294 334
Width: 824
VWidth: 1023
UnlinkRmOvrlpSave: 1
Flags: HMW
LayerCount: 3
Fore
SplineSet
30 612 m 25
 794 612 l 29
 794 510 l 29
 30 510 l 29
 30 612 l 25
EndSplineSet
Refer: 29 72 N 1 0 0 1 41 0 2
Validated: 5
EndChar
StartChar: hbar
Encoding: 295 295 335
Width: 572
VWidth: 1023
UnlinkRmOvrlpSave: 1
Flags: HMW
LayerCount: 3
Back
SplineSet
291.85546875 56.15234375 m 4xbe
 250.3515625 56.15234375 213.2421875 69.82421875 187.8515625 83.49609375 c 5
 187.8515625 405.76171875 l 5
 211.77734375 416.50390625 250.83984375 429.19921875 292.83203125 429.19921875 c 4
 362.16796875 429.19921875 453.4765625 392.578125 453.4765625 245.60546875 c 4
 453.4765625 91.796875 356.30859375 56.15234375 291.85546875 56.15234375 c 4xbe
531.6015625 232.91015625 m 4
 531.6015625 403.3203125 431.50390625 492.188476562 304.55078125 492.188476562 c 4
 257.67578125 492.188476562 220.078125 480.46875 187.8515625 466.30859375 c 5
 187.8515625 574.70703125 l 5
 318.7109375 574.70703125 l 5
 318.7109375 637.6953125 l 5
 187.8515625 637.6953125 l 5
 187.8515625 737.79296875 l 5
 107.7734375 737.79296875 l 5
 107.7734375 637.6953125 l 5
 41.85546875 637.6953125 l 5
 41.85546875 574.70703125 l 5
 107.7734375 574.70703125 l 5
 107.7734375 0 l 5
 163.438476562 0 l 5x7e
 176.62109375 30.2734375 l 5
 225.44921875 1.46484375 275.7421875 -9.765625 318.22265625 -9.765625 c 4
 413.92578125 -9.765625 531.6015625 49.8046875 531.6015625 232.91015625 c 4
EndSplineSet
Fore
SplineSet
10 638 m 5
 330 638 l 5
 330 535 l 5
 10 535 l 5
 10 638 l 5
EndSplineSet
Refer: 3 104 N 1 0 0 1 15 0 2
Validated: 5
EndChar
StartChar: Itilde
Encoding: 296 296 258
GlifName: I_tilde
Width: 263
VWidth: 0
Flags: HMW
LayerCount: 2
Back
SplineSet
148.926 795.898 m 6
 130.371 729.004 l 5
 41.0156 752.93 l 5
 59.082 820.312 l 6
 62.5 833.008 80.5664 911.133 165.527 911.133 c 4
 213.379 911.133 235.84 878.418 244.141 866.699 c 6
 267.578 835.938 l 6
 273.438 829.102 279.785 820.801 284.18 818.848 c 5
 288.086 822.754 292.969 835.449 295.41 846.68 c 5
 314.453 915.039 l 5
 403.32 890.137 l 5
 385.742 823.73 l 6
 379.395 800.781 356.445 716.797 277.344 716.797 c 4
 229.492 716.797 206.055 754.395 200.195 762.207 c 6
 176.758 793.457 l 6
 168.457 803.711 160.156 811.035 155.762 811.523 c 5
 153.32 809.57 150.879 802.734 148.926 795.898 c 6
160.645 0 m 5
 160.645 693.848 l 5
 283.691 693.848 l 5
 283.691 0 l 5
 160.645 0 l 5
284.668 818.848 m 5
 284.668 818.848 l 5
EndSplineSet
Fore
Refer: 569 771 N 1 0 0 1 132 210 2
Refer: 40 73 N 1 0 0 1 0 0 3
Validated: 1
EndChar
StartChar: itilde
Encoding: 297 297 259
Width: 295
VWidth: 0
Flags: HMW
LayerCount: 3
Back
SplineSet
367.188 609.375 m 4
 401.855 609.375 416.504 650.879 440.43 698.242 c 5
 491.211 675.293 l 5
 465.82 623.047 437.5 549.805 367.188 549.805 c 4
 290.039 549.805 256.348 637.695 211.426 637.695 c 4
 176.758 637.695 162.598 596.68 138.672 548.828 c 5
 86.9141 571.777 l 5
 112.305 624.023 141.113 697.266 211.426 697.266 c 4
 288.574 697.266 322.266 609.375 367.188 609.375 c 4
EndSplineSet
Fore
Refer: 572 771 N 1 0 0 1 148 0 2
Refer: 140 305 N 1 0 0 1 0 0 3
Validated: 1
EndChar
StartChar: Ibreve
Encoding: 300 300 262
GlifName: I_breve
Width: 263
VWidth: 0
Flags: HMW
LayerCount: 2
Back
SplineSet
40.5273 872.559 m 5
 135.254 923.34 l 5
 143.555 901.855 l 6
 159.668 859.375 188.965 832.52 219.727 832.52 c 4
 252.93 832.52 281.738 858.398 356.934 905.762 c 5
 369.629 922.852 l 5
 444.336 860.84 l 5
 436.035 846.191 l 6
 394.043 775.391 299.805 720.215 204.59 720.215 c 4
 109.863 720.215 63.9648 796.875 45.4102 856.934 c 6
 40.5273 872.559 l 5
EndSplineSet
Fore
Refer: 571 774 N 1 0 0 1 132 210 2
Refer: 40 73 N 1 0 0 1 0 0 3
Validated: 1
EndChar
StartChar: iogonek
Encoding: 303 303 344
Width: 295
VWidth: 0
UnlinkRmOvrlpSave: 1
Flags: HMW
LayerCount: 3
Fore
SplineSet
208 -43 m 1
 173 -60 47 -103 47 -144 c 3
 47 -160 60 -173 91 -173 c 3
 113 -173 139 -165 139 -165 c 1
 157 -250 l 1
 145 -254 115 -262 70 -262 c 3
 -33 -262 -65 -208 -65 -168 c 3
 -65 -114 -35 -85 -22 -72 c 0
 20 -30 86 -1 88 0 c 1
 208 0 l 1
 208 -43 l 1
EndSplineSet
Refer: 4 105 N 1 0 0 1 0 0 3
Validated: 5
EndChar
StartChar: dotlessi
Encoding: 305 305 140
Width: 295
VWidth: 1023
Flags: MW
AnchorPoint: "below" 148 0 basechar 0
AnchorPoint: "above" 148 482 basechar 0
LayerCount: 3
Fore
SplineSet
88 482 m 1
 208 482 l 1
 208 0 l 1
 88 0 l 1
 88 482 l 1
EndSplineSet
Validated: 1
EndChar
StartChar: IJ
Encoding: 306 306 265
Width: 941
VWidth: 0
Flags: MW
LayerCount: 3
Fore
SplineSet
156 694 m 1
 279 694 l 1
 279 0 l 1
 156 0 l 1
 156 694 l 1
720 694 m 1
 843 694 l 1
 843 250 l 2
 843 141 814 -8 569 -8 c 0
 535 -8 502 -4 469 4 c 2
 450 9 l 1
 471 117 l 1
 491 112 l 2
 512 107 535 105 556 105 c 0
 713 105 720 207 720 250 c 2
 720 694 l 1
EndSplineSet
Validated: 1
EndChar
StartChar: ij
Encoding: 307 307 266
Width: 591
VWidth: 0
Flags: MW
LayerCount: 3
Fore
SplineSet
382 482 m 1
 502 482 l 1
 502 -47 l 2
 502 -103 500 -209 354 -260 c 1
 333 -266 l 1
 271 -171 l 1
 295 -162 l 2
 369 -135 382 -96 382 -57 c 2
 382 482 l 1
375 694 m 1
 511 694 l 1
 511 562 l 1
 375 562 l 1
 375 694 l 1
88 482 m 1
 208 482 l 1
 208 0 l 1
 88 0 l 1
 88 482 l 1
81 694 m 1
 217 694 l 1
 217 562 l 1
 81 562 l 1
 81 694 l 1
EndSplineSet
Validated: 1
EndChar
StartChar: Jcircumflex
Encoding: 308 308 267
Width: 477
VWidth: 1023
Flags: HMW
LayerCount: 3
Back
SplineSet
388.184 952.637 m 5x20
 540.527 782.715 l 5
 465.82 711.914 l 5
 380.859 806.641 l 5
 283.691 713.379 l 5
 183.594 778.32 l 5
 388.184 952.637 l 5x20
323.242 693.848 m 5xa8
 446.289 693.848 l 5xa8
 446.289 215.332 l 6
 446.289 150.879 437.988 99.1211 387.207 54.1992 c 5
 359.863 31.25 297.363 -8.30078 172.852 -8.30078 c 4xb0
 139.16 -8.30078 104.98 -4.39453 72.2656 3.90625 c 6
 53.7109 8.78906 l 5
 74.2188 117.188 l 5x70
 94.7266 112.305 l 6
 115.234 107.422 137.695 104.98 159.18 104.98 c 4
 298.34 104.98 304.199 172.852 304.199 216.309 c 5xb0
 323.242 693.848 l 5xa8
EndSplineSet
Fore
Refer: 331 770 N 1 0 0 1 352 210 2
Refer: 46 74 N 1 0 0 1 0 0 3
Validated: 1
EndChar
StartChar: uni0136
Encoding: 310 310 269
GlifName: uni0136
Width: 637
VWidth: 0
Flags: HMW
LayerCount: 2
Back
SplineSet
287 -59 m 1
 353 -70 l 1
 314 -253 l 5
 261 -242 l 1
 287 -59 l 1
85 694 m 1
 168 694 l 1
 168 0 l 1
 85 0 l 1
 85 694 l 1
473 694 m 1
 577 694 l 1
 284 363 l 1
 596 0 l 1
 489 0 l 1
 179 356 l 1
 473 694 l 1
EndSplineSet
Fore
Refer: 587 806 N 1 0 0 1 320 0 2
Refer: 43 75 N 1 0 0 1 0 0 3
Validated: 1
EndChar
StartChar: uni0137
Encoding: 311 311 270
GlifName: uni0137
Width: 543
VWidth: 0
Flags: HMW
LayerCount: 2
Back
SplineSet
231 -59 m 1
 297 -70 l 1
 258 -253 l 5
 205 -242 l 1
 231 -59 l 1
75 718 m 1
 158 718 l 1
 158 0 l 1
 75 0 l 1
 75 718 l 1
379 482 m 1
 474 482 l 1
 264 267 l 1
 484 0 l 1
 384 0 l 1
 166 267 l 1
 379 482 l 1
EndSplineSet
Fore
Refer: 587 806 N 1 0 0 1 283 0 2
Refer: 22 107 N 1 0 0 1 0 0 3
Validated: 1
EndChar
StartChar: kgreenlandic
Encoding: 312 312 327
GlifName: kgreenlandic
Width: 571
VWidth: 0
Flags: HMW
AnchorPoint: "cedilla" 443 0 basechar 0
AnchorPoint: "above" 305 482 basechar 0
AnchorPoint: "below" 305 0 basechar 0
LayerCount: 2
Back
SplineSet
71 482 m 1
 151 482 l 1
 151 0 l 1
 71 0 l 1
 71 482 l 1
363 482 m 1
 446 482 l 1
 250 257 l 1
 472 0 l 1
 374 0 l 1
 159 247 l 1
 363 482 l 1
EndSplineSet
Fore
SplineSet
186 271 m 1
 409 482 l 1
 545 482 l 1
 314 256 l 1
 571 0 l 1
 420 0 l 1
 186 223 l 1
 186 0 l 1
 66 0 l 1
 66 482 l 1
 186 482 l 1
 186 271 l 1
EndSplineSet
Validated: 1
EndChar
StartChar: uni013B
Encoding: 315 315 273
GlifName: uni013B_
Width: 521
VWidth: 0
Flags: HMW
LayerCount: 2
Back
SplineSet
227 -59 m 1
 293 -70 l 1
 254 -253 l 5
 201 -242 l 1
 227 -59 l 1
85 692 m 1
 168 692 l 1
 168 73 l 1
 479 73 l 1
 479 0 l 1
 85 0 l 1
 85 692 l 1
EndSplineSet
Fore
Refer: 587 806 N 1 0 0 1 292 0 2
Refer: 33 76 N 1 0 0 1 0 0 3
Validated: 1
EndChar
StartChar: uni013C
Encoding: 316 316 274
GlifName: uni013C_
Width: 304
VWidth: 0
Flags: HMW
LayerCount: 2
Back
SplineSet
142 -82 m 1
 208 -93 l 1
 169 -276 l 5
 116 -265 l 1
 142 -82 l 1
214 65 m 3
 233 65 241 67 254 70 c 5
 271 14 l 5
 254 4 221 -10 174 -10 c 3
 111 -10 70 37 70 105 c 1
 70 718 l 1
 150 718 l 1
 150 134 l 2
 150 97 152 65 214 65 c 3
EndSplineSet
Fore
Refer: 587 806 N 1 0 0 1 159 0 2
Refer: 10 108 N 1 0 0 1 0 0 3
Validated: 1
EndChar
StartChar: Lslash
Encoding: 321 321 325
Width: 580
VWidth: 1023
UnlinkRmOvrlpSave: 1
Flags: HMW
LayerCount: 3
Fore
SplineSet
62 269 m 5
 18 367 l 5
 348 533 l 5
 392 434 l 5
 62 269 l 5
EndSplineSet
Refer: 33 76 N 1 0 0 1 24 0 2
Validated: 5
EndChar
StartChar: lslash
Encoding: 322 322 326
Width: 303
VWidth: 1023
UnlinkRmOvrlpSave: 1
Flags: HMW
AnchorPoint: "aboveright" 300 670 basechar 0
AnchorPoint: "cedilla" 186 0 basechar 0
AnchorPoint: "above" 130 670 basechar 0
AnchorPoint: "below" 186 0 basechar 0
LayerCount: 3
Fore
SplineSet
4 193 m 1
 4 312 l 1
 296 461 l 1
 296 341 l 1
 4 193 l 1
EndSplineSet
Refer: 10 108 N 1 0 0 1 0 0 2
Validated: 5
EndChar
StartChar: Nacute
Encoding: 323 323 279
Width: 766
VWidth: 0
Flags: HMW
LayerCount: 3
Back
SplineSet
435 940 m 1
 486 897 l 1
 356 746 l 1
 311 785 l 1
 435 940 l 1
85 694 m 1
 190 694 l 1
 568 113 l 1
 568 694 l 1
 651 694 l 1
 651 0 l 1
 546 0 l 1
 168 582 l 1
 168 0 l 1
 85 0 l 1
 85 694 l 1
EndSplineSet
Fore
Refer: 568 769 N 1 0 0 1 384 210 2
Refer: 36 78 N 1 0 0 1 0 0 3
EndChar
StartChar: nacute
Encoding: 324 324 280
Width: 557
VWidth: 1023
Flags: HMW
LayerCount: 3
Back
SplineSet
333 730 m 1
 384 687 l 1
 254 536 l 1
 209 575 l 1
 333 730 l 1
390 307 m 2
 390 387 364 423 286 423 c 3
 248 423 202 411 153 388 c 1
 153 0 l 1
 70 0 l 1
 70 482 l 1
 128 482 l 1
 144 450 l 1
 205 482 264 494 315 494 c 3
 419 494 473 429 473 327 c 2
 473 0 l 1
 390 0 l 1
 390 307 l 2
EndSplineSet
Fore
Refer: 568 769 N 1 0 0 1 282 0 2
Refer: 5 110 N 1 0 0 1 0 0 3
EndChar
StartChar: uni0145
Encoding: 325 325 281
GlifName: uni0145
Width: 746
VWidth: 0
Flags: HMW
LayerCount: 2
Back
SplineSet
341 -59 m 1
 407 -70 l 1
 368 -253 l 5
 315 -242 l 1
 341 -59 l 1
85 694 m 1
 190 694 l 1
 568 113 l 1
 568 694 l 1
 651 694 l 1
 651 0 l 1
 546 0 l 1
 168 582 l 1
 168 0 l 1
 85 0 l 1
 85 694 l 1
EndSplineSet
Fore
Refer: 587 806 N 1 0 0 1 374 0 2
Refer: 36 78 N 1 0 0 1 0 0 3
Validated: 1
EndChar
StartChar: uni0146
Encoding: 326 326 282
GlifName: uni0146
Width: 575
VWidth: 0
Flags: HMW
LayerCount: 2
Back
SplineSet
239 -59 m 1
 305 -70 l 1
 266 -253 l 5
 213 -242 l 1
 239 -59 l 1
390 307 m 2
 390 387 364 423 286 423 c 3
 248 423 202 411 153 388 c 1
 153 0 l 1
 70 0 l 1
 70 482 l 1
 128 482 l 1
 144 450 l 1
 205 482 264 494 315 494 c 3
 419 494 473 429 473 327 c 2
 473 0 l 1
 390 0 l 1
 390 307 l 2
EndSplineSet
Fore
Refer: 587 806 N 1 0 0 1 285 0 2
Refer: 5 110 N 1 0 0 1 0 0 3
Validated: 1
EndChar
StartChar: napostrophe
Encoding: 329 329 328
Width: 737
VWidth: 1023
Flags: MW
LayerCount: 3
Fore
SplineSet
170 482 m 1
 260 482 l 1
 274 449 l 1
 353 483 419 492 463 492 c 0
 627 492 649 383 649 285 c 2
 649 0 l 1
 529 0 l 1
 529 283 l 2
 529 317 524 380 421 380 c 0
 372 380 321 364 291 353 c 1
 291 0 l 1
 170 0 l 1
 170 482 l 1
34 694 m 1
 147 694 l 1
 147 442 l 1
 34 442 l 1
 34 694 l 1
EndSplineSet
Validated: 1
EndChar
StartChar: Eng
Encoding: 330 330 324
Width: 800
VWidth: 1023
Flags: MW
AnchorPoint: "below" 392 -178 basechar 0
AnchorPoint: "cedilla" 392 -178 basechar 0
AnchorPoint: "above" 392 692 basechar 0
LayerCount: 3
Fore
SplineSet
597 14 m 2
 597 390 l 2
 597 450 597 579 430 579 c 0
 387 579 321 568 207 523 c 1
 207 0 l 1
 80 0 l 1
 80 694 l 1
 167 694 l 1
 188 632 l 1
 327 688 406 701 466 701 c 0
 617 701 701 615 717 500 c 0
 720 474 720 449 720 424 c 2
 720 3 l 2
 720 -137 629 -178 538 -178 c 0
 512 -178 472 -176 411 -161 c 2
 390 -156 l 1
 412 -58 l 1
 434 -62 l 2
 474 -69 499 -71 513 -71 c 0
 596 -71 597 -14 597 14 c 2
EndSplineSet
Validated: 1
EndChar
StartChar: eng
Encoding: 331 331 322
Width: 654
VWidth: 1023
Flags: MW
AnchorPoint: "cedilla" 322 -168 basechar 0
AnchorPoint: "above" 322 482 basechar 0
AnchorPoint: "below" 322 -168 basechar 0
LayerCount: 3
Fore
SplineSet
341 380 m 0
 317 380 273 375 213 353 c 1
 213 0 l 1
 88 0 l 1
 88 482 l 1
 177 482 l 1
 193 450 l 1
 274 484 339 492 379 492 c 0
 561 492 566 346 566 292 c 2
 566 12 l 2
 566 -84 535 -169 406 -169 c 0
 379 -169 337 -166 271 -151 c 2
 249 -146 l 1
 272 -49 l 1
 295 -52 l 1
 357 -61 363 -62 378 -62 c 0
 435 -62 446 -30 446 12 c 2
 446 284 l 2
 446 318 442 380 341 380 c 0
EndSplineSet
Validated: 1
EndChar
StartChar: Obreve
Encoding: 334 334 287
GlifName: O_breve
Width: 768
VWidth: 0
Flags: HMW
LayerCount: 2
Back
SplineSet
381 807 m 3
 421 807 449 836 467 873 c 1
 522 839 l 1
 501 782 451 740 381 740 c 3
 311 740 261 782 240 839 c 1
 295 873 l 1
 313 836 341 807 381 807 c 3
381 706 m 3
 581 706 707 546 707 346 c 3
 707 146 581 -10 381 -10 c 3
 181 -10 55 146 55 346 c 3
 55 546 181 706 381 706 c 3
381 64 m 3
 521 64 624 186 624 346 c 3
 624 506 521 632 381 632 c 3
 241 632 138 506 138 346 c 3
 138 186 241 64 381 64 c 3
EndSplineSet
Fore
Refer: 571 774 N 1 0 0 1 380 211 2
Refer: 31 79 N 1 0 0 1 0 0 3
Validated: 1
EndChar
StartChar: obreve
Encoding: 335 335 288
GlifName: obreve
Width: 578
VWidth: 0
Flags: HMW
LayerCount: 2
Back
SplineSet
280 597 m 3
 320 597 348 626 366 663 c 1
 421 629 l 1
 400 572 350 530 280 530 c 3
 210 530 160 572 139 629 c 1
 194 663 l 1
 212 626 240 597 280 597 c 3
280 420 m 3
 180 420 131 330 131 240 c 3
 131 150 180 64 280 64 c 3
 380 64 433 150 433 240 c 3
 433 330 380 420 280 420 c 3
280 -10 m 3
 130 -10 48 90 48 240 c 3
 48 390 130 494 280 494 c 3
 430 494 516 390 516 240 c 3
 516 90 430 -10 280 -10 c 3
EndSplineSet
Fore
Refer: 571 774 N 1 0 0 1 289 0.2 2
Refer: 6 111 N 1 0 0 1 0 0 3
Validated: 1
EndChar
StartChar: OE
Encoding: 338 338 118
Width: 1055
VWidth: 1023
Flags: MW
AnchorPoint: "cedilla" 602 0 basechar 0
AnchorPoint: "above" 602 692 basechar 0
AnchorPoint: "below" 602 0 basechar 0
LayerCount: 2
Back
SplineSet
188 332 m 0
 188 193 276 96 386 77 c 0
 402 74 424 73 451 73 c 2
 513 73 l 1
 513 621 l 1
 485 621 l 2
 445 621 414 619 393 616 c 0
 260 595 188 493 188 332 c 0
519 694 m 2
 897 694 l 1
 897 621 l 1
 596 621 l 1
 596 394 l 1
 871 394 l 1
 871 321 l 1
 596 321 l 1
 596 73 l 1
 897 73 l 1
 897 0 l 1
 475 0 l 2
 313 0 221 35 159 132 c 0
 123 188 105 258 105 342 c 0
 105 528 188 642 340 679 c 0
 381 689 441 694 519 694 c 2
EndSplineSet
Fore
SplineSet
532 113 m 1
 532 581 l 1
 524 581 l 2
 491 581 459 580 429 576 c 0
 301 558 228 473 228 343 c 3
 228 215 306 156 362 133 c 0
 406 114 444 113 488 113 c 2
 532 113 l 1
196 597 m 1
 296 691 442 694 560 694 c 2
 978 694 l 1
 978 581 l 1
 664 581 l 1
 664 414 l 1
 951 414 l 1
 951 301 l 1
 664 301 l 1
 664 113 l 1
 978 113 l 1
 978 0 l 1
 513 0 l 2
 443 0 369 2 300 28 c 0
 183 73 105 176 105 343 c 3
 105 495 167 568 196 597 c 1
EndSplineSet
Validated: 1
EndChar
StartChar: oe
Encoding: 339 339 119
Width: 960
VWidth: 0
Flags: MW
AnchorPoint: "cedilla" 496 0 basechar 0
AnchorPoint: "below" 496 0 basechar 0
AnchorPoint: "above" 496 482 basechar 0
LayerCount: 2
Back
SplineSet
278 421 m 0
 191 421 142 336 142 245 c 0
 142 172 169 115 212 83 c 0
 235 66 258 58 282 58 c 0
 334 58 360 75 385 102 c 0
 412 132 425 176 425 235 c 0
 425 338 373 421 278 421 c 0
740 269 m 0
 740 361 710 417 624 417 c 0
 586 417 555 402 534 370 c 0
 513 338 502 301 501 259 c 1
 740 259 l 1
 740 264 740 264 740 269 c 0
63 238 m 0
 63 384 147 489 290 489 c 0
 372 489 432 457 469 393 c 1
 510 456 568 487 645 487 c 0
 739 487 797 427 813 331 c 0
 816 313 817 285 817 246 c 2
 817 199 l 1
 499 199 l 1
 500 153 521 115 561 85 c 0
 590 63 628 53 674 53 c 0
 704 53 738 58 776 70 c 1
 789 16 l 1
 741 -2 693 -10 643 -10 c 0
 557 -10 495 18 458 78 c 1
 417 19 358 -10 281 -10 c 0
 143 -10 63 96 63 238 c 0
EndSplineSet
Fore
SplineSet
443 232 m 0
 443 340 372 381 311 381 c 0
 234 381 182 324 182 245 c 0
 182 164 236 98 319 98 c 0
 384 98 443 141 443 232 c 0
682 397 m 0
 612 397 575 341 568 279 c 1
 780 279 l 1
 776 369 737 397 682 397 c 0
700 487 m 0
 886 487 897 337 897 232 c 2
 897 179 l 1
 567 179 l 1
 578 135 629 84 731 84 c 0
 752 84 784 87 830 99 c 2
 851 104 l 1
 873 22 l 1
 856 17 l 1
 815 2 761 -11 697 -11 c 0
 594 -11 533 25 498 65 c 1
 452 17 387 -10 310 -10 c 0
 160 -10 63 86 63 237 c 0
 63 391 163 489 319 489 c 0
 403 489 470 459 512 408 c 1
 575 478 660 487 700 487 c 0
EndSplineSet
Validated: 1
EndChar
StartChar: uni0156
Encoding: 342 342 291
GlifName: uni0156
Width: 606
VWidth: 0
Flags: HMW
LayerCount: 2
Back
SplineSet
277 -59 m 1
 343 -70 l 1
 304 -253 l 5
 251 -242 l 1
 277 -59 l 1
487 0 m 1
 300 288 l 1
 168 288 l 1
 168 0 l 1
 85 0 l 1
 85 694 l 1
 303 694 l 2
 463 694 545 610 545 490 c 3
 545 400 481 324 386 298 c 1
 583 0 l 1
 487 0 l 1
257 362 m 3
 367 362 461 370 461 490 c 3
 461 600 378 619 258 619 c 2
 168 619 l 1
 168 362 l 1
 257 362 l 3
EndSplineSet
Fore
Refer: 587 806 N 1 0 0 1 300 0 2
Refer: 47 82 N 1 0 0 1 0 0 3
Validated: 1
EndChar
StartChar: uni0157
Encoding: 343 343 292
GlifName: uni0157
Width: 400
VWidth: 0
Flags: HMW
LayerCount: 2
Back
SplineSet
80 -59 m 1
 146 -70 l 1
 107 -253 l 5
 54 -242 l 1
 80 -59 l 1
280 494 m 3
 303 494 325 488 346 482 c 1
 332 406 l 1
 322 406 l 1
 313 410 287 418 256 418 c 3
 224 418 189 406 154 383 c 1
 154 0 l 1
 70 0 l 1
 70 482 l 1
 131 482 l 1
 147 450 l 1
 190 483 233 494 280 494 c 3
EndSplineSet
Fore
Refer: 587 806 N 1 0 0 1 127 0 2
Refer: 20 114 N 1 0 0 1 0 0 3
Validated: 1
EndChar
StartChar: Scedilla
Encoding: 350 350 299
Width: 628
VWidth: 0
UnlinkRmOvrlpSave: 1
Flags: HMW
LayerCount: 3
Back
SplineSet
462.402 -154.785 m 4x2f
 462.402 -202.148 422.852 -247.559 358.887 -247.559 c 4xaf
 332.52 -247.559 315.918 -243.164 259.766 -226.562 c 6
 243.164 -221.68 l 5
 257.812 -170.898 l 5x4f
 272.461 -175.293 l 6
 325.684 -190.918 344.238 -195.312 362.305 -195.312 c 4
 391.602 -195.312 407.227 -178.711 407.227 -161.133 c 4
 407.227 -129.395 366.211 -121.094 359.375 -118.652 c 6
 292.969 -98.6328 l 5
 317.383 -9.76562 l 5xaf
 240.234 -9.76562 181.152 11.7188 117.188 37.1094 c 5
 145.508 117.676 l 5x1f
 234.863 84.4727 297.363 72.2656 338.379 72.2656 c 4
 436.035 72.2656 505.859 114.746 505.859 181.641 c 4
 505.859 346.191 131.348 278.32 131.348 499.023 c 4
 131.348 606.445 236.328 700.195 400.879 700.195 c 4
 463.379 700.195 526.367 686.523 573.242 672.363 c 5
 546.387 596.68 l 5
 524.414 603.027 455.078 622.07 394.043 622.07 c 4
 299.805 622.07 221.68 578.125 221.68 512.695 c 4
 221.68 361.816 596.191 417.969 596.191 193.848 c 4
 596.191 114.746 539.062 15.625 389.648 -5.37109 c 5
 374.512 -66.4062 l 5
 384.277 -69.3359 462.402 -83.9844 462.402 -154.785 c 4x2f
EndSplineSet
Fore
Refer: 580 807 N 1 0 0 1 278.799 -26.5333 2
Refer: 55 83 N 1 0 0 1 0 0 3
Validated: 5
EndChar
StartChar: scedilla
Encoding: 351 351 300
Width: 465
VWidth: 1023
UnlinkRmOvrlpSave: 1
Flags: HMW
LayerCount: 3
Back
SplineSet
344.727 -153.809 m 4
 344.727 -191.406 326.172 -237.305 244.629 -237.305 c 4
 216.309 -237.305 179.688 -231.934 133.789 -218.262 c 5
 146.484 -173.828 l 5
 205.078 -191.406 227.539 -196.777 247.559 -196.777 c 4
 278.809 -196.777 296.387 -178.711 296.387 -159.18 c 4
 296.387 -124.023 258.301 -118.164 184.57 -95.7031 c 5
 207.52 -9.76562 l 5
 171.875 -9.76562 122.07 2.92969 63.4766 26.8555 c 5
 85.9375 87.4023 l 5
 150.391 63.4766 188.965 53.2227 230.957 53.2227 c 4
 289.062 53.2227 350.098 65.918 350.098 128.906 c 4
 350.098 221.191 75.1953 184.57 75.1953 346.191 c 4
 75.1953 400.391 119.629 491.699 288.086 491.699 c 4
 350.586 491.699 375.977 482.422 410.645 472.168 c 5
 390.137 411.133 l 5
 358.398 419.922 323.73 429.199 274.902 429.199 c 4
 173.34 429.199 158.203 375.977 158.203 354.492 c 4
 158.203 268.066 437.5 288.574 437.5 138.184 c 4
 437.5 83.0078 405.273 -7.8125 270.02 -7.8125 c 5
 255.371 -66.4062 l 5
 277.832 -73.2422 344.727 -87.4023 344.727 -153.809 c 4
EndSplineSet
Fore
Refer: 577 807 N 1 0 0 1 217 0 2
Refer: 7 115 N 1 0 0 1 0 0 3
Validated: 5
Substitution2: "locl_ROM subtable" uni0219
EndChar
StartChar: Tcommaaccent
Encoding: 354 354 301
Width: 599
VWidth: 0
UnlinkRmOvrlpSave: 1
Flags: HMW
LayerCount: 3
Back
SplineSet
41.5039 693.848 m 5
 668.457 693.848 l 5
 668.457 580.566 l 5
 416.504 580.566 l 5
 416.504 0 l 5
 293.457 0 l 5
 293.457 580.566 l 5
 41.5039 580.566 l 5
 41.5039 693.848 l 5
EndSplineSet
Fore
Refer: 579 807 N 1 0 0 1 300 0 2
Refer: 39 84 N 1 0 0 1 0 0 3
Validated: 5
EndChar
StartChar: uni0162
Encoding: 354 354 301
GlifName: uni0162
Width: 579
VWidth: 0
UnlinkRmOvrlpSave: 1
Flags: HMW
LayerCount: 2
Back
SplineSet
289 -196 m 0
 319 -195 341 -184 341 -157 c 0
 341 -142 323 -127 314 -123 c 0
 307 -120 299 -117 289 -114 c 2
 228 -95 l 1
 256 11 l 1
 318 11 l 1
 299 -66 l 1
 311 -70 l 2
 355 -84 389 -102 389 -155 c 0
 389 -204 344 -243 290 -243 c 0
 278 -243 264 -241 250 -238 c 0
 241 -236 222 -231 194 -223 c 2
 177 -218 l 1
 190 -173 l 1
 205 -178 l 1
 248 -191 276 -196 289 -196 c 0
10 692 m 1
 556 692 l 1
 556 619 l 1
 324 619 l 1
 324 0 l 1
 296 0 269 0 241 0 c 1
 241 619 l 1
 10 619 l 1
 10 692 l 1
EndSplineSet
Fore
Refer: 577 807 N 1 0 0 1 290 0 2
Refer: 39 84 N 1 0 0 1 0 0 3
Validated: 5
EndChar
StartChar: uni0163
Encoding: 355 355 302
GlifName: uni0163
Width: 441
VWidth: 0
UnlinkRmOvrlpSave: 1
Flags: HMW
LayerCount: 2
Back
SplineSet
236 -196 m 0
 266 -195 288 -184 288 -157 c 0
 288 -142 270 -127 261 -123 c 0
 254 -120 246 -117 236 -114 c 2
 175 -95 l 1
 203 11 l 1
 265 11 l 1
 246 -66 l 1
 258 -70 l 2
 302 -84 336 -102 336 -155 c 0
 336 -204 291 -243 237 -243 c 0
 225 -243 211 -241 197 -238 c 0
 188 -236 169 -231 141 -223 c 2
 124 -218 l 1
 137 -173 l 1
 152 -178 l 1
 195 -191 223 -196 236 -196 c 0
236 -10 m 3
 136 -10 101 48 101 150 c 2
 101 414 l 1
 20 414 l 1
 20 482 l 1
 101 482 l 1
 101 615 l 1
 184 619 l 1
 184 482 l 1
 342 482 l 1
 342 414 l 1
 184 414 l 1
 184 156 l 2
 184 92 198 59 260 59 c 3
 289 59 312 67 325 70 c 1
 342 9 l 1
 305 -3 270 -10 236 -10 c 3
EndSplineSet
Fore
Refer: 577 807 N 1 0 0 1 257.5 0 2
Refer: 19 116 N 1 0 0 1 0 0 3
Validated: 5
Substitution2: "locl_ROM subtable" uni021B
EndChar
StartChar: Tbar
Encoding: 358 358 332
Width: 599
VWidth: 1023
UnlinkRmOvrlpSave: 1
Flags: MW
LayerCount: 2
Back
SplineSet
92 368 m 1
 499 368 l 1
 499 294 l 1
 92 294 l 1
 92 368 l 1
10 692 m 1
 556 692 l 1
 556 619 l 1
 324 619 l 1
 324 0 l 1
 296 0 269 0 241 0 c 1
 241 619 l 1
 10 619 l 1
 10 692 l 1
EndSplineSet
Fore
SplineSet
51 388 m 25
 539 388 l 25
 539 293 l 25
 51 293 l 25
 51 388 l 25
EndSplineSet
Refer: 39 84 N 1 0 0 1 0 0 2
Validated: 5
EndChar
StartChar: tbar
Encoding: 359 359 333
Width: 426
VWidth: 1023
UnlinkRmOvrlpSave: 1
Flags: HMW
LayerCount: 3
Back
SplineSet
257.812 515.137 m 5xd0
 359.375 745.605 l 5
 508.301 745.605 l 5xc8
 402.344 515.137 l 5
 257.812 515.137 l 5xd0
99.1211 620.605 m 5
 234.375 620.605 l 5
 234.375 482.422 l 5
 406.25 482.422 l 5
 406.25 379.395 l 5
 234.375 379.395 l 5
 234.375 163.086 l 6
 234.375 133.789 237.793 92.7734 306.641 92.7734 c 4
 322.754 92.7734 330.078 93.75 389.648 102.539 c 5
 408.691 105.957 l 5
 427.734 13.6719 l 5
 409.18 8.78906 l 5
 349.121 -5.85938 305.176 -9.76562 276.855 -9.76562 c 4
 130.371 -9.76562 99.1211 69.3359 99.1211 154.785 c 6
 99.1211 379.395 l 5
 34.1797 379.395 l 5
 34.1797 482.422 l 5
 99.1211 482.422 l 5
 99.1211 620.605 l 5
EndSplineSet
Fore
SplineSet
21 307 m 29
 388 307 l 29
 388 214 l 29
 21 214 l 29
 21 307 l 29
EndSplineSet
Refer: 19 116 N 1 0 0 1 0 0 2
Validated: 5
EndChar
StartChar: ubreve
Encoding: 365 365 310
GlifName: ubreve
Width: 559
VWidth: 0
Flags: HMW
LayerCount: 2
Back
SplineSet
265 597 m 3
 305 597 333 626 351 663 c 1
 406 629 l 1
 385 572 335 530 265 530 c 3
 195 530 145 572 124 629 c 1
 179 663 l 1
 197 626 225 597 265 597 c 3
153 173 m 2
 153 93 180 57 258 57 c 3
 296 57 341 69 390 92 c 1
 390 482 l 1
 473 482 l 1
 473 0 l 1
 411 0 l 1
 395 32 l 1
 334 0 280 -10 229 -10 c 3
 125 -10 70 51 70 153 c 2
 70 482 l 1
 153 482 l 1
 153 173 l 2
EndSplineSet
Fore
Refer: 571 774 N 1 0 0 1 277 -0.8 2
Refer: 14 117 N 1 0 0 1 0 0 3
Validated: 1
EndChar
StartChar: Uogonek
Encoding: 370 370 345
Width: 712
VWidth: 0
UnlinkRmOvrlpSave: 1
Flags: HMW
LayerCount: 3
Fore
SplineSet
569 54 m 5
 486 8 442 -74 442 -144 c 7
 442 -160 455 -173 486 -173 c 3
 508 -173 534 -165 534 -165 c 1
 552 -250 l 1
 540 -254 510 -262 465 -262 c 3
 362 -262 330 -208 330 -168 c 7
 330 -76 422 70 465 88 c 1
 517 74 l 1
 569 54 l 5
EndSplineSet
Refer: 51 85 N 1 0 0 1 0 0 3
Validated: 5
EndChar
StartChar: uni018E
Encoding: 398 398 585
Width: 562
Flags: HMW
AnchorPoint: "ogonek" 91 0 basechar 0
AnchorPoint: "below" 260 0 basechar 0
AnchorPoint: "above" 264 692 basechar 0
AnchorPoint: "cedilla" 258 0 basechar 0
LayerCount: 2
Back
SplineSet
406 0 m 1
 0 0 l 1
 0 74 l 1
 323 74 l 1
 323 332 l 1
 27 332 l 1
 27 406 l 1
 323 406 l 1
 323 620 l 1
 0 620 l 1
 0 694 l 1
 406 694 l 1
 406 0 l 1
EndSplineSet
Fore
SplineSet
492 0 m 1
 40 0 l 1
 40 113 l 1
 369 113 l 1
 369 294 l 1
 76 294 l 1
 76 407 l 1
 369 407 l 1
 369 579 l 1
 40 579 l 1
 40 692 l 1
 492 692 l 1
 492 0 l 1
EndSplineSet
Validated: 1
EndChar
StartChar: uni018F
Encoding: 399 399 587
Width: 864
VWidth: 1023
Flags: MW
AnchorPoint: "below" 418 0 basechar 0
AnchorPoint: "above" 418 670 basechar 0
AnchorPoint: "cedilla" 418 0 basechar 0
LayerCount: 3
Fore
SplineSet
553 556 m 1
 517 576 477 586 432 586 c 0
 376 586 293 574 238 553 c 0
 216 545 l 1
 181 649 l 1
 198 656 l 0
 268 685 346 700 432 700 c 0
 593 700 706 630 758 531 c 0
 787 477 801 415 801 346 c 0
 801 203 737 92 631 36 c 0
 573 7 507 -8 432 -8 c 0
 270 -8 158 63 105 162 c 0
 76 216 63 279 63 348 c 0
 63 358 63 368 64 377 c 0
 65 395 l 1
 662 395 l 1
 650 469 609 525 553 556 c 1
661 288 m 1
 203 288 l 1
 217 217 257 165 311 135 c 1
 347 115 387 106 432 106 c 0
 534 106 599 156 635 218 c 1
 647 239 656 263 661 288 c 1
EndSplineSet
Validated: 1
EndChar
StartChar: Fhook
Encoding: 401 401 355
GlifName: uni0191
Width: 553
VWidth: 1023
UnlinkRmOvrlpSave: 1
Flags: HMW
LayerCount: 2
Back
SplineSet
137 -13 m 2
 137 -122 81 -179 -30 -179 c 3
 -63 -179 -100 -173 -140 -161 c 1
 -128 -101 l 1
 -98 -109 -72 -113 -50 -113 c 3
 18 -113 54 -76 54 -10 c 2
 54 694 l 1
 455 694 l 1
 455 621 l 1
 137 621 l 1
 137 394 l 1
 426 394 l 1
 426 321 l 1
 137 321 l 1
 137 -13 l 2
EndSplineSet
Fore
SplineSet
14 -166 m 3
 61 -166 70 -127 70 -65 c 2
 70 0 l 1
 193 0 l 1
 193 -90 l 2
 193 -178 165 -265 30 -265 c 3
 -5 -265 -38 -255 -38 -255 c 1
 -14 -163 l 1
 -14 -163 -1 -166 14 -166 c 3
EndSplineSet
Refer: 35 70 N 1 0 0 1 0 0 2
Validated: 5
EndChar
StartChar: uni0191
Encoding: 401 401 355
Width: 689
VWidth: 1023
Flags: MW
AnchorPoint: "below" 213 -165 basechar 0
AnchorPoint: "above" 396 670 basechar 0
AnchorPoint: "cedilla" 62 -165 basechar 0
LayerCount: 3
Fore
SplineSet
-52 -153 m 1
 -32 -55 l 1
 -12 -60 l 2
 2 -64 32 -72 61 -72 c 0
 135 -72 153 -33 153 11 c 2
 153 694 l 1
 627 694 l 1
 627 581 l 1
 288 581 l 1
 288 414 l 1
 598 414 l 1
 598 301 l 1
 288 301 l 1
 288 8 l 2
 288 -123 201 -178 86 -178 c 0
 45 -178 5 -171 -35 -159 c 2
 -52 -153 l 1
EndSplineSet
Validated: 1
EndChar
StartChar: florin
Encoding: 402 402 211
GlifName: florin
Width: 443
VWidth: 1023
UnlinkRmOvrlpSave: 1
Flags: HMW
LayerCount: 2
Fore
SplineSet
54 -166 m 7
 93 -166 100 -127 100 -65 c 6
 100 0 l 5
 223 0 l 5
 223 -90 l 6
 223 -178 197 -265 70 -265 c 7
 35 -265 2 -255 2 -255 c 5
 26 -163 l 5
 26 -163 39 -166 54 -166 c 7
EndSplineSet
Refer: 27 102 N 1 0 0 1 0 0 2
Validated: 5
EndChar
StartChar: Ohorn
Encoding: 416 416 669
GlifName: O_horn
Width: 768
VWidth: 0
UnlinkRmOvrlpSave: 1
Flags: HMW
AnchorPoint: "above" 388 693 basechar 0
LayerCount: 2
Back
SplineSet
381 -10 m 1031,4,5
646 756 m 1,0,-1
 720 756 l 1,1,-1
 720 740 l 1,2,3
 720 719 719 683 707 659 c 0,4,5
 677 595 602 578 602 578 c 1,6,-1
 560 601 l 1,7,8
 574 611 620 639 636 677 c 0,9,10
 645 698 646 737 646 748 c 1,11,-1
 646 756 l 1,0,-1
381 706 m 3,0,1
 581 706 707 546 707 346 c 3,2,3
 707 146 581 -10 381 -10 c 3,4,5
 181 -10 55 146 55 346 c 3,6,7
 55 546 181 706 381 706 c 3,0,1
381 64 m 3,8,9
 521 64 624 186 624 346 c 3,10,11
 624 506 521 632 381 632 c 3,12,13
 241 632 138 506 138 346 c 3,14,15
 138 186 241 64 381 64 c 3,8,9
EndSplineSet
Fore
Refer: 668 795 N 1 0 0 1 656 263 2
Refer: 31 79 N 1 0 0 1 0 0 2
Validated: 5
EndChar
StartChar: ohorn
Encoding: 417 417 670
GlifName: ohorn
Width: 578
VWidth: 0
UnlinkRmOvrlpSave: 1
Flags: HMW
AnchorPoint: "above" 283 482.2 basechar 0
LayerCount: 2
Back
SplineSet
466 616 m 1
 540 616 l 1
 540 599 l 1
 540 578 539 543 527 519 c 0
 497 455 432 432 432 432 c 1
 380 461 l 1
 394 471 440 499 456 537 c 0
 465 558 466 597 466 608 c 1
 466 616 466 616 466 616 c 1
280 420 m 3
 180 420 131 330 131 240 c 3
 131 150 180 64 280 64 c 3
 380 64 433 150 433 240 c 3
 433 330 380 420 280 420 c 3
280 -10 m 3
 130 -10 48 90 48 240 c 3
 48 390 130 494 280 494 c 3
 430 494 516 390 516 240 c 3
 516 90 430 -10 280 -10 c 3
EndSplineSet
Fore
Refer: 668 795 N 1 0 0 1 540 69 2
Refer: 6 111 N 1 0 0 1 0 0 2
Validated: 5
EndChar
StartChar: Uhorn
Encoding: 431 431 671
Width: 712
VWidth: 0
Flags: HW
AnchorPoint: "above" 358 692 basechar 0
LayerCount: 3
Back
SplineSet
644 812 m 1
 718 812 l 17
 718 812 718 812 718 796 c 1
 718 775 717 739 705 715 c 0
 680 661 622 644 605 639 c 1
 605 265 l 2
 605 82 541 -10 341 -10 c 0
 141 -10 77 82 77 265 c 2
 77 694 l 1
 160 694 l 1
 160 244 l 2
 160 124 219 64 341 64 c 0
 463 64 522 124 522 244 c 2
 522 694 l 1
 589 694 621 713 631 733 c 0
 642 755 644 793 644 804 c 1
 644 812 644 812 644 812 c 1
EndSplineSet
Fore
SplineSet
641 825 m 1
 754 825 l 1
 754 789 l 2
 754 767.57421875 753.805664062 728.890625 739.001953125 699.282226562 c 0
 702.063476562 620.48046875 650.443359375 608.188476562 640.061523438 605.806640625 c 1
 640 605.837146348 l 1
 640 249 l 2
 640 165 626 -11 356 -11 c 0
 86 -11 72 165 72 249 c 2
 72 691 l 1
 195 691 l 1
 195 255 l 2
 195 152 256 103 356 103 c 0
 456 103 517 152 517 255 c 2
 517 691 l 1
 584.847208887 691 615 692 632.591796875 733.8203125 c 0
 638.849544579 748.696619132 641 787.01171875 641 797 c 2
 641 825 l 1
EndSplineSet
EndChar
StartChar: uhorn
Encoding: 432 432 672
Width: 547
VWidth: 0
Flags: HW
AnchorPoint: "above" 275 481 basechar 0
LayerCount: 3
Back
SplineSet
517 616 m 1
 591 616 l 1
 591 600 l 1
 591 579 590 543 578 519 c 0
 548 455 473 430 473 430 c 1
 473 0 l 1
 411 0 l 1
 395 32 l 1
 334 0 280 -10 229 -10 c 0
 125 -10 70 51 70 153 c 2
 70 482 l 1
 153 482 l 1
 153 173 l 2
 153 93 180 57 258 57 c 0
 296 57 341 69 390 92 c 1
 390 482 l 1
 458 482 487 491 507 538 c 0
 516 559 517 597 517 608 c 1
 517 616 l 1
EndSplineSet
Fore
SplineSet
489 632 m 1
 602 632 l 1
 602 596 l 17
 602 575 602 536 587 506 c 0
 550 427 498 415 488 413 c 1
 487 413 l 1
 487 0 l 1
 391 0 l 1
 375 32 l 1
 343 10 296 -10 230 -10 c 0
 63 -10 55 123 55 207 c 2
 55 481 l 1
 175 481 l 1
 175 186 l 2
 175 150 185 88 262 88 c 0
 284 88 324 93 367 115 c 1
 367 481 l 1
 434 481 462 495 481 541 c 0
 487 556 489 594 489 604 c 9
 489 632 l 1
EndSplineSet
Validated: 1
EndChar
StartChar: uni01CD
Encoding: 461 461 560
GlifName: uni01C_D_
Width: 646
VWidth: 1023
Flags: HMW
LayerCount: 2
Back
SplineSet
304 747 m 5
 166 884 l 5
 209 928 l 29
 304 830 l 29
 399 928 l 5
 442 884 l 5
 304 747 l 5
592 0 m 1
 561 0 530 0 499 0 c 1
 433 202 l 1
 169 202 l 1
 103 0 l 1
 17 0 l 1
 252 692 l 1
 356 692 l 5
 592 0 l 1
301 606 m 1
 193 276 l 1
 409 276 l 1
 301 606 l 1
EndSplineSet
Fore
Refer: 576 780 N 1 0 0 1 319 209 2
Refer: 32 65 N 1 0 0 1 0 0 3
Validated: 1
EndChar
StartChar: uni01D0
Encoding: 464 464 548
GlifName: uni01D_0
Width: 253
VWidth: 1023
Flags: HMW
LayerCount: 2
Back
SplineSet
110 536 m 5
 -28 673 l 5
 15 717 l 29
 110 619 l 29
 205 717 l 5
 248 673 l 5
 110 536 l 5
70 482 m 1
 150 482 l 1
 150 0 l 5
 70 0 l 5
 70 482 l 1
EndSplineSet
Fore
Refer: 576 780 N 1 0 0 1 127 0 2
Refer: 140 305 N 1 0 0 1 0 0 3
Validated: 1
EndChar
StartChar: uni01D1
Encoding: 465 465 558
GlifName: uni01D_1
Width: 768
VWidth: 1023
Flags: HMW
LayerCount: 2
Back
SplineSet
381 746 m 5
 243 883 l 5
 286 927 l 29
 381 829 l 29
 476 927 l 5
 519 883 l 5
 381 746 l 5
381 706 m 3
 581 706 707 546 707 346 c 3
 707 146 581 -10 381 -10 c 3
 181 -10 55 146 55 346 c 3
 55 546 181 706 381 706 c 3
381 64 m 3
 521 64 624 186 624 346 c 3
 624 506 521 632 381 632 c 3
 241 632 138 506 138 346 c 3
 138 186 241 64 381 64 c 3
EndSplineSet
Fore
Refer: 576 780 N 1 0 0 1 380 211 2
Refer: 31 79 N 1 0 0 1 0 0 3
Validated: 1
EndChar
StartChar: uni01D2
Encoding: 466 466 545
GlifName: uni01D_2
Width: 578
VWidth: 1023
Flags: HMW
LayerCount: 2
Back
SplineSet
280 536 m 5
 142 673 l 5
 185 717 l 29
 280 619 l 29
 375 717 l 5
 418 673 l 5
 280 536 l 5
280 420 m 3
 180 420 131 330 131 240 c 3
 131 150 180 64 280 64 c 3
 380 64 433 150 433 240 c 3
 433 330 380 420 280 420 c 3
280 -10 m 3
 130 -10 48 90 48 240 c 3
 48 390 130 494 280 494 c 3
 430 494 516 390 516 240 c 3
 516 90 430 -10 280 -10 c 3
EndSplineSet
Fore
Refer: 576 780 N 1 0 0 1 289 0.2 2
Refer: 6 111 N 1 0 0 1 0 0 3
Validated: 1
EndChar
StartChar: uni01D3
Encoding: 467 467 557
GlifName: uni01D_3
Width: 708
VWidth: 1023
Flags: HMW
LayerCount: 2
Back
SplineSet
341 746 m 5
 203 883 l 5
 246 927 l 29
 341 829 l 29
 436 927 l 5
 479 883 l 5
 341 746 l 5
341 -10 m 3
 141 -10 77 82 77 265 c 2
 77 694 l 1
 160 694 l 1
 160 244 l 2
 160 124 219 64 341 64 c 3
 463 64 522 124 522 244 c 2
 522 694 l 1
 605 694 l 1
 605 265 l 2
 605 82 541 -10 341 -10 c 3
EndSplineSet
Fore
Refer: 576 780 N 1 0 0 1 355 210 2
Refer: 51 85 N 1 0 0 1 0 0 3
Validated: 1
EndChar
StartChar: uni01D4
Encoding: 468 468 551
GlifName: uni01D_4
Width: 559
VWidth: 1023
Flags: HMW
LayerCount: 2
Back
SplineSet
265 536 m 5
 127 673 l 5
 170 717 l 29
 265 619 l 29
 360 717 l 5
 403 673 l 5
 265 536 l 5
153 173 m 2
 153 93 180 57 258 57 c 3
 296 57 341 69 390 92 c 1
 390 482 l 1
 473 482 l 1
 473 0 l 1
 411 0 l 1
 395 32 l 1
 334 0 280 -10 229 -10 c 3
 125 -10 70 51 70 153 c 2
 70 482 l 1
 153 482 l 1
 153 173 l 2
EndSplineSet
Fore
Refer: 576 780 N 1 0 0 1 277 -0.8 2
Refer: 14 117 N 1 0 0 1 0 0 3
Validated: 1
EndChar
StartChar: uni01D6
Encoding: 470 470 674
GlifName: uni01D_6
Width: 559
VWidth: 0
Flags: HMW
LayerCount: 2
Back
SplineSet
125 772 m 5
 409 772 l 5
 409 708 l 5
 125 708 l 5
 125 772 l 5
357 530 m 0
 329 530 304 555 304 583 c 0
 304 611 329 636 357 636 c 0
 385 636 410 611 410 583 c 0
 410 555 385 530 357 530 c 0
173 530 m 0
 145 530 120 555 120 583 c 0
 120 611 145 636 173 636 c 0
 201 636 226 611 226 583 c 0
 226 555 201 530 173 530 c 0
153 173 m 2
 153 93 180 57 258 57 c 3
 296 57 341 69 390 92 c 1
 390 482 l 1
 473 482 l 1
 473 0 l 1
 411 0 l 1
 395 32 l 1
 334 0 280 -10 229 -10 c 3
 125 -10 70 51 70 153 c 2
 70 482 l 1
 153 482 l 1
 153 173 l 2
EndSplineSet
Fore
Refer: 570 772 N 1 0 0 1 274 203 2
Refer: 138 252 N 1 0 0 1 0 0 3
Validated: 1
EndChar
StartChar: uni01D8
Encoding: 472 472 676
GlifName: uni01D_8
Width: 559
VWidth: 0
Flags: HMW
LayerCount: 2
Back
SplineSet
333 885 m 1
 384 842 l 1
 254 691 l 1
 209 730 l 1
 333 885 l 1
357 530 m 0
 329 530 304 555 304 583 c 0
 304 611 329 636 357 636 c 0
 385 636 410 611 410 583 c 0
 410 555 385 530 357 530 c 0
173 530 m 0
 145 530 120 555 120 583 c 0
 120 611 145 636 173 636 c 0
 201 636 226 611 226 583 c 0
 226 555 201 530 173 530 c 0
153 173 m 2
 153 93 180 57 258 57 c 3
 296 57 341 69 390 92 c 1
 390 482 l 1
 473 482 l 1
 473 0 l 1
 411 0 l 1
 395 32 l 1
 334 0 280 -10 229 -10 c 3
 125 -10 70 51 70 153 c 2
 70 482 l 1
 153 482 l 1
 153 173 l 2
EndSplineSet
Fore
Refer: 568 769 N 1 0 0 1 274 203 2
Refer: 138 252 N 1 0 0 1 0 0 3
Validated: 1
EndChar
StartChar: uni01D9
Encoding: 473 473 677
GlifName: uni01D_9
Width: 708
VWidth: 0
Flags: HMW
LayerCount: 2
Back
SplineSet
343 901 m 5
 205 1038 l 5
 248 1082 l 29
 343 984 l 29
 438 1082 l 5
 481 1038 l 5
 343 901 l 5
433 740 m 0
 405 740 380 765 380 793 c 0
 380 821 405 846 433 846 c 0
 461 846 486 821 486 793 c 0
 486 765 461 740 433 740 c 0
249 740 m 0
 221 740 196 765 196 793 c 0
 196 821 221 846 249 846 c 0
 277 846 302 821 302 793 c 0
 302 765 277 740 249 740 c 0
341 -10 m 3
 141 -10 77 82 77 265 c 2
 77 694 l 1
 160 694 l 1
 160 244 l 2
 160 124 219 64 341 64 c 3
 463 64 522 124 522 244 c 2
 522 694 l 1
 605 694 l 1
 605 265 l 2
 605 82 541 -10 341 -10 c 3
EndSplineSet
Fore
Refer: 576 780 N 1 0 0 1 356 415 2
Refer: 133 220 N 1 0 0 1 0 0 3
Validated: 1
EndChar
StartChar: uni01DA
Encoding: 474 474 678
GlifName: uni01D_A_
Width: 559
VWidth: 0
Flags: HMW
LayerCount: 2
Back
SplineSet
267 691 m 5
 129 828 l 5
 172 872 l 29
 267 774 l 29
 362 872 l 5
 405 828 l 5
 267 691 l 5
357 530 m 0
 329 530 304 555 304 583 c 0
 304 611 329 636 357 636 c 0
 385 636 410 611 410 583 c 0
 410 555 385 530 357 530 c 0
173 530 m 0
 145 530 120 555 120 583 c 0
 120 611 145 636 173 636 c 0
 201 636 226 611 226 583 c 0
 226 555 201 530 173 530 c 0
153 173 m 2
 153 93 180 57 258 57 c 3
 296 57 341 69 390 92 c 1
 390 482 l 1
 473 482 l 1
 473 0 l 1
 411 0 l 1
 395 32 l 1
 334 0 280 -10 229 -10 c 3
 125 -10 70 51 70 153 c 2
 70 482 l 1
 153 482 l 1
 153 173 l 2
EndSplineSet
Fore
Refer: 576 780 N 1 0 0 1 274 203 2
Refer: 138 252 N 1 0 0 1 0 0 3
Validated: 1
EndChar
StartChar: uni01DB
Encoding: 475 475 679
GlifName: uni01D_B_
Width: 708
VWidth: 0
Flags: HMW
LayerCount: 2
Back
SplineSet
278 1095 m 1
 402 940 l 1
 357 901 l 1
 227 1052 l 1
 278 1095 l 1
433 740 m 0
 405 740 380 765 380 793 c 0
 380 821 405 846 433 846 c 0
 461 846 486 821 486 793 c 0
 486 765 461 740 433 740 c 0
249 740 m 0
 221 740 196 765 196 793 c 0
 196 821 221 846 249 846 c 0
 277 846 302 821 302 793 c 0
 302 765 277 740 249 740 c 0
341 -10 m 3
 141 -10 77 82 77 265 c 2
 77 694 l 1
 160 694 l 1
 160 244 l 2
 160 124 219 64 341 64 c 3
 463 64 522 124 522 244 c 2
 522 694 l 1
 605 694 l 1
 605 265 l 2
 605 82 541 -10 341 -10 c 3
EndSplineSet
Fore
Refer: 567 768 N 1 0 0 1 356 415 2
Refer: 133 220 N 1 0 0 1 0 0 3
Validated: 1
EndChar
StartChar: uni01DD
Encoding: 477 477 583
GlifName: uni01D_D_
Width: 518
VWidth: 1023
Flags: HMW
AnchorPoint: "above" 270 482 basechar 0
LayerCount: 2
Back
SplineSet
236 -10 m 7
 109 -10 38 75 38 214 c 6
 38 258 l 5
 43 266 l 5
 374 266 l 5
 372 380 314 426 190 426 c 7
 148 426 122 420 75 405 c 5
 57 467 l 5
 106 484 158 494 212 494 c 7
 369 494 453 407 453 251 c 7
 453 109 376 -10 236 -10 c 7
120 203 m 5
 120 124 154 58 229 58 c 7
 322 58 363 126 372 203 c 5
 120 203 l 5
EndSplineSet
Fore
SplineSet
255 -10 m 3
 104 -10 27 74 27 225 c 2
 27 272 l 1
 358 272 l 1
 351 354 299 395 207 395 c 3
 158 395 113 390 72 380 c 1
 51 462 l 1
 106 481 163 492 223 492 c 3
 385 492 481 397 481 241 c 3
 481 102 392 -10 255 -10 c 3
355 187 m 1
 147 187 l 1
 147 117 185 85 253 85 c 3
 314 85 352 125 355 187 c 1
EndSplineSet
Validated: 1
EndChar
StartChar: uni01E8
Encoding: 488 488 555
GlifName: uni01E_8
Width: 637
VWidth: 1023
Flags: HMW
LayerCount: 2
Back
SplineSet
315 746 m 5
 177 883 l 5
 220 927 l 29
 315 829 l 29
 410 927 l 5
 453 883 l 5
 315 746 l 5
85 694 m 1
 168 694 l 1
 168 0 l 1
 85 0 l 1
 85 694 l 1
473 694 m 1
 577 694 l 1
 284 363 l 1
 596 0 l 1
 489 0 l 1
 179 356 l 1
 473 694 l 1
EndSplineSet
Fore
Refer: 576 780 N 1 0 0 1 319 211 2
Refer: 43 75 N 1 0 0 1 0 0 3
Validated: 1
EndChar
StartChar: uni01F0
Encoding: 496 496 549
GlifName: uni01F_0
Width: 253
VWidth: 1023
Flags: HMW
LayerCount: 2
Back
SplineSet
111 536 m 5
 -27 673 l 5
 16 717 l 29
 111 619 l 29
 206 717 l 5
 249 673 l 5
 111 536 l 5
68 -78 m 0
 68 482 l 1
 151 482 l 1
 151 -64 l 2
 151 -184 108 -233 22 -263 c 1
 -10 -202 l 1
 43 -177 68 -135 68 -78 c 0
EndSplineSet
Fore
Refer: 576 780 N 1 0 0 1 127 0 2
Refer: 323 567 N 1 0 0 1 0 0 3
Validated: 1
EndChar
StartChar: uni01F5
Encoding: 501 501 543
GlifName: uni01F_5
Width: 580
VWidth: 1023
Flags: HMW
LayerCount: 2
Back
SplineSet
345 733 m 1
 396 690 l 1
 266 539 l 1
 221 578 l 1
 345 733 l 1
397 23 m 1
 356 1 317 -10 269 -10 c 3
 131 -10 48 98 48 238 c 3
 48 382 131 494 274 494 c 3
 318 494 368 478 405 451 c 1
 421 483 l 1
 480 483 l 1
 480 -23 l 2
 480 -179 394 -265 238 -265 c 3
 191 -265 131 -251 91 -233 c 1
 117 -171 l 1
 159 -186 197 -196 232 -196 c 3
 371 -196 397 -117 397 23 c 1
289 56 m 3
 331 56 366 66 397 83 c 1
 397 394 l 1
 359 420 318 428 285 428 c 3
 181 428 131 343 131 238 c 3
 131 134 184 56 289 56 c 3
EndSplineSet
Fore
Refer: 568 769 N 1 0 0 1 283 -0.4 2
Refer: 30 103 N 1 0 0 1 0 0 3
Validated: 1
EndChar
StartChar: uni021F
Encoding: 543 543 547
GlifName: uni021F_
Width: 576
VWidth: 1023
Flags: HMW
LayerCount: 2
Back
SplineSet
117 771 m 5
 -21 908 l 5
 22 952 l 29
 117 854 l 29
 212 952 l 5
 255 908 l 5
 117 771 l 5
394 310 m 2
 394 390 367 419 288 419 c 3
 250 419 207 407 158 383 c 1
 158 0 l 1
 75 0 l 1
 75 718 l 1
 158 718 l 1
 158 452 l 1
 216 481 269 494 319 494 c 3
 420 494 477 431 477 329 c 2
 477 0 l 1
 394 0 l 1
 394 310 l 2
EndSplineSet
Fore
Refer: 576 780 N 1 0 0 1 129 236 2
Refer: 3 104 N 1 0 0 1 0 0 3
Validated: 1
EndChar
StartChar: uni0237
Encoding: 567 567 323
GlifName: uni0237
Width: 253
VWidth: 1023
Flags: HMW
AnchorPoint: "cedilla" 54 -232 basechar 0
AnchorPoint: "below" 127 -261 basechar 0
AnchorPoint: "above" 127 481 basechar 0
LayerCount: 2
Fore
SplineSet
21 -165 m 7
 60 -165 67 -126 67 -64 c 6
 67 481 l 5
 190 481 l 5
 190 -89 l 6
 190 -177 164 -264 37 -264 c 7
 2 -264 -31 -254 -31 -254 c 5
 -7 -162 l 5
 -7 -162 6 -165 21 -165 c 7
EndSplineSet
Validated: 1
EndChar
StartChar: uni0259
Encoding: 601 601 681
Width: 518
VWidth: 1023
Flags: HMW
LayerCount: 2
Back
SplineSet
246 -10 m 7
 119 -10 48 75 48 214 c 6
 48 258 l 5
 53 266 l 5
 384 266 l 5
 382 380 324 426 200 426 c 7
 158 426 132 420 85 405 c 5
 67 467 l 5
 116 484 168 494 222 494 c 7
 379 494 463 407 463 251 c 7
 463 109 386 -10 246 -10 c 7
130 203 m 5
 130 124 164 58 239 58 c 7
 332 58 373 126 382 203 c 5
 130 203 l 5
EndSplineSet
Fore
Refer: 583 477 N 1 0 0 1 0 0 2
Validated: 1
EndChar
StartChar: circumflex
Encoding: 710 710 219
Width: 569
VWidth: 1023
Flags: HMW
LayerCount: 3
Fore
SplineSet
296 775 m 1
 442 612 l 1
 375 548 l 1
 289 643 l 1
 203 549 l 1
 137 607 l 1
 296 775 l 1
EndSplineSet
Validated: 1
EndChar
StartChar: breve
Encoding: 728 728 222
Width: 400
VWidth: 0
Flags: HMW
LayerCount: 3
Back
SplineSet
453 520 m 5
 301 689 l 5
 375 760 l 5
 460 666 l 5
 547 759 l 5
 620 695 l 5
 453 520 l 5
EndSplineSet
Fore
Refer: 573 774 N 1 0 0 1 200 0 2
Validated: 1
EndChar
StartChar: uni02EE
Encoding: 750 750 331
Width: 407
VWidth: 1023
Flags: HMW
LayerCount: 3
Fore
SplineSet
226 727 m 1
 334 727 l 1
 334 512 l 1
 226 512 l 1
 226 727 l 1
54 727 m 1
 162 727 l 1
 162 512 l 1
 54 512 l 1
 54 727 l 1
EndSplineSet
Validated: 1
EndChar
StartChar: gravecomb
Encoding: 768 768 569
Width: 0
VWidth: 0
Flags: HW
AnchorPoint: "above" 0 482 mark 0
LayerCount: 3
Fore
SplineSet
-127 656 m 1
 -62 733 l 1
 113 595 l 5
 58 526 l 5
 -127 656 l 1
EndSplineSet
Validated: 1
EndChar
StartChar: acutecomb
Encoding: 769 769 570
Width: 0
VWidth: 0
Flags: HW
AnchorPoint: "above" 0 482 mark 0
LayerCount: 3
Fore
SplineSet
-54 584 m 5
 33 730 l 5
 120 680 l 5
 24 536 l 5
 -54 584 l 5
EndSplineSet
Validated: 1
EndChar
StartChar: uni0302
Encoding: 770 770 331
Width: 0
VWidth: 1023
Flags: HW
AnchorPoint: "above" 0 482 mark 0
LayerCount: 3
Fore
SplineSet
-145 598 m 1
 -19 730 l 1
 17 730 l 1
 145 598 l 1
 77 536 l 5
 0 620 l 1
 -77 536 l 1
 -145 598 l 1
EndSplineSet
Validated: 1
EndChar
StartChar: tildecomb
Encoding: 771 771 571
Width: 0
VWidth: 1023
Flags: HW
AnchorPoint: "above" 0 482 mark 0
LayerCount: 3
Fore
SplineSet
0 688 m 0
 31 664 51 640 69 640 c 3
 87 640 108 685 124 718 c 1
 203 684 l 1
 181 640 150 551 69 551 c 3
 35 551 19 568 0 584 c 0
 -27 607 -53 629 -69 629 c 3
 -87 629 -107 579 -124 544 c 1
 -203 578 l 1
 -184 626 -149 717 -69 717 c 3
 -38 717 -18 702 0 688 c 0
EndSplineSet
Validated: 1
EndChar
StartChar: uni0304
Encoding: 772 772 572
Width: 0
VWidth: 1023
Flags: HW
AnchorPoint: "above" 0 482 mark 0
LayerCount: 3
Fore
SplineSet
-151 572 m 5
 -151 667 l 5
 151 667 l 5
 151 572 l 5
 -151 572 l 5
EndSplineSet
Validated: 1
EndChar
StartChar: uni0306
Encoding: 774 774 573
Width: 0
VWidth: 0
Flags: HW
AnchorPoint: "above" 0 482 mark 0
LayerCount: 3
Fore
SplineSet
-185 654 m 1
 -98 698 l 1
 -89 676 -58 627 0 627 c 3
 58 627 89 676 98 698 c 1
 185 654 l 1
 169 588 87 529 0 529 c 3
 -88 529 -168 585 -185 654 c 1
EndSplineSet
Validated: 1
EndChar
StartChar: uni0307
Encoding: 775 775 574
Width: 0
VWidth: 0
Flags: HW
AnchorPoint: "above" 0 482 mark 0
LayerCount: 3
Fore
SplineSet
60 560 m 1
 -60 560 l 1
 -60 680 l 1
 60 680 l 1
 60 560 l 1
EndSplineSet
Validated: 1
EndChar
StartChar: uni0308
Encoding: 776 776 576
Width: 0
VWidth: 0
Flags: HMW
AnchorPoint: "above" 0 482 mark 0
LayerCount: 3
Fore
SplineSet
-169 706 m 1
 -49 706 l 1
 -49 586 l 1
 -169 586 l 1
 -169 706 l 1
49 706 m 1
 169 706 l 1
 169 586 l 1
 49 586 l 1
 49 706 l 1
EndSplineSet
Validated: 1
EndChar
StartChar: hookabovecomb
Encoding: 777 777 667
Width: 0
VWidth: 0
Flags: MW
AnchorPoint: "above" 0 466 mark 0
LayerCount: 2
Back
SplineSet
0 730 m 3
 67 730 104 704 104 648 c 3
 104 606 71 585 64 578 c 0
 57 571 31 551 31 536 c 1
 -32 536 l 1
 -32 586 8 609 16 615 c 0
 24 621 40 631 40 648 c 3
 40 671 20 676 0 676 c 3
 -15 676 -38 668 -55 659 c 1
 -81 706 l 1
 -62 719 -36 730 0 730 c 3
EndSplineSet
Fore
SplineSet
5 730 m 3
 61 730 110 701 110 640 c 3
 110 596 97 586 82 572 c 0
 66 557 49 542 49 526 c 1
 -45 526 l 1
 -45 576 -21 590 0 608 c 0
 15 623 21 630 21 634 c 3
 21 644 17 650 5 650 c 3
 -15 650 -43 641 -63 626 c 1
 -92 700 l 1
 -63 717 -36 730 5 730 c 3
EndSplineSet
Validated: 1
EndChar
StartChar: uni030A
Encoding: 778 778 577
Width: 0
VWidth: 0
Flags: HMW
AnchorPoint: "above" 0 482 mark 0
LayerCount: 3
Fore
SplineSet
0 695 m 3
 -24 695 -43 674 -43 651 c 3
 -43 628 -25 606 0 606 c 3
 23 606 42 628 42 651 c 3
 42 674 24 695 0 695 c 3
108 651 m 3
 108 591 59 541 0 541 c 3
 -58 541 -108 591 -108 651 c 3
 -108 711 -59 760 0 760 c 3
 58 760 108 711 108 651 c 3
EndSplineSet
Validated: 1
EndChar
StartChar: uni030C
Encoding: 780 780 579
Width: 0
VWidth: 1023
Flags: HMW
AnchorPoint: "above" 0 482 mark 0
LayerCount: 3
Fore
SplineSet
-50 549 m 1
 -153 662 l 1
 -86 723 l 1
 0 629 l 1
 86 723 l 1
 153 662 l 1
 48 549 l 1
 -50 549 l 1
EndSplineSet
Validated: 1
EndChar
StartChar: uni0313
Encoding: 787 787 586
Width: 0
VWidth: 1023
Flags: HW
AnchorPoint: "above" 0 482 mark 0
LayerCount: 3
Fore
SplineSet
37 536 m 5
 -59 554 l 5
 -27 730 l 1
 82 712 l 1
 37 536 l 5
EndSplineSet
Validated: 1
EndChar
StartChar: uni0315
Encoding: 789 789 585
Width: 0
VWidth: 0
Flags: HMW
AnchorPoint: "aboveright" 0 670 mark 0
LayerCount: 3
Fore
SplineSet
-13 733 m 1
 99 733 l 1
 32 512 l 1
 -79 512 l 1
 -13 733 l 1
EndSplineSet
Validated: 1
EndChar
StartChar: uni031B
Encoding: 795 795 668
GlifName: uni031B_
Width: 0
VWidth: 1023
Flags: MW
AnchorPoint: "horn" -102 371 mark 0
LayerCount: 2
Back
SplineSet
-23 543 m 1
 51 543 l 1
 51 527 l 1
 51 506 50 470 38 446 c 0
 8 382 -67 365 -67 365 c 1
 -109 388 l 1
 -95 398 -49 426 -33 464 c 0
 -24 485 -23 524 -23 535 c 1
 -23 543 l 1
EndSplineSet
Fore
SplineSet
-67 563 m 1
 46 563 l 1
 46 527 l 17
 46 506 46 467 31 437 c 0
 -6 358 -58 346 -68 344 c 1
 -153 386 l 1
 -125 406 -93 429 -75 472 c 0
 -69 487 -67 525 -67 535 c 9
 -67 563 l 1
EndSplineSet
Validated: 1
EndChar
StartChar: dotbelowcomb
Encoding: 803 803 682
GlifName: dotbelowcomb
Width: 0
VWidth: 0
Flags: HMW
AnchorPoint: "below" 0 0 mark 0
LayerCount: 2
Back
SplineSet
0 -178 m 0
 -29 -178 -53 -154 -53 -125 c 0
 -53 -96 -29 -72 0 -72 c 0
 29 -72 53 -96 53 -125 c 0
 53 -154 29 -178 0 -178 c 0
EndSplineSet
Fore
Refer: 572 775 S 1 0 0 1 0 -740 2
Validated: 1
EndChar
StartChar: uni0324
Encoding: 804 804 683
GlifName: uni0324
Width: 0
VWidth: 0
Flags: HMW
AnchorPoint: "below" 0 0 mark 0
LayerCount: 2
Back
SplineSet
92 -178 m 0
 64 -178 39 -153 39 -125 c 0
 39 -97 64 -72 92 -72 c 0
 120 -72 145 -97 145 -125 c 0
 145 -153 120 -178 92 -178 c 0
-92 -178 m 0
 -120 -178 -145 -153 -145 -125 c 0
 -145 -97 -120 -72 -92 -72 c 0
 -64 -72 -39 -97 -39 -125 c 0
 -39 -153 -64 -178 -92 -178 c 0
EndSplineSet
Fore
Refer: 573 776 N 1 0 0 1 0 -740 2
Validated: 1
EndChar
StartChar: uni0327
Encoding: 807 807 577
Width: 0
VWidth: 0
Flags: HMW
AnchorPoint: "cedilla" 0 0 mark 0
LayerCount: 3
Fore
SplineSet
11 -184 m 3
 36 -184 45 -171 45 -161 c 3
 45 -137 -9 -126 -71 -108 c 1
 -41 0 l 1
 52 0 l 1
 37 -58 l 1
 69 -71 123 -87 123 -156 c 3
 123 -206 82 -261 9 -261 c 3
 -31 -261 -76 -243 -121 -231 c 1
 -100 -157 l 1
 -57 -171 -4 -184 11 -184 c 3
EndSplineSet
Validated: 1
EndChar
StartChar: uni0328
Encoding: 808 808 580
Width: 0
VWidth: 0
Flags: HW
AnchorPoint: "ogonek" 0 -0 mark 0
LayerCount: 3
Fore
SplineSet
50 -43 m 1
 15 -60 -100 -103 -100 -144 c 3
 -100 -160 -87 -173 -56 -173 c 3
 -34 -173 -8 -165 -8 -165 c 1
 10 -250 l 1
 -2 -254 -32 -262 -77 -262 c 3
 -180 -262 -212 -208 -212 -168 c 3
 -212 -114 -182 -85 -169 -72 c 0
 -127 -30 -48 -1 -46 0 c 1
 50 0 l 1
 50 -43 l 1
EndSplineSet
Validated: 1
EndChar
StartChar: uni032D
Encoding: 813 813 582
Width: 0
VWidth: 1023
Flags: MW
AnchorPoint: "below" 0 0 mark 0
LayerCount: 3
Fore
SplineSet
-0.0964994975577 -67.3670139178 m 1
 146.043727302 -229.745043695 l 1
 79.252428699 -293.82858695 l 1
 -6.98043430492 -198.571354562 l 1
 -93.3591883459 -292.985341537 l 1
 -158.821188942 -234.697258814 l 1
 -0.0964994975577 -67.3670139178 l 1
EndSplineSet
Validated: 1
EndChar
StartChar: uni032E
Encoding: 814 814 684
GlifName: uni032E_
Width: 0
VWidth: 0
Flags: HMW
AnchorPoint: "below" 0 0 mark 0
LayerCount: 2
Back
SplineSet
0 -113 m 3
 40 -113 68 -84 86 -47 c 1
 141 -81 l 1
 120 -138 70 -180 0 -180 c 3
 -70 -180 -120 -138 -141 -81 c 1
 -86 -47 l 1
 -68 -84 -40 -113 0 -113 c 3
EndSplineSet
Fore
Refer: 571 774 N 1 0 0 1 0 -750 2
Validated: 1
EndChar
StartChar: uni0330
Encoding: 816 816 583
Width: 0
VWidth: 1023
Flags: MW
AnchorPoint: "below" 0 0 mark 0
LayerCount: 3
Fore
SplineSet
78 -167 m 0
 104.208627672 -167 116.444349966 -126.33845274 136.434781555 -87.3095148756 c 2
 143.237195364 -74.4605110139 l 1
 222.185375534 -109.448909044 l 1
 215.509074885 -122.801510343 l 2
 192.007010622 -171.84929663 158.876355326 -257 78.1098370805 -257 c 0
 -10.0051698895 -253.12681288 -41.4579089352 -168 -79 -168 c 0
 -105.282512865 -168 -117.479180068 -209.778020248 -137.446138679 -249.711937471 c 2
 -144.227882486 -262.521897995 l 1
 -222.495463412 -227.436430684 l 1
 -216.438617954 -213.05142272 l 2
 -192.97370394 -164.057536376 -159.810441624 -79 -79.1098370805 -79 c 0
 8.99553352971 -82.8727635433 39.5259232934 -167 78 -167 c 0
-216.438617954 -213.05142272 m 2
 -216.391823124 -212.940285 l 1
 -216.490919856 -213.160600902 l 2
 -216.473491235 -213.124228128 -216.456057273 -213.087835384 -216.438617954 -213.05142272 c 2
EndSplineSet
Validated: 1
EndChar
StartChar: uni0331
Encoding: 817 817 583
Width: 0
VWidth: 1023
Flags: MW
AnchorPoint: "below" 0 0 mark 0
LayerCount: 3
Fore
SplineSet
-197 -91 m 1
 197 -91 l 1
 197 -154 l 1
 -197 -154 l 1
 -197 -91 l 1
EndSplineSet
Validated: 1
EndChar
StartChar: pi
Encoding: 960 960 645
Width: 664
Flags: HW
LayerCount: 3
Fore
SplineSet
506 -10 m 3
 418 -10 378 34 378 120 c 2
 378 368 l 1
 260 368 l 1
 260 0 l 1
 137 0 l 1
 137 368 l 1
 60 368 l 1
 60 481 l 1
 578 481 l 1
 578 368 l 1
 501 368 l 1
 501 153 l 2
 501 129 504 110 512 98 c 128
 520 86 534 80 554 80 c 3
 560 80 571 82 585 85 c 1
 609 13 l 1
 576 -2 542 -10 506 -10 c 3
EndSplineSet
EndChar
StartChar: uni0401
Encoding: 1025 1025 456
GlifName: uni0401
Width: 557
VWidth: 1023
Flags: HMW
LayerCount: 2
Back
SplineSet
381 718 m 0
 353 718 328 743 328 771 c 0
 328 799 353 824 381 824 c 0
 409 824 434 799 434 771 c 0
 434 743 409 718 381 718 c 0
197 718 m 0
 169 718 144 743 144 771 c 0
 144 799 169 824 197 824 c 0
 225 824 250 799 250 771 c 0
 250 743 225 718 197 718 c 0
85 0 m 1
 85 694 l 1
 491 694 l 1
 491 620 l 1
 168 620 l 1
 168 406 l 1
 464 406 l 1
 464 332 l 1
 168 332 l 1
 168 74 l 1
 491 74 l 1
 491 0 l 1
 85 0 l 1
EndSplineSet
Fore
Refer: 573 776 N 1 0 0 1 298 210 2
Refer: 396 1045 N 1 0 0 1 0 0 3
Validated: 1
EndChar
StartChar: afii10051
Encoding: 1026 1026 460
Width: 892
VWidth: 1023
Flags: MW
AnchorPoint: "below" 420 -198 basechar 0
AnchorPoint: "above" 420 670 basechar 0
AnchorPoint: "cedilla" 584 -198 basechar 0
LayerCount: 3
Fore
SplineSet
528 496 m 0
 704 496 802 392 802 168 c 0
 802 166 802 163 802 161 c 0
 800 -66 712 -178 624 -234 c 0
 605 -246 l 1
 533 -155 l 1
 553 -143 l 0
 630 -100 674 6 674 161 c 0
 674 346 621 387 522 387 c 0
 488 387 432 378 387 360 c 1
 387 0 l 1
 259 0 l 1
 259 581 l 1
 38 581 l 1
 38 692 l 1
 633 692 l 1
 633 581 l 1
 387 581 l 1
 387 463 l 1
 441 484 479 496 528 496 c 0
EndSplineSet
Validated: 1
EndChar
StartChar: uni0402
Encoding: 1026 1026 458
GlifName: uni0402
Width: 729
Flags: HMW
LayerCount: 2
Back
SplineSet
400 0 m 1
 372 0 l 1
 372 73 l 1
 417 73 429 74 442 76 c 0
 511 83 572 124 572 199 c 0
 572 306 500 340 390 340 c 0
 328 340 297 328 265 320 c 1
 265 0 l 1
 182 0 l 1
 182 621 l 1
 10 621 l 1
 10 694 l 1
 497 694 l 1
 497 621 l 1
 265 621 l 1
 265 398 l 1
 293 405 342 416 398 416 c 0
 436 416 481 411 517 397 c 0
 591 368 655 314 655 198 c 1
 653 52 532 1 400 0 c 1
EndSplineSet
Fore
SplineSet
311 579 m 1
 311 418 l 1
 349 427 388 432 425 432 c 3
 567 432 689 362 689 205 c 3
 689 11 491 0 396 0 c 1
 396 113 l 1
 476 113 566 124 566 209 c 3
 566 285 514 324 423 324 c 3
 391 324 353 320 311 311 c 1
 311 0 l 1
 188 0 l 1
 188 579 l 1
 10 579 l 1
 10 692 l 1
 554 692 l 1
 554 579 l 1
 311 579 l 1
EndSplineSet
Validated: 1
EndChar
StartChar: uni0403
Encoding: 1027 1027 459
GlifName: uni0403
Width: 518
VWidth: 1023
Flags: HMW
LayerCount: 2
Back
SplineSet
346 918 m 1
 397 875 l 1
 267 724 l 1
 222 763 l 1
 346 918 l 1
80 0 m 1
 80 694 l 1
 475 694 l 1
 475 623 l 1
 163 623 l 1
 163 0 l 1
 80 0 l 1
EndSplineSet
Fore
Refer: 568 769 N 1 0 0 1 293 210 2
Refer: 394 1043 N 1 0 0 1 0 0 3
Validated: 1
EndChar
StartChar: afii10053
Encoding: 1028 1028 462
Width: 682
Flags: MW
AnchorPoint: "below" 390 0 basechar 0
AnchorPoint: "above" 390 670 basechar 0
AnchorPoint: "cedilla" 366 0 basechar 0
LayerCount: 3
Fore
SplineSet
419 699 m 0
 473 699 541 689 614 660 c 2
 632 653 l 1
 592 555 l 1
 573 562 l 2
 497 590 448 590 416 590 c 0
 288 590 200 509 178 403 c 1
 491 403 l 1
 491 296 l 1
 177 296 l 1
 197 178 291 103 434 103 c 0
 478 103 531 114 584 135 c 2
 602 142 l 1
 642 43 l 1
 624 36 l 1
 551 5 476 -10 412 -10 c 0
 187 -10 50 149 50 346 c 0
 50 546 194 699 419 699 c 0
EndSplineSet
Validated: 1
EndChar
StartChar: uni0404
Encoding: 1028 1028 460
GlifName: uni0404
Width: 671
UnlinkRmOvrlpSave: 1
Flags: HMW
LayerCount: 2
Back
SplineSet
651 598 m 1
 596 618 567 628 498 628 c 0
 443 628 387 620 345 596 c 0
 275 555 232 484 224 385 c 1
 504 385 l 1
 504 312 l 1
 225 312 l 1
 235 213 286 141 356 101 c 0
 398 77 454 66 509 66 c 0
 564 66 607 77 662 99 c 1
 683 32 l 1
 621 4 562 -10 484 -10 c 0
 373 -10 283 32 227 90 c 0
 164 156 132 242 132 348 c 0
 132 456 167 546 222 603 c 0
 275 657 374 703 475 703 c 0
 566 703 608 691 674 666 c 1
 651 598 l 1
EndSplineSet
Fore
SplineSet
163 422 m 1
 497 422 l 1
 497 309 l 1
 163 309 l 1
 163 422 l 1
EndSplineSet
Refer: 54 67 N 1 0 0 1 0 0 2
Validated: 5
EndChar
StartChar: afii10057
Encoding: 1032 1032 466
Width: 492
Flags: MW
AnchorPoint: "cedilla" 162 0 basechar 0
AnchorPoint: "above" 350 670 basechar 0
AnchorPoint: "below" 222 0 basechar 0
LayerCount: 3
Fore
SplineSet
289 692 m 1
 412 692 l 1
 412 250 l 2
 412 141 384 -8 154 -8 c 0
 120 -8 86 -4 53 4 c 1
 35 9 l 1
 55 117 l 1
 76 112 l 2
 97 107 119 105 140 105 c 0
 283 105 289 207 289 250 c 2
 289 692 l 1
EndSplineSet
Validated: 1
EndChar
StartChar: uni0408
Encoding: 1032 1032 464
Width: 492
Flags: MW
AnchorPoint: "cedilla" 162 0 basechar 0
AnchorPoint: "above" 350 670 basechar 0
AnchorPoint: "below" 222 0 basechar 0
LayerCount: 3
Back
SplineSet
241 694 m 1
 324 694 l 1
 324 208 l 2
 324 64 251 -10 110 -10 c 3
 79 -10 48 -5 15 3 c 1
 28 73 l 1
 53 67 76 64 98 64 c 3
 192 64 241 110 241 204 c 2
 241 694 l 1
EndSplineSet
Fore
SplineSet
289 692 m 1
 412 692 l 1
 412 250 l 2
 412 141 384 -8 154 -8 c 0
 120 -8 86 -4 53 4 c 1
 35 9 l 1
 55 117 l 1
 76 112 l 2
 97 107 119 105 140 105 c 0
 283 105 289 207 289 250 c 2
 289 692 l 1
EndSplineSet
Validated: 1
EndChar
StartChar: afii10058
Encoding: 1033 1033 468
Width: 1043
Flags: MW
AnchorPoint: "below" 450 0 basechar 0
AnchorPoint: "above" 450 670 basechar 0
AnchorPoint: "cedilla" 670 0 basechar 0
LayerCount: 3
Back
SplineSet
630 311 m 5
 630 113 l 5
 721 113 l 6
 810 113 892 124 892 209 c 4
 892 305 796 314 691 314 c 4
 670 314 651 312 630 311 c 5
743 0 m 4
 664 0 586 0 507 0 c 5
 507 580 l 5
 364 580 l 5
 340 360 269 168 187 0 c 5
 50 0 l 5
 155 214 225 443 244 694 c 5
 630 694 l 5
 630 424 l 5
 648 425 665 426 684 426 c 4
 834 426 1018 406 1018 195 c 4
 1018 4 833 0 743 0 c 4
EndSplineSet
Fore
SplineSet
718 0 m 2
 522 0 l 1
 522 581 l 1
 287 581 l 1
 287 311 l 2
 287 198 279 122 236 70 c 0
 198 23 129 -7 20 -7 c 1
 20 110 l 1
 69 113 114 120 136 148 c 0
 161 179 165 234 165 296 c 0
 165 321 164 346 164 372 c 2
 164 692 l 1
 645 692 l 1
 645 428 l 1
 669 428 l 2
 823 428 1003 403 1003 205 c 0
 1003 14 808 0 718 0 c 2
645 314 m 1
 645 113 l 1
 706 113 l 2
 795 113 877 124 877 209 c 0
 877 305 781 314 676 314 c 2
 645 314 l 1
EndSplineSet
Validated: 1
EndChar
StartChar: uni0409
Encoding: 1033 1033 465
GlifName: uni0409
Width: 1098
UnlinkRmOvrlpSave: 1
Flags: HMW
LayerCount: 2
Back
SplineSet
610 694 m 1
 610 404 l 1
 638 406 666 407 692 407 c 0
 750 407 821 400 857 388 c 0
 931 363 983 299 986 207 c 1
 986 109 938 40 857 13 c 0
 840 8 820 0 744 0 c 2
 526 0 l 1
 526 619 l 1
 257 619 l 1
 257 311 l 2
 257 198 245 114 202 62 c 0
 164 15 99 -7 30 -7 c 1
 30 72 l 1
 79 75 114 86 136 114 c 0
 171 158 174 238 174 348 c 2
 174 694 l 1
 610 694 l 1
698 334 m 0
 672 334 642 333 610 330 c 1
 610 73 l 1
 699 73 l 2
 744 73 773 74 786 76 c 0
 855 83 902 125 902 200 c 0
 902 322 811 334 698 334 c 0
EndSplineSet
Fore
Refer: 419 1068 N 1 0 0 1 497 0 2
Refer: 402 1051 S 1 0 0 1 10 0 2
Validated: 5
EndChar
StartChar: afii10059
Encoding: 1034 1034 468
Width: 1018
Flags: MW
AnchorPoint: "below" 555 0 basechar 0
AnchorPoint: "above" 555 670 basechar 0
AnchorPoint: "cedilla" 555 0 basechar 0
LayerCount: 3
Fore
SplineSet
693 0 m 2
 497 0 l 1
 497 290 l 1
 203 290 l 1
 203 0 l 1
 80 0 l 1
 80 692 l 1
 203 692 l 1
 203 403 l 1
 497 403 l 1
 497 692 l 1
 620 692 l 1
 620 428 l 1
 644 428 l 2
 798 428 978 403 978 205 c 0
 978 14 783 0 693 0 c 2
620 314 m 1
 620 113 l 1
 681 113 l 2
 770 113 852 124 852 209 c 0
 852 305 756 314 651 314 c 2
 620 314 l 1
EndSplineSet
Validated: 1
EndChar
StartChar: uni040A
Encoding: 1034 1034 466
GlifName: uni040A_
Width: 1078
VWidth: 1023
UnlinkRmOvrlpSave: 1
Flags: HMW
LayerCount: 2
Back
SplineSet
492 694 m 1
 575 694 l 1
 575 691 l 1
 576 694 l 1
 576 404 l 1
 604 406 632 407 658 407 c 0
 716 407 787 400 823 388 c 0
 897 363 952 299 952 207 c 0
 952 109 904 40 823 13 c 0
 806 8 786 0 710 0 c 2
 492 0 l 1
 492 311 l 1
 163 311 l 1
 163 0 l 1
 80 0 l 1
 80 694 l 1
 163 694 l 1
 163 386 l 1
 492 386 l 1
 492 694 l 1
664 334 m 0
 638 334 607 333 575 330 c 1
 575 73 l 1
 665 73 l 2
 710 73 739 74 752 76 c 0
 821 83 868 125 868 200 c 0
 868 322 777 334 664 334 c 0
EndSplineSet
Fore
Refer: 419 1068 S 1 0 0 1 477 0 2
Refer: 404 1053 N 1 0 0 1 0 0 2
Validated: 5
EndChar
StartChar: afii10060
Encoding: 1035 1035 467
Width: 729
Flags: MW
AnchorPoint: "below" 524 0 basechar 0
AnchorPoint: "above" 524 670 basechar 0
AnchorPoint: "cedilla" 773 0 basechar 0
LayerCount: 3
Back
SplineSet
38 581 m 5
 38 694 l 5
 245 694 452 694 659 694 c 5
 659 581 l 5
 322 581 l 5
 322 455 l 5
 386 481 475 495 562 495 c 4
 803 495 833 363 833 296 c 4
 833 0 l 5
 712 0 l 5
 712 267 l 4
 712 340 655 385 527 385 c 4
 462 385 376 369 322 343 c 5
 322 0 l 5
 199 0 l 5
 199 581 l 5
 38 581 l 5
EndSplineSet
Fore
SplineSet
311 581 m 1
 311 418 l 1
 349 427 388 432 425 432 c 0
 567 432 689 362 689 205 c 0
 689 14 494 0 404 0 c 2
 396 0 l 1
 396 113 l 1
 475 113 563 124 563 209 c 0
 563 279 512 315 423 315 c 0
 391 315 353 310 311 300 c 1
 311 0 l 1
 188 0 l 1
 188 581 l 1
 10 581 l 1
 10 692 l 1
 554 692 l 1
 554 581 l 1
 311 581 l 1
EndSplineSet
Validated: 1
EndChar
StartChar: uni040B
Encoding: 1035 1035 467
Width: 729
Flags: HMW
LayerCount: 2
Back
SplineSet
265 621 m 1
 265 389 l 1
 293 400 342 416 398 416 c 0
 436 416 481 411 517 397 c 0
 591 368 641 304 641 188 c 2
 641 0 l 1
 558 0 l 1
 558 0 558 143 558 189 c 0
 558 236 549 269 531 291 c 0
 495 334 428 339 390 339 c 0
 328 339 297 323 265 311 c 1
 265 0 l 1
 182 0 l 1
 182 621 l 1
 10 621 l 1
 10 694 l 1
 497 694 l 1
 497 621 l 1
 265 621 l 1
EndSplineSet
Fore
SplineSet
689 205 m 2
 689 205 689 205 689 0 c 9
 566 0 l 17
 566 209 l 2
 566 282 514 319 423 319 c 3
 391 319 353 314 311 304 c 1
 311 0 l 1
 188 0 l 1
 188 579 l 1
 10 579 l 1
 10 692 l 1
 554 692 l 1
 554 579 l 1
 311 579 l 1
 311 418 l 1
 349 427 388 432 425 432 c 3
 567 432 689 362 689 205 c 2
EndSplineSet
Validated: 1
EndChar
StartChar: uni040C
Encoding: 1036 1036 468
GlifName: uni040C_
Width: 589
VWidth: 1023
Flags: HMW
LayerCount: 2
Back
SplineSet
381 918 m 1
 432 875 l 1
 302 724 l 1
 257 763 l 1
 381 918 l 1
429 568 m 0
 388 494 366 403 287 360 c 1
 431 316 487 192 558 0 c 1
 464 0 l 1
 393 233 301 314 168 320 c 1
 168 0 l 1
 85 0 l 1
 85 694 l 1
 168 694 l 1
 168 379 l 1
 321 420 318 549 376 625 c 0
 416 678 461 695 521 695 c 0
 529 695 538 695 547 694 c 1
 547 615 l 1
 540 615 533 616 526 616 c 0
 483 616 450 606 429 568 c 0
EndSplineSet
Fore
Refer: 568 769 N 1 0 0 1 315 210 2
Refer: 401 1050 N 1 0 0 1 0 0 3
Validated: 1
EndChar
StartChar: uni040E
Encoding: 1038 1038 470
GlifName: uni040E_
Width: 633
VWidth: 1023
Flags: HMW
LayerCount: 2
Back
SplineSet
309 785 m 3
 349 785 377 814 395 851 c 1
 450 817 l 1
 429 760 379 718 309 718 c 3
 239 718 189 760 168 817 c 1
 223 851 l 1
 241 814 269 785 309 785 c 3
115 694 m 1
 313 233 l 1
 505 694 l 1
 594 694 l 1
 352 123 l 1
 337 85 318 54 288 30 c 0
 250 1 202 -14 148 -14 c 0
 117 -14 86 -9 55 0 c 1
 65 70 l 1
 85 65 105 63 126 63 c 0
 138 63 151 64 163 65 c 0
 189 68 215 74 236 90 c 0
 250 101 263 115 269 131 c 1
 22 694 l 1
 115 694 l 1
EndSplineSet
Fore
Refer: 571 774 N 1 0 0 1 318 210 2
Refer: 410 1059 N 1 0 0 1 0 0 3
Validated: 1
EndChar
StartChar: afii10145
Encoding: 1039 1039 471
Width: 730
Flags: MW
AnchorPoint: "below" 369 -164 basechar 0
AnchorPoint: "above" 369 670 basechar 0
AnchorPoint: "cedilla" 369 -164 basechar 0
LayerCount: 3
Back
SplineSet
628 0 m 1
 398 0 l 1
 398 -159 l 1
 315 -159 l 1
 315 0 l 1
 85 0 l 1
 85 694 l 1
 168 694 l 1
 168 76 l 1
 545 76 l 1
 545 694 l 1
 628 694 l 1
 628 0 l 1
EndSplineSet
Fore
SplineSet
424 0 m 1
 424 -178 l 1
 305 -178 l 1
 305 0 l 1
 80 0 l 1
 80 692 l 1
 203 692 l 1
 203 114 l 1
 527 114 l 1
 527 692 l 1
 650 692 l 1
 650 0 l 1
 424 0 l 1
EndSplineSet
Validated: 1
EndChar
StartChar: uni040F
Encoding: 1039 1039 471
GlifName: uni040F_
Width: 710
Flags: HMW
LayerCount: 2
Back
SplineSet
618 0 m 1
 388 0 l 1
 388 -159 l 1
 305 -159 l 1
 305 0 l 1
 75 0 l 1
 75 694 l 1
 158 694 l 1
 158 76 l 1
 535 76 l 1
 535 694 l 1
 618 694 l 1
 618 0 l 1
EndSplineSet
Fore
SplineSet
414 0 m 1
 414 -178 l 1
 295 -178 l 1
 295 0 l 1
 70 0 l 1
 70 692 l 1
 193 692 l 1
 193 113 l 1
 517 113 l 1
 517 692 l 1
 640 692 l 1
 640 0 l 1
 414 0 l 1
EndSplineSet
Validated: 1
EndChar
StartChar: afii10017
Encoding: 1040 1040 393
Width: 681
Flags: MW
AnchorPoint: "cedilla" 340 0 basechar 0
AnchorPoint: "above" 340 670 basechar 0
AnchorPoint: "below" 340 0 basechar 0
LayerCount: 3
Fore
SplineSet
280 692 m 1
 401 692 l 1
 661 0 l 1
 534 0 l 1
 464 182 l 1
 209 182 l 1
 140 0 l 1
 20 0 l 1
 280 692 l 1
425 294 m 1
 337 552 l 1
 248 294 l 1
 425 294 l 1
EndSplineSet
Validated: 1
EndChar
StartChar: uni0410
Encoding: 1040 1040 391
Width: 681
Flags: MW
AnchorPoint: "cedilla" 340 0 basechar 0
AnchorPoint: "above" 340 670 basechar 0
AnchorPoint: "below" 340 0 basechar 0
LayerCount: 3
Back
SplineSet
592 0 m 1
 561 0 530 0 499 0 c 1
 433 202 l 1
 169 202 l 1
 103 0 l 1
 17 0 l 1
 252 692 l 1
 356 692 l 5
 592 0 l 1
301 606 m 1
 193 276 l 1
 409 276 l 1
 301 606 l 1
EndSplineSet
Fore
SplineSet
280 692 m 1
 401 692 l 1
 661 0 l 1
 534 0 l 1
 464 182 l 1
 209 182 l 1
 140 0 l 1
 20 0 l 1
 280 692 l 1
425 294 m 1
 337 552 l 1
 248 294 l 1
 425 294 l 1
EndSplineSet
Validated: 1
EndChar
StartChar: afii10018
Encoding: 1041 1041 394
Width: 621
Flags: MW
AnchorPoint: "below" 320 0 basechar 0
AnchorPoint: "above" 320 670 basechar 0
AnchorPoint: "cedilla" 320 0 basechar 0
LayerCount: 3
Back
SplineSet
203 113 m 5
 294 113 l 6
 383 113 465 124 465 209 c 4
 465 305 369 314 264 314 c 4
 243 314 224 312 203 311 c 5
 203 113 l 5
80 0 m 5
 80 694 l 5
 232.667 694 385.333 694 538 694 c 5
 538 581 l 5
 203 581 l 5
 203 424 l 5
 221 425 238 426 257 426 c 4
 407 426 591 406 591 195 c 4
 591 4 406 0 316 0 c 6
 80 0 l 5
EndSplineSet
Fore
SplineSet
80 0 m 1
 80 692 l 1
 519 692 l 1
 519 581 l 1
 203 581 l 1
 203 428 l 1
 247 428 l 2
 401 428 581 403 581 205 c 0
 581 14 386 0 296 0 c 2
 80 0 l 1
203 314 m 1
 203 113 l 1
 284 113 l 2
 373 113 455 124 455 209 c 0
 455 305 359 314 254 314 c 2
 203 314 l 1
EndSplineSet
Validated: 1
EndChar
StartChar: uni0411
Encoding: 1041 1041 392
GlifName: uni0411
Width: 601
UnlinkRmOvrlpSave: 1
Flags: HMW
LayerCount: 2
Back
SplineSet
163 621 m 1
 163 404 l 1
 191 406 220 407 246 407 c 0
 304 407 375 400 411 388 c 0
 485 363 540 299 540 207 c 0
 540 109 492 40 411 13 c 0
 394 8 374 0 298 0 c 2
 80 0 l 1
 80 694 l 1
 479 694 l 1
 479 621 l 1
 163 621 l 1
252 334 m 0
 226 334 195 333 163 330 c 1
 163 73 l 1
 253 73 l 2
 298 73 327 74 340 76 c 0
 409 83 456 125 456 200 c 0
 456 322 365 334 252 334 c 0
EndSplineSet
Fore
SplineSet
90 692 m 1
 489 692 l 1
 489 579 l 1
 90 579 l 1
 90 692 l 1
EndSplineSet
Refer: 419 1068 N 1 0 0 1 0 0 2
Validated: 5
EndChar
StartChar: afii10020
Encoding: 1043 1043 394
Width: 548
Flags: MW
AnchorPoint: "below" 307 0 basechar 0
AnchorPoint: "above" 307 670 basechar 0
AnchorPoint: "cedilla" 139 0 basechar 0
LayerCount: 3
Back
SplineSet
203 0 m 5
 80 0 l 5
 80 694 l 5
 538 694 l 5
 538 581 l 5
 203 581 l 5
 203 0 l 5
EndSplineSet
Fore
SplineSet
203 581 m 1
 203 0 l 1
 80 0 l 1
 80 692 l 1
 528 692 l 1
 528 581 l 1
 203 581 l 1
EndSplineSet
Validated: 1
EndChar
StartChar: uni0413
Encoding: 1043 1043 394
Width: 548
Flags: HMW
AnchorPoint: "above" 303 692 basechar 0
LayerCount: 2
Back
SplineSet
80 0 m 1
 80 694 l 1
 475 694 l 1
 475 623 l 1
 163 623 l 1
 163 0 l 1
 80 0 l 1
EndSplineSet
Fore
SplineSet
203 579 m 1
 203 0 l 1
 80 0 l 1
 80 692 l 1
 528 692 l 1
 528 579 l 1
 203 579 l 1
EndSplineSet
Validated: 1
EndChar
StartChar: afii10021
Encoding: 1044 1044 395
Width: 779
Flags: MW
AnchorPoint: "below" 446 -160 basechar 0
AnchorPoint: "above" 446 670 basechar 0
AnchorPoint: "cedilla" 686 -160 basechar 0
LayerCount: 3
Back
SplineSet
264 694 m 5xb4
 650 694 l 5
 650 92 l 6xb8
 740 92 l 5
 740 -178 l 5
 633 -178 l 5xb4
 633 0 l 5
 117 0 l 5x74
 117 -178 l 5
 10 -178 l 5
 10 92 l 5
 113 92 l 5
 194 279 248 478 264 694 c 5xb4
527 114 m 5x78
 527 580 l 5
 384 580 l 5
 365 408 318 253 259 114 c 5
 527 114 l 5x78
EndSplineSet
Fore
SplineSet
30 -159 m 1
 30 112 l 1
 84 112 106 125 124 148 c 0
 149 179 153 234 153 296 c 0
 153 321 152 346 152 372 c 2
 152 692 l 1
 668 692 l 1
 668 112 l 1
 749 112 l 1
 749 -159 l 1
 631 -159 l 1
 631 0 l 1
 148 0 l 1
 148 -159 l 1
 30 -159 l 1
270 311 m 2
 270 225 265 157 244 108 c 1
 550 108 l 1
 550 586 l 1
 270 586 l 1
 270 311 l 2
EndSplineSet
Validated: 1
EndChar
StartChar: uni0414
Encoding: 1044 1044 395
GlifName: uni0414
Width: 779
Flags: HMW
LayerCount: 2
Back
SplineSet
20 76 m 1
 69 77 104 90 126 118 c 0
 161 162 164 242 164 352 c 2
 164 694 l 1
 635 694 l 1
 635 76 l 1
 714 76 l 1
 714 -159 l 1
 631 -159 l 1
 631 0 l 1
 103 0 l 1
 103 -159 l 1
 20 -159 l 1
 20 76 l 1
244 315 m 2
 244 209 233 125 196 73 c 1
 555 73 l 1
 555 619 l 1
 244 619 l 1
 244 315 l 2
EndSplineSet
Fore
SplineSet
30 113 m 1
 152 113 152 236 152 372 c 2
 152 692 l 1
 668 692 l 1
 668 113 l 1
 749 113 l 1
 749 -159 l 1
 631 -159 l 1
 631 0 l 1
 148 0 l 1
 148 -159 l 1
 30 -159 l 1
 30 113 l 1
275 311 m 2
 275 227 270 161 249 113 c 1
 545 113 l 1
 545 579 l 1
 275 579 l 1
 275 311 l 2
EndSplineSet
Validated: 1
EndChar
StartChar: afii10022
Encoding: 1045 1045 398
Width: 587
Flags: MW
AnchorPoint: "cedilla" 314 0 basechar 0
AnchorPoint: "above" 314 670 basechar 0
AnchorPoint: "below" 314 0 basechar 0
LayerCount: 3
Fore
SplineSet
80 0 m 1
 80 692 l 1
 532 692 l 1
 532 581 l 1
 203 581 l 1
 203 408 l 1
 496 408 l 1
 496 295 l 1
 203 295 l 1
 203 113 l 1
 532 113 l 1
 532 0 l 1
 80 0 l 1
EndSplineSet
Validated: 1
EndChar
StartChar: uni0415
Encoding: 1045 1045 396
Width: 587
Flags: MW
AnchorPoint: "cedilla" 314 0 basechar 0
AnchorPoint: "above" 314 670 basechar 0
AnchorPoint: "below" 314 0 basechar 0
LayerCount: 3
Back
SplineSet
85 0 m 1
 85 694 l 1
 491 694 l 1
 491 620 l 1
 168 620 l 1
 168 406 l 1
 464 406 l 1
 464 332 l 1
 168 332 l 1
 168 74 l 1
 491 74 l 1
 491 0 l 1
 85 0 l 1
EndSplineSet
Fore
SplineSet
80 0 m 1
 80 692 l 1
 532 692 l 1
 532 581 l 1
 203 581 l 1
 203 408 l 1
 496 408 l 1
 496 295 l 1
 203 295 l 1
 203 113 l 1
 532 113 l 1
 532 0 l 1
 80 0 l 1
EndSplineSet
Validated: 1
EndChar
StartChar: afii10024
Encoding: 1046 1046 397
Width: 903
VWidth: 1023
Flags: MW
AnchorPoint: "below" 453 0 basechar 0
AnchorPoint: "above" 453 670 basechar 0
AnchorPoint: "cedilla" 453 0 basechar 0
LayerCount: 3
Back
SplineSet
439 379 m 1
 439 694 l 1
 522 694 l 1
 522 379 l 1
 675 420 672 549 730 625 c 0
 770 678 815 695 875 695 c 0
 883 695 892 695 901 694 c 1
 901 615 l 1
 894 615 887 616 880 616 c 0
 837 616 804 606 783 568 c 0
 742 494 720 403 641 360 c 1
 785 316 841 192 912 0 c 1
 818 0 l 1
 747 233 655 314 522 320 c 1
 522 0 l 1
 439 0 l 1
 439 320 l 1
 306 314 214 233 143 0 c 1
 49 0 l 1
 120 192 176 316 320 360 c 1
 241 403 219 494 178 568 c 0
 157 606 124 616 81 616 c 0
 74 616 67 615 60 615 c 1
 60 694 l 1
 69 695 78 695 86 695 c 0
 146 695 191 678 231 625 c 0
 289 549 286 420 439 379 c 1
EndSplineSet
Fore
SplineSet
513 0 m 1
 390 0 l 1
 390 336 l 1
 171 0 l 1
 12 0 l 1
 264 362 l 1
 29 692 l 1
 185 692 l 1
 390 376 l 1
 390 692 l 1
 513 692 l 1
 513 376 l 1
 718 692 l 1
 874 692 l 1
 639 362 l 1
 891 0 l 1
 732 0 l 1
 513 336 l 1
 513 0 l 1
EndSplineSet
Validated: 1
EndChar
StartChar: uni0416
Encoding: 1046 1046 397
GlifName: uni0416
Width: 961
Flags: MW
AnchorPoint: "above" 480 692 basechar 0
LayerCount: 2
Back
SplineSet
439 379 m 1
 439 694 l 1
 522 694 l 1
 522 379 l 1
 675 420 672 549 730 625 c 0
 770 678 815 695 875 695 c 0
 883 695 892 695 901 694 c 1
 901 615 l 1
 894 615 887 616 880 616 c 0
 837 616 804 606 783 568 c 0
 742 494 720 403 641 360 c 1
 785 316 841 192 912 0 c 1
 818 0 l 1
 747 233 655 314 522 320 c 1
 522 0 l 1
 439 0 l 1
 439 320 l 1
 306 314 214 233 143 0 c 1
 49 0 l 1
 120 192 176 316 320 360 c 1
 241 403 219 494 178 568 c 0
 157 606 124 616 81 616 c 0
 74 616 67 615 60 615 c 1
 60 694 l 1
 69 695 78 695 86 695 c 0
 146 695 191 678 231 625 c 0
 289 549 286 420 439 379 c 1
EndSplineSet
Fore
SplineSet
247 617 m 0
 299 531 331 444 419 423 c 1
 419 692 l 1
 542 692 l 1
 542 423 l 1
 631 444 664 530 714 617 c 0
 748 677 810 706 875 706 c 3
 889 706 921 706 921 706 c 1
 921 587 l 1
 921 587 896 587 880 587 c 3
 834 587 812 566 801 543 c 0
 775 486 736 408 684 361 c 1
 820 304 875 170 941 0 c 1
 803 0 l 1
 739 213 649 292 542 310 c 1
 542 0 l 1
 419 0 l 1
 419 310 l 1
 311 292 222 213 158 0 c 1
 20 0 l 1
 86 170 142 305 277 361 c 1
 223 410 186 486 160 543 c 0
 149 567 124 587 81 587 c 3
 65 587 40 587 40 587 c 1
 40 706 l 1
 54 706 72 706 86 706 c 3
 152 706 215 671 247 617 c 0
EndSplineSet
Validated: 1
EndChar
StartChar: afii10025
Encoding: 1047 1047 398
Width: 680
VWidth: 1023
Flags: MW
AnchorPoint: "below" 328 0 basechar 0
AnchorPoint: "above" 328 670 basechar 0
AnchorPoint: "cedilla" 328 0 basechar 0
LayerCount: 3
Back
SplineSet
73.125 650 m 6xf0
 121.425 673 208.575 702 308.325 702 c 4
 465.825 702 571.875 629 571.875 527 c 4xf0
 571.875 466 541.425 413 491.025 381 c 5
 571.875 347 603.375 287 603.375 220 c 4
 603.375 75 473.175 -22 272.625 -22 c 4
 202.275 -22 129.825 -10 60.5254 17 c 6
 41.625 24 l 5
 79.4248 127 l 5
 98.3252 123 l 6
 187.575 101 235.875 95 273.675 95 c 4
 380.775 95 472.125 139 472.125 205 c 4xe8
 472.125 248 431.175 314 227.475 314 c 6
 150.825 314 l 5
 150.825 425 l 5
 227.475 425 l 6
 394.425 425 435.375 479 435.375 514 c 4
 435.375 556 380.775 587 295.725 587 c 4
 258.975 587 197.025 580 120.375 548 c 5
 100.425 540 l 5
 56.3252 642 l 5
 73.125 650 l 6xf0
EndSplineSet
Fore
SplineSet
317 590 m 0
 286 590 223 578 155 558 c 2
 136 552 l 1
 96 666 l 1
 116 671 l 2
 155 683 224 700 297 700 c 0
 524 700 581 597 581 517 c 0
 581 471 553 422 518 392 c 1
 591 362 631 294 631 218 c 0
 631 152 578 -10 316 -10 c 0
 228 -10 161 13 94 39 c 1
 76 45 l 1
 118 164 l 1
 137 156 l 1
 227 123 287 112 325 112 c 0
 384 112 508 115 508 212 c 0
 508 279 436 320 324 320 c 0
 313 320 301 318 215 314 c 1
 215 398 l 1
 317 400 445 400 445 503 c 0
 445 538 429 590 317 590 c 0
EndSplineSet
Validated: 1
EndChar
StartChar: uni0417
Encoding: 1047 1047 398
Width: 601
VWidth: 1023
Flags: MW
AnchorPoint: "above" 273 692 basechar 0
LayerCount: 2
Back
SplineSet
103 587 m 1
 75 654 l 1
 118 671 l 1
 168 688 221 701 274 704 c 0
 284 705 293 705 303 705 c 0
 327 705 350 703 373 698 c 0
 406 691 438 678 464 657 c 0
 488 638 507 613 517 584 c 0
 522 568 525 552 525 536 c 0
 525 525 524 515 522 504 c 0
 516 478 504 453 486 433 c 0
 468 410 444 393 417 382 c 1
 417 381 l 1
 435 377 452 370 468 362 c 0
 490 350 509 334 524 314 c 0
 543 287 552 253 553 220 c 0
 553 216 553 212 553 208 c 0
 553 162 539 117 512 80 c 0
 483 42 441 16 395 0 c 0
 355 -14 312 -21 269 -21 c 0
 264 -21 258 -21 253 -21 c 0
 209 -20 165 -14 122 -3 c 0
 102 2 82 9 63 17 c 1
 85 85 l 1
 103 78 121 73 139 69 c 0
 173 61 208 57 243 57 c 0
 253 57 262 57 272 58 c 0
 303 59 335 64 364 75 c 0
 393 85 420 103 440 127 c 0
 454 145 464 167 468 190 c 0
 469 195 469 200 469 205 c 0
 469 223 465 241 456 257 c 0
 448 273 436 286 421 296 c 0
 407 306 391 314 374 319 c 0
 341 330 305 332 270 333 c 0
 251 334 231 335 212 336 c 1
 212 407 l 1
 235 409 259 412 282 415 c 0
 317 419 352 425 383 442 c 0
 398 451 412 462 422 476 c 0
 432 490 439 507 440 524 c 0
 440 525 440 526 440 527 c 0
 440 552 428 576 411 593 c 0
 395 608 374 617 353 622 c 0
 332 627 310 627 288 627 c 0
 247 626 207 622 167 611 c 0
 145 605 124 597 103 587 c 1
EndSplineSet
Fore
SplineSet
446 385 m 1
 513 351 552 276 552 193 c 3
 552 57 423 -10 268 -10 c 3
 172 -10 67 32 25 55 c 1
 64 160 l 1
 116 134 196 103 277 103 c 3
 363 103 429 128 429 203 c 3
 429 279 362 306 254 309 c 1
 171 309 l 1
 171 422 l 1
 254 422 l 1
 340 426 388 452 388 516 c 3
 388 573 338 592 277 592 c 3
 204 592 136 561 92 539 c 1
 49 641 l 1
 89 669 176 705 268 705 c 3
 407 705 511 650 511 526 c 3
 511 461 482 416 446 385 c 1
EndSplineSet
Validated: 1
EndChar
StartChar: afii10026
Encoding: 1048 1048 399
Width: 766
VWidth: 1023
Flags: MW
AnchorPoint: "below" 382 0 basechar 0
AnchorPoint: "above" 382 670 basechar 0
AnchorPoint: "cedilla" 624 0 basechar 0
LayerCount: 3
Fore
SplineSet
80 0 m 1
 80 692 l 1
 203 692 l 1
 203 160 l 1
 536 692 l 1
 686 692 l 1
 686 0 l 1
 563 0 l 1
 563 533 l 1
 228 0 l 1
 80 0 l 1
EndSplineSet
Validated: 1
EndChar
StartChar: uni0418
Encoding: 1048 1048 399
Width: 766
VWidth: 1023
Flags: MW
AnchorPoint: "below" 382 0 basechar 0
AnchorPoint: "above" 382 670 basechar 0
AnchorPoint: "cedilla" 624 0 basechar 0
LayerCount: 3
Back
SplineSet
648 694 m 1
 648 0 l 1
 565 0 l 1
 565 584 l 1
 185 0 l 1
 80 0 l 1
 80 694 l 1
 163 694 l 1
 163 114 l 1
 543 694 l 1
 648 694 l 1
EndSplineSet
Fore
SplineSet
80 0 m 1
 80 692 l 1
 203 692 l 1
 203 160 l 1
 536 692 l 1
 686 692 l 1
 686 0 l 1
 563 0 l 1
 563 533 l 1
 228 0 l 1
 80 0 l 1
EndSplineSet
Validated: 1
EndChar
StartChar: uni0419
Encoding: 1049 1049 400
GlifName: uni0419
Width: 746
VWidth: 1023
Flags: HMW
LayerCount: 2
Back
SplineSet
364 785 m 3
 404 785 432 814 450 851 c 1
 505 817 l 1
 484 760 434 718 364 718 c 3
 294 718 244 760 223 817 c 1
 278 851 l 1
 296 814 324 785 364 785 c 3
648 694 m 1
 648 0 l 1
 565 0 l 1
 565 584 l 1
 185 0 l 1
 80 0 l 1
 80 694 l 1
 163 694 l 1
 163 114 l 1
 543 694 l 1
 648 694 l 1
EndSplineSet
Fore
Refer: 571 774 N 1 0 0 1 358 210 2
Refer: 399 1048 N 1 0 0 1 0 0 3
Validated: 1
EndChar
StartChar: afii10028
Encoding: 1050 1050 401
Width: 657
VWidth: 1023
Flags: MW
AnchorPoint: "cedilla" 330 0 basechar 0
AnchorPoint: "above" 330 670 basechar 0
AnchorPoint: "below" 330 0 basechar 0
LayerCount: 3
Back
SplineSet
429 568 m 0
 388 494 366 403 287 360 c 1
 431 316 487 192 558 0 c 1
 464 0 l 1
 393 233 301 314 168 320 c 1
 168 0 l 1
 85 0 l 1
 85 694 l 1
 168 694 l 1
 168 379 l 1
 321 420 318 549 376 625 c 0
 416 678 461 695 521 695 c 0
 529 695 538 695 547 694 c 1
 547 615 l 1
 540 615 533 616 526 616 c 0
 483 616 450 606 429 568 c 0
EndSplineSet
Fore
Refer: 43 75 N 1 0 0 1 0 0 3
Validated: 1
EndChar
StartChar: uni041A
Encoding: 1050 1050 401
Width: 619
Flags: HMW
AnchorPoint: "above" 325 692 basechar 0
LayerCount: 2
Back
SplineSet
444 568 m 0
 403 494 381 403 302 360 c 1
 446 316 502 192 573 0 c 1
 479 0 l 1
 408 233 316 314 183 320 c 1
 183 0 l 1
 100 0 l 1
 100 694 l 1
 183 694 l 1
 183 379 l 1
 336 420 333 549 391 625 c 0
 431 678 476 695 536 695 c 0
 544 695 553 695 562 694 c 1
 562 615 l 1
 555 615 548 616 541 616 c 0
 498 616 465 606 444 568 c 0
EndSplineSet
Fore
SplineSet
345 391 m 1
 458 329 533 184 599 0 c 1
 464 0 l 1
 398 212 312 292 203 309 c 1
 203 0 l 1
 80 0 l 1
 80 692 l 1
 203 692 l 1
 203 420 l 1
 292 442 324 530 375 617 c 0
 409 678 471 706 536 706 c 2
 582 706 l 1
 582 587 l 1
 541 587 l 2
 486 587 471 563 462 543 c 0
 438 493 404 424 345 391 c 1
EndSplineSet
EndChar
StartChar: afii10029
Encoding: 1051 1051 402
Width: 750
Flags: MW
AnchorPoint: "below" 330 0 basechar 0
AnchorPoint: "above" 430 670 basechar 0
AnchorPoint: "cedilla" 330 0 basechar 0
LayerCount: 3
Back
SplineSet
244 694 m 5
 630 694 l 5
 630 0 l 5
 507 0 l 5
 507 580 l 5
 364 580 l 5
 340 360 269 168 187 0 c 5
 50 0 l 5
 155 214 225 443 244 694 c 5
EndSplineSet
Fore
SplineSet
670 692 m 1
 670 0 l 1
 547 0 l 1
 547 581 l 1
 267 581 l 1
 267 311 l 2
 267 198 259 122 216 70 c 0
 178 23 109 -7 0 -7 c 1
 0 110 l 1
 49 113 94 120 116 148 c 0
 141 179 145 234 145 296 c 0
 145 321 144 346 144 372 c 2
 144 692 l 1
 670 692 l 1
EndSplineSet
Validated: 1
EndChar
StartChar: uni041B
Encoding: 1051 1051 402
Width: 750
Flags: HMW
AnchorPoint: "below" 330 0 basechar 0
AnchorPoint: "above" 430 670 basechar 0
AnchorPoint: "cedilla" 330 0 basechar 0
LayerCount: 2
Back
SplineSet
640 694 m 1
 640 0 l 1
 557 0 l 1
 557 619 l 1
 247 619 l 1
 247 311 l 2
 247 198 235 114 192 62 c 0
 154 15 89 -7 20 -7 c 1
 20 72 l 1
 69 75 104 86 126 114 c 0
 161 158 164 238 164 348 c 2
 164 694 l 1
 640 694 l 1
EndSplineSet
Fore
SplineSet
670 692 m 1
 670 0 l 1
 547 0 l 1
 547 579 l 1
 267 579 l 1
 267 311 l 2
 267 92 220 -10 0 -10 c 1
 0 103 l 1
 49 107 91 117 116 148 c 0
 144 182 144 291 144 372 c 2
 144 692 l 1
 670 692 l 1
EndSplineSet
Validated: 1
EndChar
StartChar: afii10030
Encoding: 1052 1052 406
Width: 860
Flags: MW
AnchorPoint: "below" 430 0 basechar 0
AnchorPoint: "above" 430 670 basechar 0
AnchorPoint: "cedilla" 430 0 basechar 0
LayerCount: 3
Fore
SplineSet
80 692 m 1
 244 692 l 1
 431 314 l 1
 622 692 l 1
 780 692 l 1
 780 0 l 1
 657 0 l 1
 657 523 l 1
 481 178 l 1
 377 178 l 1
 203 523 l 1
 203 0 l 1
 80 0 l 1
 80 692 l 1
EndSplineSet
Validated: 1
EndChar
StartChar: uni041C
Encoding: 1052 1052 403
GlifName: uni041C_
Width: 840
Flags: HMW
LayerCount: 2
Back
SplineSet
85 694 m 1
 202 694 l 1
 424 273 l 1
 651 694 l 1
 760 694 l 1
 760 0 l 1
 677 0 l 1
 677 575 l 1
 464 199 l 1
 381 199 l 1
 168 575 l 1
 168 0 l 1
 85 0 l 1
 85 694 l 1
EndSplineSet
Fore
Refer: 44 77 N 1 0 0 1 0 0 2
Validated: 1
EndChar
StartChar: afii10031
Encoding: 1053 1053 407
Width: 740
Flags: MW
AnchorPoint: "cedilla" 370 0 basechar 0
AnchorPoint: "above" 370 670 basechar 0
AnchorPoint: "below" 370 0 basechar 0
LayerCount: 3
Fore
SplineSet
537 692 m 1
 660 692 l 1
 660 0 l 1
 537 0 l 1
 537 290 l 1
 203 290 l 1
 203 0 l 1
 80 0 l 1
 80 692 l 1
 203 692 l 1
 203 403 l 1
 537 403 l 1
 537 692 l 1
EndSplineSet
Validated: 1
EndChar
StartChar: uni041D
Encoding: 1053 1053 404
Width: 740
Flags: MW
AnchorPoint: "cedilla" 370 0 basechar 0
AnchorPoint: "above" 370 670 basechar 0
AnchorPoint: "below" 370 0 basechar 0
LayerCount: 3
Back
SplineSet
553 694 m 1
 636 694 l 1
 636 0 l 1
 553 0 l 1
 553 332 l 1
 168 332 l 1
 168 0 l 1
 85 0 l 1
 85 694 l 1
 168 694 l 1
 168 406 l 1
 553 406 l 1
 553 694 l 1
EndSplineSet
Fore
SplineSet
537 692 m 1
 660 692 l 1
 660 0 l 1
 537 0 l 1
 537 290 l 1
 203 290 l 1
 203 0 l 1
 80 0 l 1
 80 692 l 1
 203 692 l 1
 203 403 l 1
 537 403 l 1
 537 692 l 1
EndSplineSet
Validated: 1
EndChar
StartChar: afii10032
Encoding: 1054 1054 405
Width: 784
Flags: MW
AnchorPoint: "cedilla" 392 0 basechar 0
AnchorPoint: "above" 392 670 basechar 0
AnchorPoint: "below" 392 0 basechar 0
LayerCount: 3
Fore
SplineSet
393 701 m 0
 584 701 734 568 734 354 c 0
 734 139 587 -7 389 -7 c 0
 220 -7 50 109 50 345 c 0
 50 562 200 701 393 701 c 0
388 588 m 0
 285 588 176 518 176 355 c 0
 176 201 274 106 396 106 c 0
 497 106 608 176 608 346 c 0
 608 518 490 588 388 588 c 0
EndSplineSet
Validated: 1
EndChar
StartChar: uni041E
Encoding: 1054 1054 405
Width: 784
Flags: MW
AnchorPoint: "cedilla" 392 0 basechar 0
AnchorPoint: "above" 392 670 basechar 0
AnchorPoint: "below" 392 0 basechar 0
LayerCount: 3
Back
SplineSet
381 706 m 3
 581 706 707 546 707 346 c 3
 707 146 581 -10 381 -10 c 3
 181 -10 55 146 55 346 c 3
 55 546 181 706 381 706 c 3
381 64 m 3
 521 64 624 186 624 346 c 3
 624 506 521 632 381 632 c 3
 241 632 138 506 138 346 c 3
 138 186 241 64 381 64 c 3
EndSplineSet
Fore
SplineSet
393 701 m 0
 584 701 734 568 734 354 c 0
 734 139 587 -7 389 -7 c 0
 220 -7 50 109 50 345 c 0
 50 562 200 701 393 701 c 0
388 588 m 0
 285 588 176 518 176 355 c 0
 176 201 274 106 396 106 c 0
 497 106 608 176 608 346 c 0
 608 518 490 588 388 588 c 0
EndSplineSet
Validated: 1
EndChar
StartChar: afii10033
Encoding: 1055 1055 406
Width: 740
Flags: MW
AnchorPoint: "cedilla" 370 0 basechar 0
AnchorPoint: "above" 370 670 basechar 0
AnchorPoint: "below" 370 0 basechar 0
LayerCount: 3
Back
SplineSet
627 694 m 1
 627 0 l 1
 544 0 l 1
 544 620 l 1
 168 620 l 1
 168 0 l 1
 85 0 l 1
 85 694 l 1
 627 694 l 1
EndSplineSet
Fore
SplineSet
80 692 m 1
 660 692 l 1
 660 0 l 1
 537 0 l 1
 537 580 l 1
 203 580 l 1
 203 0 l 1
 80 0 l 1
 80 692 l 1
EndSplineSet
Validated: 1
EndChar
StartChar: uni041F
Encoding: 1055 1055 406
Width: 740
Flags: HMW
LayerCount: 2
Back
SplineSet
627 694 m 1
 627 0 l 1
 544 0 l 1
 544 620 l 1
 168 620 l 1
 168 0 l 1
 85 0 l 1
 85 694 l 1
 627 694 l 1
EndSplineSet
Fore
SplineSet
80 692 m 1
 660 692 l 1
 660 0 l 1
 537 0 l 1
 537 579 l 1
 203 579 l 1
 203 0 l 1
 80 0 l 1
 80 692 l 1
EndSplineSet
Validated: 1
EndChar
StartChar: afii10034
Encoding: 1056 1056 407
Width: 631
Flags: MW
AnchorPoint: "cedilla" 141 0 basechar 0
AnchorPoint: "above" 310 670 basechar 0
AnchorPoint: "below" 310 0 basechar 0
LayerCount: 3
Back
SplineSet
257 362 m 7
 367 362 461 370 461 490 c 7
 461 600 378 619 258 619 c 6
 168 619 l 5
 168 362 l 5
 257 362 l 7
545 490 m 7
 545 415 487 288 302 288 c 4
 168 288 l 5
 168 0 l 5
 85 0 l 5
 85 694 l 5
 302 694 l 6
 462 694 545 610 545 490 c 7
EndSplineSet
Fore
SplineSet
80 692 m 1
 306 692 l 2
 396 692 591 680 591 489 c 0
 591 291 407 268 257 268 c 0
 238 268 221 269 203 270 c 1
 203 0 l 1
 80 0 l 1
 80 692 l 1
203 581 m 1
 203 383 l 1
 224 382 243 380 264 380 c 0
 369 380 465 389 465 485 c 0
 465 570 383 581 294 581 c 2
 203 581 l 1
EndSplineSet
Validated: 1
EndChar
StartChar: uni0420
Encoding: 1056 1056 407
GlifName: uni0420
Width: 591
Flags: HMW
LayerCount: 2
Back
SplineSet
257 362 m 7
 367 362 461 370 461 490 c 7
 461 600 378 619 258 619 c 6
 168 619 l 5
 168 362 l 5
 257 362 l 7
545 490 m 7
 545 415 487 288 302 288 c 4
 168 288 l 5
 168 0 l 5
 85 0 l 5
 85 694 l 5
 302 694 l 6
 462 694 545 610 545 490 c 7
EndSplineSet
Fore
Refer: 49 80 N 1 0 0 1 0 0 2
Validated: 1
EndChar
StartChar: afii10035
Encoding: 1057 1057 410
Width: 682
Flags: MW
AnchorPoint: "cedilla" 356 0 basechar 0
AnchorPoint: "above" 380 670 basechar 0
AnchorPoint: "below" 380 0 basechar 0
LayerCount: 3
Fore
SplineSet
419 699 m 0
 473 699 541 689 614 660 c 2
 632 653 l 1
 592 555 l 1
 573 562 l 2
 497 590 448 590 416 590 c 0
 266 590 176 479 176 347 c 0
 176 200 272 103 434 103 c 0
 478 103 531 114 584 135 c 2
 602 142 l 1
 642 43 l 1
 624 36 l 1
 551 5 476 -10 412 -10 c 0
 187 -10 50 149 50 346 c 0
 50 546 194 699 419 699 c 0
EndSplineSet
Validated: 1
EndChar
StartChar: uni0421
Encoding: 1057 1057 408
Width: 682
Flags: MW
AnchorPoint: "cedilla" 356 0 basechar 0
AnchorPoint: "above" 380 670 basechar 0
AnchorPoint: "below" 380 0 basechar 0
LayerCount: 3
Back
SplineSet
607 671 m 1
 584 601 l 1
 534 621 451 632 381 632 c 3
 222 632 138 486 138 346 c 3
 138 206 221 64 381 64 c 3
 451 64 545 82 595 102 c 1
 616 35 l 1
 546 10 471 -10 381 -10 c 3
 181 -10 55 146 55 346 c 3
 55 546 181 706 381 706 c 3
 471 706 537 696 607 671 c 1
EndSplineSet
Fore
SplineSet
419 699 m 0
 473 699 541 689 614 660 c 2
 632 653 l 1
 592 555 l 1
 573 562 l 2
 497 590 448 590 416 590 c 0
 266 590 176 479 176 347 c 0
 176 200 272 103 434 103 c 0
 478 103 531 114 584 135 c 2
 602 142 l 1
 642 43 l 1
 624 36 l 1
 551 5 476 -10 412 -10 c 0
 187 -10 50 149 50 346 c 0
 50 546 194 699 419 699 c 0
EndSplineSet
Validated: 1
EndChar
StartChar: afii10037
Encoding: 1059 1059 413
Width: 628
VWidth: 1023
Flags: MW
AnchorPoint: "below" 319 0 basechar 0
AnchorPoint: "above" 319 670 basechar 0
AnchorPoint: "cedilla" 167 0 basechar 0
LayerCount: 3
Fore
SplineSet
264 0 m 1
 133 0 l 1
 254 244 l 1
 25 692 l 1
 160 692 l 1
 322 376 l 1
 482 692 l 1
 615 692 l 1
 264 0 l 1
EndSplineSet
Validated: 1
EndChar
StartChar: uni0423
Encoding: 1059 1059 410
Width: 673
Flags: HMW
AnchorPoint: "above" 338 692 basechar 0
LayerCount: 2
Back
SplineSet
143.658203125 694 m 1
 341.658203125 233 l 1
 533.658203125 694 l 1
 622.658203125 694 l 1
 380.658203125 123 l 1
 365.658203125 85 346.658203125 54 316.658203125 30 c 0
 278.658203125 1 230.658203125 -14 176.658203125 -14 c 0
 145.658203125 -14 114.658203125 -9 83.658203125 0 c 1
 93.658203125 70 l 1
 113.658203125 65 133.658203125 63 154.658203125 63 c 0
 166.658203125 63 179.658203125 64 191.658203125 65 c 0
 217.658203125 68 243.658203125 74 264.658203125 90 c 0
 278.658203125 101 291.658203125 115 297.658203125 131 c 1
 50.658203125 694 l 1
 143.658203125 694 l 1
EndSplineSet
Fore
SplineSet
20 692 m 1
 157 692 l 1
 341 264 l 1
 520 692 l 1
 653 692 l 1
 399 127 l 1
 365 47 291 -10 177 -10 c 3
 144 -10 111 -4 78 5 c 0
 62 10 l 1
 77 119 l 1
 99 113 l 0
 117 108 135 107 155 107 c 3
 215 107 260 121 276 148 c 1
 20 692 l 1
EndSplineSet
Validated: 1
EndChar
StartChar: afii10038
Encoding: 1060 1060 414
Width: 841
VWidth: 1023
Flags: MW
AnchorPoint: "below" 421 0 basechar 0
AnchorPoint: "above" 421 670 basechar 0
AnchorPoint: "cedilla" 421 0 basechar 0
LayerCount: 3
Back
SplineSet
154.609 538.202 m 0
 214.916 580.717 301.264 604.947 399.94 611.571 c 1
 399.94 695.8 l 1
 535.2 695.8 l 1
 535.2 611.365 l 1
 642.836 603.635 729.699 578.044 785.621 532.85 c 0
 841.342 483.698 869.885 420.932 869.885 348.356 c 0
 869.885 277.371 842.286 215.24 788.523 165.407 c 0
 734.794 118.871 645.133 92.8105 535.2 84.9023 c 1
 535.2 0 l 1
 399.94 0 l 1
 399.94 84.6973 l 1
 299.416 91.4961 215.26 115.81 154.815 158.542 c 0
 95.0469 206.411 64.7598 271.239 64.7598 348.356 c 0
 64.7598 425.727 94.9248 490.594 154.609 538.202 c 0
663.457 458.663 m 1
 624.443 486.92 580.238 504.285 535.055 511.152 c 1
 533.385 185.807 l 1
 580.037 192.535 622.813 209.314 662.52 237.372 c 1
 698.754 263.283 717.869 298.69 717.869 348.39 c 0
 717.869 397.1 699.139 432.382 663.457 458.663 c 1
396.984 186.368 m 1
 399.703 510.749 l 1
 356.556 503.96 315.162 487.467 274.122 459.544 c 0
 236.406 433.841 216.767 398.605 216.767 348.39 c 0
 216.767 298.852 236.171 263.668 273.75 237.542 c 0
 314.245 209.326 356.131 192.792 396.984 186.368 c 1
EndSplineSet
Fore
SplineSet
482 708 m 1
 482 668 l 1
 498 680 510 687 574 687 c 0
 702 687 800 580 800 389 c 0
 800 178 686 81 536 81 c 0
 517 81 500 81 482 83 c 1
 482 0 l 1
 359 0 l 1
 359 83 l 1
 341 81 324 81 305 81 c 0
 155 81 41 178 41 389 c 0
 41 580 139 687 267 687 c 0
 331 687 343 680 359 668 c 1
 359 708 l 1
 482 708 l 1
482 571 m 1
 482 196 l 1
 503 195 522 193 543 193 c 0
 648 193 674 279 674 375 c 0
 674 460 622 571 533 571 c 2
 482 571 l 1
359 571 m 1
 308 571 l 2
 219 571 167 460 167 375 c 0
 167 279 193 193 298 193 c 0
 319 193 338 195 359 196 c 1
 359 571 l 1
EndSplineSet
Validated: 1
EndChar
StartChar: uni0424
Encoding: 1060 1060 411
GlifName: uni0424
Width: 877
Flags: HMW
LayerCount: 2
Back
SplineSet
401 -30 m 1
 401 62 l 1
 387 57 353 48 318 48 c 0
 222 48 44 107 44 347 c 0
 44 587 222 646 318 646 c 0
 353 646 387 637 401 632 c 1
 401 724 l 1
 476 724 l 1
 476 632 l 1
 490 637 524 646 559 646 c 0
 655 646 833 587 833 347 c 0
 833 107 655 48 559 48 c 0
 524 48 490 57 476 62 c 1
 476 -30 l 1
 401 -30 l 1
476 565 m 1
 476 129 l 1
 494 119 532 115 547 115 c 0
 663 115 743 187 743 347 c 0
 743 507 663 579 547 579 c 0
 532 579 494 575 476 565 c 1
401 129 m 1
 401 565 l 1
 383 575 345 579 330 579 c 0
 214 579 134 507 134 347 c 0
 134 187 214 115 330 115 c 0
 345 115 383 119 401 129 c 1
EndSplineSet
Fore
SplineSet
500 -10 m 1
 377 -10 l 1
 377 90 l 1
 358 86 340 83 318 83 c 3
 218 83 24 133 24 340 c 3
 24 564 217 621 318 621 c 3
 340 621 361 618 377 614 c 1
 377 706 l 1
 500 706 l 1
 500 614 l 1
 519 618 537 621 559 621 c 3
 660 621 853 564 853 340 c 3
 853 133 659 83 559 83 c 3
 537 83 516 86 500 90 c 1
 500 -10 l 1
547 529 m 3
 539 529 514 526 500 522 c 1
 500 182 l 1
 516 177 538 175 547 175 c 3
 655 175 723 226 723 347 c 3
 723 476 654 529 547 529 c 3
330 175 m 3
 338 175 363 178 377 182 c 1
 377 522 l 1
 361 527 339 529 330 529 c 3
 223 529 154 476 154 347 c 3
 154 226 222 175 330 175 c 3
EndSplineSet
Validated: 1
EndChar
StartChar: afii10039
Encoding: 1061 1061 414
Width: 692
Flags: MW
AnchorPoint: "cedilla" 347 0 basechar 0
AnchorPoint: "above" 347 670 basechar 0
AnchorPoint: "below" 347 0 basechar 0
LayerCount: 3
Fore
SplineSet
346 463 m 1
 503 692 l 1
 642 692 l 1
 416 361 l 1
 662 0 l 1
 521 0 l 1
 346 258 l 1
 171 0 l 1
 30 0 l 1
 276 361 l 1
 50 692 l 1
 189 692 l 1
 346 463 l 1
EndSplineSet
Validated: 1
EndChar
StartChar: uni0425
Encoding: 1061 1061 412
Width: 692
Flags: MW
AnchorPoint: "cedilla" 347 0 basechar 0
AnchorPoint: "above" 347 670 basechar 0
AnchorPoint: "below" 347 0 basechar 0
LayerCount: 3
Back
SplineSet
487 694 m 1
 582 694 l 1
 363 364 l 1
 609 0 l 1
 502 0 l 1
 307 292 l 1
 112 0 l 1
 10 0 l 1
 260 362 l 1
 39 694 l 1
 140 694 l 1
 316 433 l 1
 487 694 l 1
EndSplineSet
Fore
SplineSet
346 463 m 1
 503 692 l 1
 642 692 l 1
 416 361 l 1
 662 0 l 1
 521 0 l 1
 346 258 l 1
 171 0 l 1
 30 0 l 1
 276 361 l 1
 50 692 l 1
 189 692 l 1
 346 463 l 1
EndSplineSet
Validated: 1
EndChar
StartChar: afii10040
Encoding: 1062 1062 413
Width: 761
Flags: MW
AnchorPoint: "below" 370 0 basechar 0
AnchorPoint: "above" 370 670 basechar 0
AnchorPoint: "cedilla" 370 0 basechar 0
LayerCount: 3
Back
SplineSet
624 0 m 1
 85 0 l 1
 85 694 l 1
 168 694 l 1
 168 76 l 1
 545 76 l 1
 545 694 l 1
 628 694 l 1
 628 76 l 1
 707 76 l 1
 707 -159 l 1
 624 -159 l 1
 624 0 l 1
EndSplineSet
Fore
SplineSet
617 -178 m 1
 617 0 l 1
 80 0 l 1
 80 692 l 1
 203 692 l 1
 203 114 l 1
 527 114 l 1
 527 692 l 1
 650 692 l 1
 650 113 l 1
 731 113 l 1
 731 -178 l 1
 617 -178 l 1
EndSplineSet
Validated: 1
EndChar
StartChar: uni0426
Encoding: 1062 1062 413
Width: 761
Flags: HMW
AnchorPoint: "above" 364 692 basechar 0
LayerCount: 2
Back
SplineSet
624 0 m 1
 85 0 l 1
 85 694 l 1
 168 694 l 1
 168 76 l 1
 545 76 l 1
 545 694 l 1
 628 694 l 1
 628 76 l 1
 707 76 l 1
 707 -159 l 1
 624 -159 l 1
 624 0 l 1
EndSplineSet
Fore
SplineSet
617 -178 m 1
 617 0 l 1
 80 0 l 1
 80 692 l 1
 203 692 l 1
 203 113 l 1
 527 113 l 1
 527 692 l 1
 650 692 l 1
 650 112 l 1
 731 112 l 1
 731 -178 l 1
 617 -178 l 1
EndSplineSet
Validated: 1
EndChar
StartChar: afii10041
Encoding: 1063 1063 417
Width: 740
VWidth: 1023
Flags: MW
AnchorPoint: "below" 368 0 basechar 0
AnchorPoint: "above" 368 670 basechar 0
AnchorPoint: "cedilla" 599 0 basechar 0
LayerCount: 3
Fore
SplineSet
80 400 m 2
 80 692 l 1
 203 692 l 1
 203 405 l 2
 203 405 203 404 203 404 c 0
 203 350 286 301 342 301 c 0
 398 301 478 335 537 405 c 1
 537 692 l 1
 660 692 l 1
 660 0 l 1
 537 0 l 1
 537 291 l 1
 472 213 402 177 311 177 c 0
 309 177 306 177 304 177 c 0
 192 179 80 287 80 400 c 2
EndSplineSet
Validated: 1
EndChar
StartChar: uni0427
Encoding: 1063 1063 414
Width: 614
Flags: HMW
AnchorPoint: "above" 287 692 basechar 0
LayerCount: 2
Back
SplineSet
446 0 m 1
 446 291 l 1
 418 286 339 275 293 275 c 0
 255 275 210 281 174 295 c 0
 100 324 50 388 50 504 c 2
 50 694 l 1
 133 694 l 1
 133 694 133 553 133 507 c 0
 133 460 144 424 162 402 c 0
 198 359 259 355 297 355 c 0
 349 355 414 365 446 375 c 1
 446 694 l 1
 529 694 l 1
 529 0 l 1
 446 0 l 1
EndSplineSet
Fore
SplineSet
549 0 m 1
 426 0 l 1
 426 266 l 1
 400 262 363 258 319 258 c 3
 145 258 30 327 30 493 c 0
 30 692 l 1
 153 692 l 1
 153 499 l 0
 153 408 216 378 297 378 c 3
 372 378 410 384 426 388 c 1
 426 692 l 1
 549 692 l 1
 549 0 l 1
EndSplineSet
Validated: 1
EndChar
StartChar: afii10042
Encoding: 1064 1064 417
Width: 973
Flags: MW
AnchorPoint: "below" 498 0 basechar 0
AnchorPoint: "above" 498 670 basechar 0
AnchorPoint: "cedilla" 498 0 basechar 0
LayerCount: 3
Back
SplineSet
436 114 m 5
 436 694 l 5
 560 694 l 5
 560 114 l 5
 793 114 l 5
 793 694 l 5
 916 694 l 5
 916 0 l 5
 80 0 l 5
 80 694 l 5
 203 694 l 5
 203 490.247 203 306.092 203 114 c 5
 436 114 l 5
EndSplineSet
Fore
SplineSet
893 692 m 1
 893 0 l 1
 80 0 l 1
 80 692 l 1
 200 692 l 1
 200 111 l 1
 423 111 l 1
 423 692 l 1
 543 692 l 1
 543 111 l 1
 773 111 l 1
 773 692 l 1
 893 692 l 1
EndSplineSet
Validated: 1
EndChar
StartChar: uni0428
Encoding: 1064 1064 415
Width: 973
Flags: HMW
LayerCount: 2
Back
SplineSet
817 0 m 1
 80 0 l 1
 80 694 l 1
 163 694 l 1
 163 76 l 1
 407 76 l 1
 407 694 l 1
 490 694 l 1
 490 76 l 1
 734 76 l 1
 734 694 l 1
 817 694 l 1
 817 0 l 1
EndSplineSet
Fore
SplineSet
893 692 m 1
 893 0 l 1
 80 0 l 1
 80 692 l 1
 203 692 l 1
 203 113 l 1
 422 113 l 1
 422 692 l 1
 545 692 l 1
 545 113 l 1
 770 113 l 1
 770 692 l 1
 893 692 l 1
EndSplineSet
Validated: 1
EndChar
StartChar: afii10043
Encoding: 1065 1065 419
Width: 1004
Flags: MW
AnchorPoint: "cedilla" 498 0 basechar 0
AnchorPoint: "above" 498 670 basechar 0
AnchorPoint: "below" 498 0 basechar 0
LayerCount: 3
Back
SplineSet
436 114 m 5xf4
 436 694 l 5
 560 694 l 5
 560 114 l 5
 793 114 l 5
 793 694 l 5
 916 694 l 5
 916 92 l 5xf8
 1006 92 l 5
 1006 -178 l 5
 899 -178 l 5
 899 0 l 5
 80 0 l 5
 80 694 l 5
 203 694 l 5
 203 114 l 5
 436 114 l 5xf4
EndSplineSet
Fore
SplineSet
860 -178 m 1
 860 0 l 1
 80 0 l 1
 80 692 l 1
 200 692 l 1
 200 111 l 1
 423 111 l 1
 423 692 l 1
 543 692 l 1
 543 111 l 1
 773 111 l 1
 773 692 l 1
 893 692 l 1
 893 113 l 1
 974 113 l 1
 974 -178 l 1
 860 -178 l 1
EndSplineSet
Validated: 1
EndChar
StartChar: uni0429
Encoding: 1065 1065 416
Width: 1004
Flags: MW
AnchorPoint: "cedilla" 498 0 basechar 0
AnchorPoint: "above" 498 670 basechar 0
AnchorPoint: "below" 498 0 basechar 0
LayerCount: 3
Back
SplineSet
813 0 m 1
 80 0 l 1
 80 694 l 1
 163 694 l 1
 163 76 l 1
 407 76 l 1
 407 694 l 1
 490 694 l 1
 490 76 l 1
 734 76 l 1
 734 694 l 1
 817 694 l 1
 817 76 l 1
 896 76 l 1
 896 -159 l 1
 813 -159 l 1
 813 0 l 1
EndSplineSet
Fore
SplineSet
860 -178 m 1
 860 0 l 1
 80 0 l 1
 80 692 l 1
 200 692 l 1
 200 111 l 1
 423 111 l 1
 423 692 l 1
 543 692 l 1
 543 111 l 1
 773 111 l 1
 773 692 l 1
 893 692 l 1
 893 113 l 1
 974 113 l 1
 974 -178 l 1
 860 -178 l 1
EndSplineSet
Validated: 1
EndChar
StartChar: afii10044
Encoding: 1066 1066 417
Width: 729
Flags: MW
AnchorPoint: "below" 400 0 basechar 0
AnchorPoint: "above" 400 670 basechar 0
AnchorPoint: "cedilla" 400 0 basechar 0
LayerCount: 3
Back
SplineSet
328 113 m 5
 419 113 l 6
 508 113 590 124 590 209 c 4
 590 305 494 314 389 314 c 4
 368 314 349 312 328 311 c 5
 328 113 l 5
205 0 m 5
 205 581 l 5
 27 581 l 5
 27 694 l 5
 328 694 l 5
 328 424 l 5
 346 425 363 426 382 426 c 4
 532 426 716 406 716 195 c 4
 716 4 531 0 441 0 c 6
 205 0 l 5
EndSplineSet
Fore
SplineSet
10 581 m 1
 10 692 l 1
 311 692 l 1
 311 428 l 1
 355 428 l 2
 509 428 689 403 689 205 c 0
 689 14 494 0 404 0 c 2
 188 0 l 1
 188 581 l 1
 10 581 l 1
311 314 m 1
 311 113 l 1
 392 113 l 2
 481 113 563 124 563 209 c 0
 563 305 467 314 362 314 c 2
 311 314 l 1
EndSplineSet
Validated: 1
EndChar
StartChar: uni042A
Encoding: 1066 1066 417
Width: 682
UnlinkRmOvrlpSave: 1
Flags: HMW
AnchorPoint: "above" 226 692 basechar 0
LayerCount: 2
Back
SplineSet
265 694 m 1
 265 404 l 1
 293 406 322 407 348 407 c 0
 406 407 477 400 513 388 c 0
 587 363 642 299 642 207 c 0
 642 109 594 40 513 13 c 0
 496 8 476 0 400 0 c 2
 182 0 l 1
 182 621 l 1
 10 621 l 1
 10 694 l 1
 265 694 l 1
354 334 m 0
 328 334 297 333 265 330 c 1
 265 73 l 1
 355 73 l 2
 400 73 429 74 442 76 c 0
 511 83 558 125 558 200 c 0
 558 322 467 334 354 334 c 0
EndSplineSet
Fore
SplineSet
285 692 m 1
 285 579 l 1
 30 579 l 1
 30 692 l 1
 285 692 l 1
EndSplineSet
Refer: 419 1068 N 1 0 0 1 102 0 2
Validated: 5
EndChar
StartChar: afii10045
Encoding: 1067 1067 418
Width: 841
Flags: MW
AnchorPoint: "below" 430 0 basechar 0
AnchorPoint: "above" 430 670 basechar 0
AnchorPoint: "cedilla" 430 0 basechar 0
LayerCount: 3
Back
SplineSet
80 0 m 5
 80 694 l 5
 203 694 l 5
 203 424 l 5
 221 425 228 426 247 426 c 4
 397 426 561 406 561 195 c 4
 561 4 396 0 306 0 c 6
 80 0 l 5
203 113 m 5
 284 113 l 6
 373 113 435 124 435 209 c 4
 435 305 359 314 254 314 c 4
 233 314 224 312 203 311 c 5
 203 113 l 5
648 694 m 5
 771 694 l 5
 771 0 l 5
 648 0 l 5
 648 694 l 5
EndSplineSet
Fore
SplineSet
638 692 m 1
 761 692 l 1
 761 0 l 1
 638 0 l 1
 638 692 l 1
276 0 m 2
 80 0 l 1
 80 692 l 1
 203 692 l 1
 203 428 l 1
 227 428 l 2
 381 428 561 403 561 205 c 0
 561 14 366 0 276 0 c 2
203 314 m 1
 203 113 l 1
 264 113 l 2
 353 113 435 124 435 209 c 0
 435 305 339 314 234 314 c 2
 203 314 l 1
EndSplineSet
Validated: 1
EndChar
StartChar: uni042B
Encoding: 1067 1067 418
Width: 806
Flags: HMW
AnchorPoint: "above" 390 692 basechar 0
LayerCount: 2
Back
SplineSet
618 694 m 1
 701 694 l 1
 701 0 l 1
 618 0 l 1
 618 694 l 1
85 0 m 1
 85 694 l 1
 168 694 l 1
 168 404 l 1
 196 406 225 407 251 407 c 0
 309 407 380 400 416 388 c 0
 490 363 545 299 545 207 c 0
 545 109 497 40 416 13 c 0
 399 8 379 0 303 0 c 2
 85 0 l 1
257 334 m 0
 231 334 200 333 168 330 c 1
 168 73 l 1
 258 73 l 2
 303 73 332 74 345 76 c 0
 414 83 461 125 461 200 c 0
 461 322 370 334 257 334 c 0
EndSplineSet
Fore
SplineSet
618 692 m 1
 741 692 l 1
 741 0 l 1
 618 0 l 1
 618 692 l 1
EndSplineSet
Refer: 419 1068 N 1 0 0 1 6 0 2
Validated: 1
EndChar
StartChar: afii10046
Encoding: 1068 1068 422
Width: 621
Flags: MW
AnchorPoint: "below" 320 0 basechar 0
AnchorPoint: "above" 320 670 basechar 0
AnchorPoint: "cedilla" 320 0 basechar 0
LayerCount: 3
Back
SplineSet
80 0 m 5
 80 694 l 5
 203 694 l 5
 203 424 l 5
 221 425 238 426 257 426 c 4
 407 426 591 406 591 195 c 4
 591 4 406 0 316 0 c 6
 80 0 l 5
203 113 m 5
 294 113 l 6
 383 113 465 124 465 209 c 4
 465 305 369 314 264 314 c 4
 243 314 224 312 203 311 c 5
 203 113 l 5
337.955 432.45 m 1
 594.497 432.45 659.3 336.661 659.3 222.157 c 0
 659.3 160.929 633.893 107.623 585.039 65.6367 c 1
 533.743 23.0186 472.719 0 364.681 0 c 0
 91.2998 0 l 1
 91.2998 693.9 l 1
 227.92 694.437 l 1
 226.742 431.307 l 1
 337.955 432.45 l 1
522.782 227 m 0
 522.782 285.154 495.032 333.934 340.604 333.45 c 2
 226.638 333.093 l 1
 226.638 123 l 1
 377.66 123 l 0
 475.653 123 522.782 166.844 522.782 227 c 0
EndSplineSet
Fore
SplineSet
296 0 m 2
 80 0 l 1
 80 692 l 1
 203 692 l 1
 203 428 l 1
 247 428 l 2
 401 428 581 403 581 205 c 0
 581 14 386 0 296 0 c 2
203 314 m 1
 203 113 l 1
 284 113 l 2
 373 113 455 124 455 209 c 0
 455 305 359 314 254 314 c 2
 203 314 l 1
EndSplineSet
Validated: 1
EndChar
